<?xml version="1.0" encoding="UTF-8"?>
<svg version="1.1" xmlns="http://www.w3.org/2000/svg" width="484" height="515">
<path d="M0 0 C-3.05693049 38.46935229 -22.21702748 71.23726352 -48 99 C-48.5775 99.64324219 -49.155 100.28648437 -49.75 100.94921875 C-73.4730598 126.20792305 -113.29135981 146.51089806 -148.16650391 148.09863281 C-149.77800286 148.10105794 -151.38949567 148.05666186 -153 148 C-152.6056652 143.56373353 -151.68677556 139.44796762 -150.375 135.1875 C-149.95347656 133.78564453 -149.95347656 133.78564453 -149.5234375 132.35546875 C-148 130 -148 130 -144.9140625 128.81640625 C-143.62242187 128.54699219 -142.33078125 128.27757812 -141 128 C-139.56088716 127.647139 -138.12343382 127.28745771 -136.6875 126.921875 C-135.93017578 126.73407471 -135.17285156 126.54627441 -134.39257812 126.3527832 C-106.60083845 119.35096634 -82.70865941 105.76735671 -62 86 C-61.35289062 85.41605469 -60.70578125 84.83210938 -60.0390625 84.23046875 C-42.70259291 67.99079622 -27.07691084 42.22849883 -23.1796875 18.6171875 C-21.57334426 9.32993865 -21.57334426 9.32993865 -18.33984375 6.59667969 C-12.75737776 2.98337122 -6.71703904 0 0 0 Z " fill="#175053" transform="translate(414,281)"/>
<path d="M0 0 C-0.19946267 3.35647528 -0.56312383 6.66644485 -1 10 C-1.05671875 10.76054688 -1.1134375 11.52109375 -1.171875 12.3046875 C-1.66374536 14.91160038 -2.13316618 16.08392117 -4 18 C-7.78300977 19.40284664 -11.54289397 20.22183443 -15.48828125 21.02734375 C-35.4767275 25.11970379 -54.63424676 35.0716382 -71 47 C-71.84175781 47.598125 -72.68351562 48.19625 -73.55078125 48.8125 C-87.77995113 59.52622791 -99.75260099 72.84045319 -109 88 C-109.39622559 88.63196289 -109.79245117 89.26392578 -110.20068359 89.91503906 C-119.20245508 104.37568637 -125.50474457 120.35817911 -128.8203125 137.06640625 C-130.87548545 142.17711779 -135.76263706 144.08859213 -140.5625 146.3125 C-141.28566406 146.65925781 -142.00882812 147.00601563 -142.75390625 147.36328125 C-145.4950496 148.1403358 -147.28141774 147.74056283 -150 147 C-147.12873082 117.54473855 -134.94459031 89.33825504 -117 66 C-116.31679687 65.0925 -115.63359375 64.185 -114.9296875 63.25 C-90.15098913 31.59356406 -55.36081268 10.58651072 -16.375 1.625 C-15.65320557 1.45709961 -14.93141113 1.28919922 -14.18774414 1.11621094 C-9.37181728 0.08019089 -4.92491345 -0.14387388 0 0 Z " fill="#8ED5C4" transform="translate(224,93)"/>
<path d="M0 0 C32.02696918 2.51493828 63.46504002 16.56302101 88 37 C88.57057129 37.46519043 89.14114258 37.93038086 89.72900391 38.40966797 C119.64697557 62.82867238 140.18785551 96.23837206 148.3125 134.0625 C148.57003052 135.25903198 148.57003052 135.25903198 148.83276367 136.47973633 C149.69407057 140.72247033 150.18811661 144.64544889 150 149 C135.25871623 146.71676357 135.25871623 146.71676357 131 142 C127.7816157 135.42412372 126.46969766 128.04089397 124.77832031 120.95947266 C123.02427199 114.28990748 120.03820231 108.1651611 117 102 C116.45730469 100.88753906 115.91460937 99.77507812 115.35546875 98.62890625 C108.46311834 85.18317347 99.44347005 73.8232326 89 63 C88.33484375 62.28328125 87.6696875 61.5665625 86.984375 60.828125 C68.5745901 41.49011565 41.50392921 27.31156065 15.40625 22.01953125 C4.87834629 19.88468052 4.87834629 19.88468052 2.375 17.36328125 C1.44502314 15.15905724 1.1730446 13.38722897 1 11 C0.88140625 10.02160156 0.7628125 9.04320313 0.640625 8.03515625 C0.35092142 5.35539812 0.14345325 2.69098511 0 0 Z " fill="#245F65" transform="translate(264,92)"/>
<path d="M0 0 C4.15322997 0.66887224 7.7635203 1.96500758 11.625 3.625 C12.75164062 4.09164063 13.87828125 4.55828125 15.0390625 5.0390625 C20.58666907 8.71307107 21.45964429 15.26005269 23.25 21.375 C35.23591464 60.71836065 60.62828861 92.55755222 96.875 112.125 C109.55922149 118.765334 122.74503279 123.66322218 136.59350586 127.2644043 C141.78597455 128.67896182 141.78597455 128.67896182 144 132 C144.6117498 134.56766546 145.15063535 137.09543602 145.625 139.6875 C145.7590625 140.38939453 145.893125 141.09128906 146.03125 141.81445312 C146.3602717 143.54181706 146.68095312 145.27076591 147 147 C141.44608547 147.16098303 136.47199577 146.71484304 131.0625 145.375 C130.33015137 145.19606201 129.59780273 145.01712402 128.84326172 144.83276367 C109.86089236 140.02327471 91.05796497 132.29155314 75 121 C74.12601562 120.39800781 73.25203125 119.79601562 72.3515625 119.17578125 C37.16860656 94.32592842 11.20175029 58.68098453 1.5625 16.3125 C1.3164502 15.23572998 1.3164502 15.23572998 1.06542969 14.13720703 C0.06330054 9.34738843 -0.13724874 4.89154492 0 0 Z " fill="#89CFBE" transform="translate(75,281)"/>
<path d="M0 0 C2.46032432 2.46032432 2.70444744 4.08638757 3.53710938 7.45141602 C3.96944885 9.1767028 3.96944885 9.1767028 4.41052246 10.93684387 C4.71848755 12.19647446 5.02645264 13.45610504 5.34375 14.75390625 C5.67213058 16.07560366 6.00112234 17.39714935 6.33068848 18.71855164 C7.21314241 22.26453871 8.08677824 25.81264286 8.95849609 29.36128235 C9.85845874 33.0196376 10.76564074 36.67620216 11.671875 40.33300781 C13.290356 46.86898945 14.90139067 53.40678039 16.5092926 59.94537163 C17.84125958 65.35999688 19.18190393 70.77243993 20.5255127 76.18418884 C21.47339427 80.00497758 22.41695629 83.82681946 23.35864258 87.6491394 C23.78430415 89.37530078 24.2112136 91.10115493 24.6394043 92.82669067 C25.22254309 95.18023305 25.79970611 97.53515471 26.375 99.890625 C26.54294067 100.56365158 26.71088135 101.23667816 26.88391113 101.93009949 C27.65170288 105.10257952 28 107.69946418 28 111 C20.85777185 109.13992055 14.81664068 104.8517461 8.61132812 100.9921875 C7.70705078 100.45335937 6.80277344 99.91453125 5.87109375 99.359375 C5.05568115 98.85889648 4.24026855 98.35841797 3.40014648 97.84277344 C1.00292083 96.74636629 1.00292083 96.74636629 -1.4934082 97.67626953 C-4.02131967 99.01125891 -6.51404319 100.36771615 -8.9765625 101.8203125 C-9.894375 102.35527344 -10.8121875 102.89023438 -11.7578125 103.44140625 C-13.67849302 104.56921729 -15.59775333 105.69945028 -17.515625 106.83203125 C-18.88847656 107.63060547 -18.88847656 107.63060547 -20.2890625 108.4453125 C-21.12131348 108.93531738 -21.95356445 109.42532227 -22.81103516 109.93017578 C-25 111 -25 111 -28 111 C-26.77649415 103.89488065 -25.33772969 96.89126542 -23.6015625 89.89453125 C-23.37039734 88.95164749 -23.13923218 88.00876373 -22.90106201 87.03730774 C-22.14588369 83.96149609 -21.38573739 80.88694107 -20.625 77.8125 C-20.09443948 75.66067518 -19.56400532 73.5088192 -19.03369141 71.35693359 C-17.92651196 66.86806599 -16.81664654 62.37987252 -15.70507812 57.89208984 C-14.27969628 52.13568504 -12.86289258 46.37720639 -11.44827271 40.6181488 C-10.35771455 36.18373203 -9.2617614 31.750662 -8.16424561 27.31796265 C-7.63926447 25.1941052 -7.11618413 23.06977699 -6.59503174 20.94497681 C-5.86845111 17.9853313 -5.13442068 15.02763167 -4.3984375 12.0703125 C-4.18435242 11.19135818 -3.97026733 10.31240387 -3.74969482 9.40681458 C-3.54789612 8.6024144 -3.34609741 7.79801422 -3.13818359 6.96923828 C-2.87936905 5.92184982 -2.87936905 5.92184982 -2.61532593 4.853302 C-2 3 -2 3 0 0 Z " fill="#9BDFCE" transform="translate(244,55)"/>
<path d="M0 0 C-5.08243912 25.1217705 -18.55457077 46.54410298 -36 65 C-36.74636719 65.81082031 -37.49273437 66.62164062 -38.26171875 67.45703125 C-58.22378075 88.40894757 -85.75958259 101.87151321 -114 107 C-115.46720786 102.68973204 -114.4227544 100.06746547 -112.50732422 96.07324219 C-109.75200761 92.28345458 -105.94350454 91.69194286 -101.5625 90.625 C-93.31288106 88.2625695 -85.8415172 85.26034005 -78.25 81.25 C-77.33935791 80.77771973 -76.42871582 80.30543945 -75.49047852 79.81884766 C-70.55515028 77.49350155 -70.55515028 77.49350155 -68 73 C-69.41177798 70.3573281 -71.07317669 67.95420504 -72.75 65.47265625 C-74 63 -74 63 -73.81640625 60.76171875 C-72.71632927 58.38786843 -71.38454998 57.9230516 -69 57 C-65.74451247 60.02295271 -63.31022942 63.20462309 -61 67 C-61 67.66 -61 68.32 -61 69 C-56.42856541 67.54928644 -53.31659865 64.97380877 -49.875 61.75 C-49.31385498 61.22784912 -48.75270996 60.70569824 -48.17456055 60.16772461 C-44.04862482 56.22544795 -40.34571271 52.04068326 -36.8125 47.5625 C-36.35536621 46.9840332 -35.89823242 46.40556641 -35.42724609 45.80957031 C-33.03856413 42.67982409 -31.2509026 39.73873124 -30 36 C-30.78246094 35.52949219 -31.56492187 35.05898438 -32.37109375 34.57421875 C-33.38300781 33.95160156 -34.39492188 33.32898438 -35.4375 32.6875 C-36.95150391 31.76517578 -36.95150391 31.76517578 -38.49609375 30.82421875 C-41 29 -41 29 -42 26 C-41.0625 23.8125 -41.0625 23.8125 -40 22 C-36.29856899 22.36111522 -33.54046816 23.11302546 -30.375 25 C-27.71593139 26.57574436 -25.97978425 27.52323452 -23 28 C-21.6423275 23.96049293 -21.6423275 23.96049293 -20.35595703 19.89794922 C-15.92381257 5.59378615 -15.92381257 5.59378615 -11.19921875 1.6796875 C-4.40702909 -1.4690097 -4.40702909 -1.4690097 0 0 Z " fill="#90D8C8" transform="translate(385,295)"/>
<path d="M0 0 C-0.33 3.63 -0.66 7.26 -1 11 C-5.57378275 13.03085265 -10.08572071 14.71018334 -14.875 16.1875 C-20.79826573 18.0911109 -26.43341495 20.41514585 -32.0625 23.0625 C-32.7642334 23.39080811 -33.4659668 23.71911621 -34.18896484 24.05737305 C-38.38019673 26.07248513 -42.1907455 28.33173905 -46 31 C-43.00284281 37.30347455 -43.00284281 37.30347455 -39 43 C-39.6875 44.9375 -39.6875 44.9375 -41 47 C-42.65 47.33 -44.3 47.66 -46 48 C-48.31 44.7 -50.62 41.4 -53 38 C-57.40767808 39.10191952 -59.50515429 40.92015349 -62.6875 43.9375 C-63.4765271 44.67577026 -63.4765271 44.67577026 -64.28149414 45.42895508 C-76.28260214 56.70507582 -76.28260214 56.70507582 -84 71 C-83.34 71.226875 -82.68 71.45375 -82 71.6875 C-78.07265467 73.40571358 -74.58739822 75.66774607 -71 78 C-71.75 80.4375 -71.75 80.4375 -73 83 C-74.6875 83.84375 -74.6875 83.84375 -77 84 C-80.015625 82.78515625 -80.015625 82.78515625 -83.25 81.0625 C-84.32765625 80.49660156 -85.4053125 79.93070312 -86.515625 79.34765625 C-87.33546875 78.90292969 -88.1553125 78.45820313 -89 78 C-90.06802698 80.08065199 -91.12968427 82.16415855 -92.1875 84.25 C-92.67114014 85.19431885 -92.67114014 85.19431885 -93.16455078 86.15771484 C-95.22083352 90.23647 -96.85658709 94.30951069 -98.375 98.625 C-100.07637399 102.85865157 -101.41064202 104.82800671 -105.5625 106.8125 C-108.78344991 108.00151617 -110.73996338 108.08667887 -114 107 C-106.63670298 75.1686042 -88.25756789 46.61146149 -62 27 C-61.01644531 26.26265625 -60.03289062 25.5253125 -59.01953125 24.765625 C-43.06520791 13.27058458 -20.29864889 0 0 0 Z " fill="#97DCCB" transform="translate(217,120)"/>
<path d="M0 0 C28.10176381 0.8447424 55.44601171 20.56526357 75 39 C75.72445312 39.66 76.44890625 40.32 77.1953125 41 C94.79010453 57.64883547 107.51652324 80.42547657 113 104 C113 105.32 113 106.64 113 108 C108.20664374 107.40083047 103.73325067 106.12374036 100 103 C98.40485798 100.20629823 97.32324038 97.41923362 96.23046875 94.39453125 C94.89941138 90.72250314 93.3456694 87.28665502 91.6875 83.75 C91.17574219 82.65171875 90.66398437 81.5534375 90.13671875 80.421875 C89.76160156 79.62265625 89.38648438 78.8234375 89 78 C88.18015625 78.433125 87.3603125 78.86625 86.515625 79.3125 C85.43796875 79.869375 84.3603125 80.42625 83.25 81 C82.18265625 81.556875 81.1153125 82.11375 80.015625 82.6875 C77 84 77 84 73 84 C72.34 82.02 71.68 80.04 71 78 C75 75.33333333 79 72.66666667 83 70 C78.84136345 58.19281583 66.19618212 45.13951082 56 38 C53.86582451 37.29705285 53.86582451 37.29705285 52 37 C51.773125 37.70125 51.54625 38.4025 51.3125 39.125 C49.68343133 42.69343613 47.59359269 45.06514511 45 48 C43.35 47.67 41.7 47.34 40 47 C39.06232692 43.94986803 38.72099024 42.55617178 40.1796875 39.6484375 C40.73914063 38.89820313 41.29859375 38.14796875 41.875 37.375 C43.75713421 34.810045 44.98563584 33.04309249 46 30 C45.32453125 29.74734375 44.6490625 29.4946875 43.953125 29.234375 C41.12933276 28.05405972 38.44408586 26.70270443 35.73413086 25.28369141 C25.63326458 20.02134764 15.15190605 15.79997708 4.09375 13.01171875 C1 12 1 12 -0.4375 9.1875 C-0.93951796 6.34273158 -1.24636402 3.87424688 -1 1 C-0.67 0.67 -0.34 0.34 0 0 Z " fill="#9ADFCE" transform="translate(272,120)"/>
<path d="M0 0 C4.79014764 0.59876846 9.27305041 1.87270218 13 5 C15.17410075 8.82079162 16.52590826 12.86957515 18 17 C18.91609026 19.09283603 19.85241902 21.17697599 20.8125 23.25 C21.23144531 24.16265625 21.65039062 25.0753125 22.08203125 26.015625 C22.53642578 26.99789063 22.53642578 26.99789063 23 28 C27.26924139 27.30207184 30.32210356 25.87443558 34.03515625 23.7421875 C36.45061893 22.82978609 37.61373746 23.10707595 40 24 C41 25 41 25 41.3671875 27.35546875 C41 30 41 30 38.8828125 31.80078125 C37.97273438 32.29964844 37.06265625 32.79851562 36.125 33.3125 C35.22007812 33.82425781 34.31515625 34.33601563 33.3828125 34.86328125 C31 36 31 36 29 36 C34.59648866 48.89625648 45.61833877 60.83570379 57 69 C57.99 69 58.98 69 60 69 C61.85152158 66.80669309 61.85152158 66.80669309 63.5625 64.0625 C66.81191223 59.09404389 66.81191223 59.09404389 69 58 C70.65 59.65 72.3 61.3 74 63 C71.69 66.96 69.38 70.92 67 75 C71.21458959 78.37167167 74.99285508 80.87220061 79.6875 83.375 C80.4192041 83.7678418 81.1509082 84.16068359 81.90478516 84.56542969 C88.11328529 87.78094556 94.45855235 90.04412181 101.19799805 91.88427734 C104.64895104 92.88868527 106.67473371 93.59713539 108.96484375 96.43359375 C110.24330964 99.60322428 110.66757616 102.6092768 111 106 C83.84760452 106.42711633 56.61381166 85.96569844 38 68 C37.13632813 67.19949219 36.27265625 66.39898437 35.3828125 65.57421875 C19.0244267 50.00572385 4.54355745 26.32833948 0 4 C0 2.68 0 1.36 0 0 Z " fill="#90D7C6" transform="translate(104,294)"/>
<path d="M0 0 C0.99 0.33 1.98 0.66 3 1 C4.04408715 3.37934225 4.89165959 5.6047495 5.6875 8.0625 C6.450625 10.351875 7.21375 12.64125 8 15 C13.61 15.33 19.22 15.66 25 16 C22.06955453 18.93044547 19.32223883 21.66948491 16.1875 24.3125 C15.28064453 25.08013672 15.28064453 25.08013672 14.35546875 25.86328125 C13.90816406 26.23839844 13.46085937 26.61351562 13 27 C13.19916016 27.96099609 13.19916016 27.96099609 13.40234375 28.94140625 C14.42493006 33.94983993 15.33884147 38.93111794 16 44 C12.07500614 42.17545637 8.78050326 39.71699981 5.31640625 37.14453125 C3.05698591 35.7980559 3.05698591 35.7980559 0.50390625 36.1015625 C-2.42177788 37.15133996 -4.26194207 38.55268269 -6.625 40.5625 C-10.67806841 44 -10.67806841 44 -14 44 C-13.79503906 43.19175781 -13.59007812 42.38351562 -13.37890625 41.55078125 C-13.10949219 40.48214844 -12.84007812 39.41351563 -12.5625 38.3125 C-12.29566406 37.25675781 -12.02882812 36.20101562 -11.75390625 35.11328125 C-11.10270103 32.42410737 -10.54263334 29.71316669 -10 27 C-13.96 24.03 -17.92 21.06 -22 18 C-21.505 16.515 -21.505 16.515 -21 15 C-16.05 15 -11.1 15 -6 15 C-5.38125 13.453125 -4.7625 11.90625 -4.125 10.3125 C-2.75 6.875 -1.375 3.4375 0 0 Z " fill="#215C61" transform="translate(243,358)"/>
<path d="M0 0 C6.67353409 0.28398017 10.71077185 3.07805532 16 7 C14.55639713 11.69170931 14.55639713 11.69170931 12.23046875 12.98046875 C9.03648169 13.00843711 7.09357867 11.84599198 4.3125 10.3125 C3.33925781 9.79300781 2.36601562 9.27351562 1.36328125 8.73828125 C-1 7 -1 7 -1.95703125 4.98046875 C-2 3 -2 3 0 0 Z " fill="#8DD5C5" transform="translate(130,191)"/>
<path d="M0 0 C1.32 0 2.64 0 4 0 C5.9921875 2.265625 5.9921875 2.265625 7.875 5.25 C8.51179687 6.22453125 9.14859375 7.1990625 9.8046875 8.203125 C11 11 11 11 10.5078125 13.296875 C8.51413084 15.54880558 6.93176751 15.69139289 4 16 C2.79719839 14.42825925 1.61318725 12.84212442 0.4375 11.25 C-0.22378906 10.36828125 -0.88507813 9.4865625 -1.56640625 8.578125 C-3 6 -3 6 -2.83984375 3.796875 C-2 2 -2 2 0 0 Z " fill="#8FD7C6" transform="translate(167,152)"/>
<path d="M0 0 C0 4.09036452 -2.11143417 5.77890652 -4.75 8.625 C-5.63171875 9.60726563 -6.5134375 10.58953125 -7.421875 11.6015625 C-9.80142246 13.81526272 -10.83982991 14.68988985 -14 15 C-9.59156563 9.70987876 -4.92440206 4.81191572 0 0 Z " fill="#1B575A" transform="translate(359,360)"/>
</svg>
