<svg id="svg" version="1.1" xmlns="http://www.w3.org/2000/svg" xmlns:xlink="http://www.w3.org/1999/xlink" width="400" height="459.61123110151186" viewBox="0, 0, 400,459.61123110151186"><g id="svgg"><path id="path0" d="M196.589 21.618 C 196.459 21.828,195.384 22.000,194.200 22.000 C 193.016 22.000,191.936 22.180,191.800 22.400 C 191.664 22.620,191.124 22.800,190.600 22.800 C 190.076 22.800,189.549 22.960,189.428 23.155 C 189.307 23.350,188.577 23.628,187.804 23.773 C 187.032 23.918,186.400 24.208,186.400 24.418 C 186.400 24.628,186.038 24.800,185.595 24.800 C 184.810 24.800,184.402 24.952,182.458 25.967 C 181.880 26.269,181.619 26.293,181.782 26.030 C 181.928 25.793,181.857 25.600,181.624 25.600 C 181.391 25.600,181.200 25.780,181.200 26.000 C 181.200 26.220,180.748 26.400,180.195 26.400 C 179.642 26.400,178.832 26.580,178.395 26.800 C 177.958 27.020,177.242 27.380,176.805 27.600 C 176.368 27.820,175.659 28.000,175.229 28.000 C 174.799 28.000,174.336 28.180,174.200 28.400 C 174.064 28.620,173.616 28.800,173.205 28.800 C 172.794 28.800,172.187 29.070,171.857 29.400 C 171.527 29.730,170.784 30.000,170.205 30.000 C 169.605 30.000,169.259 30.172,169.400 30.400 C 169.544 30.633,169.145 30.800,168.447 30.800 C 167.787 30.800,167.136 30.980,167.000 31.200 C 166.864 31.420,166.133 31.600,165.376 31.600 C 164.619 31.600,164.000 31.780,164.000 32.000 C 164.000 32.220,163.471 32.400,162.824 32.400 C 162.177 32.400,161.536 32.580,161.400 32.800 C 161.264 33.020,160.708 33.200,160.164 33.200 C 159.620 33.200,159.076 33.459,158.954 33.775 C 158.833 34.091,158.477 34.251,158.164 34.131 C 157.850 34.010,157.152 34.202,156.611 34.556 C 156.070 34.910,155.372 35.200,155.060 35.200 C 154.747 35.200,153.998 35.456,153.396 35.768 C 152.793 36.081,152.023 36.230,151.685 36.100 C 151.281 35.945,151.168 36.025,151.358 36.332 C 151.613 36.745,150.610 37.023,149.500 36.847 C 149.335 36.821,149.200 36.980,149.200 37.200 C 149.200 37.420,148.761 37.600,148.224 37.600 C 147.687 37.600,147.136 37.780,147.000 38.000 C 146.864 38.220,146.401 38.400,145.971 38.400 C 145.541 38.400,144.787 38.608,144.295 38.862 C 142.634 39.721,142.178 39.897,140.887 40.181 C 140.179 40.336,139.600 40.629,139.600 40.832 C 139.600 41.034,139.060 41.200,138.400 41.200 C 137.740 41.200,137.200 41.380,137.200 41.600 C 137.200 41.820,136.570 42.000,135.800 42.000 C 135.030 42.000,134.400 42.180,134.400 42.400 C 134.400 42.620,133.961 42.800,133.424 42.800 C 132.887 42.800,132.336 42.980,132.200 43.200 C 132.064 43.420,131.524 43.600,131.000 43.600 C 130.476 43.600,129.936 43.780,129.800 44.000 C 129.664 44.220,129.201 44.400,128.771 44.400 C 127.987 44.400,127.736 44.496,125.268 45.732 C 124.535 46.100,123.600 46.400,123.191 46.400 C 122.782 46.400,122.336 46.580,122.200 46.800 C 122.064 47.020,121.434 47.200,120.800 47.200 C 120.166 47.200,119.536 47.380,119.400 47.600 C 119.264 47.820,118.724 48.000,118.200 48.000 C 117.676 48.000,117.136 48.180,117.000 48.400 C 116.864 48.620,116.234 48.800,115.600 48.800 C 114.966 48.800,114.336 48.980,114.200 49.200 C 114.064 49.420,113.513 49.600,112.976 49.600 C 112.439 49.600,112.000 49.741,112.000 49.913 C 112.000 50.085,111.525 50.265,110.944 50.313 C 110.363 50.361,109.630 50.715,109.314 51.100 C 108.963 51.528,108.853 51.567,109.029 51.200 C 109.263 50.713,109.216 50.694,108.779 51.100 C 108.482 51.375,107.736 51.600,107.120 51.600 C 106.504 51.600,106.000 51.780,106.000 52.000 C 106.000 52.220,105.449 52.400,104.776 52.400 C 104.063 52.400,103.656 52.567,103.800 52.800 C 103.949 53.041,103.415 53.200,102.457 53.200 C 101.582 53.200,100.799 53.403,100.717 53.650 C 100.634 53.898,100.079 54.100,99.483 54.100 C 98.888 54.100,98.400 54.258,98.400 54.450 C 98.400 54.642,97.950 54.800,97.400 54.800 C 96.850 54.800,96.400 54.980,96.400 55.200 C 96.400 55.420,96.046 55.600,95.614 55.600 C 94.904 55.600,92.960 56.311,91.105 57.249 C 90.723 57.442,89.969 57.600,89.429 57.600 C 88.889 57.600,88.336 57.780,88.200 58.000 C 88.064 58.220,87.524 58.400,87.000 58.400 C 86.476 58.400,85.936 58.580,85.800 58.800 C 85.664 59.020,85.113 59.200,84.576 59.200 C 84.039 59.200,83.600 59.380,83.600 59.600 C 83.600 59.820,83.071 60.000,82.424 60.000 C 81.777 60.000,81.136 60.180,81.000 60.400 C 80.864 60.620,80.403 60.800,79.976 60.800 C 79.549 60.800,79.200 60.980,79.200 61.200 C 79.200 61.420,79.065 61.564,78.900 61.519 C 78.241 61.341,75.600 62.061,75.600 62.418 C 75.600 62.628,75.060 62.800,74.400 62.800 C 73.740 62.800,73.200 62.980,73.200 63.200 C 73.200 63.420,72.671 63.600,72.024 63.600 C 71.377 63.600,70.736 63.780,70.600 64.000 C 70.464 64.220,69.823 64.400,69.176 64.400 C 68.529 64.400,68.000 64.580,68.000 64.800 C 68.000 65.020,67.471 65.200,66.824 65.200 C 66.177 65.200,65.536 65.380,65.400 65.600 C 65.264 65.820,64.811 66.000,64.392 66.000 C 63.260 66.000,59.200 67.316,59.200 67.682 C 59.200 67.857,58.660 68.000,58.000 68.000 C 57.340 68.000,56.800 68.180,56.800 68.400 C 56.800 68.620,56.371 68.800,55.846 68.800 C 55.321 68.800,54.398 69.056,53.796 69.368 C 53.193 69.681,52.453 69.842,52.150 69.726 C 51.848 69.609,51.600 69.714,51.600 69.957 C 51.600 70.201,51.071 70.400,50.424 70.400 C 49.777 70.400,49.136 70.580,49.000 70.800 C 48.864 71.020,48.308 71.200,47.764 71.200 C 47.220 71.200,46.688 71.425,46.582 71.700 C 46.476 71.975,45.815 72.221,45.112 72.247 C 44.410 72.272,43.768 72.497,43.684 72.747 C 43.601 72.996,43.008 73.200,42.367 73.200 C 41.725 73.200,41.200 73.380,41.200 73.600 C 41.200 73.820,40.671 74.000,40.024 74.000 C 39.377 74.000,38.736 74.180,38.600 74.400 C 38.464 74.620,37.744 74.800,37.000 74.800 C 36.256 74.800,35.536 74.980,35.400 75.200 C 35.264 75.420,34.713 75.600,34.176 75.600 C 33.639 75.600,33.200 75.780,33.200 76.000 C 33.200 76.220,32.840 76.400,32.400 76.400 C 31.960 76.400,31.600 76.580,31.600 76.800 C 31.600 77.020,31.318 77.200,30.973 77.200 C 29.208 77.200,22.585 84.052,23.482 84.949 C 23.620 85.087,23.543 85.200,23.309 85.200 C 22.797 85.200,22.430 86.016,21.870 88.400 C 21.298 90.832,21.037 255.997,21.604 256.564 C 21.822 256.782,22.000 258.443,22.000 260.256 C 22.000 262.069,22.180 263.664,22.400 263.800 C 22.620 263.936,22.800 265.297,22.800 266.824 C 22.800 268.351,22.935 269.600,23.100 269.600 C 23.265 269.600,23.456 270.545,23.523 271.700 C 23.591 272.855,23.925 274.227,24.265 274.749 C 24.605 275.271,24.684 275.576,24.441 275.426 C 24.199 275.276,24.000 275.333,24.000 275.553 C 24.000 275.773,24.180 276.064,24.400 276.200 C 24.620 276.336,24.800 277.067,24.800 277.824 C 24.800 278.581,24.980 279.200,25.200 279.200 C 25.420 279.200,25.600 279.999,25.600 280.976 C 25.600 281.953,25.780 282.864,26.000 283.000 C 26.220 283.136,26.400 284.036,26.400 285.000 C 26.400 285.964,26.580 286.864,26.800 287.000 C 27.020 287.136,27.200 287.831,27.200 288.544 C 27.200 289.257,27.391 290.031,27.625 290.265 C 27.859 290.499,28.066 291.255,28.086 291.945 C 28.106 292.635,28.274 293.200,28.461 293.200 C 28.647 293.200,28.764 293.335,28.719 293.500 C 28.541 294.159,29.261 296.800,29.618 296.800 C 29.828 296.800,30.000 297.340,30.000 298.000 C 30.000 298.660,30.180 299.200,30.400 299.200 C 30.620 299.200,30.800 299.729,30.800 300.376 C 30.800 301.023,30.980 301.664,31.200 301.800 C 31.420 301.936,31.600 302.476,31.600 303.000 C 31.600 303.524,31.780 304.064,32.000 304.200 C 32.220 304.336,32.400 304.797,32.400 305.224 C 32.400 305.651,32.580 306.000,32.800 306.000 C 33.020 306.000,33.200 306.328,33.200 306.729 C 33.200 307.602,34.560 310.507,34.839 310.228 C 34.947 310.120,35.267 310.880,35.552 311.916 C 36.124 314.000,37.632 317.325,38.100 317.533 C 38.265 317.607,38.400 317.924,38.400 318.239 C 38.400 318.776,39.147 320.358,39.609 320.800 C 40.194 321.359,41.200 323.247,41.200 323.786 C 41.200 324.124,41.380 324.400,41.600 324.400 C 41.820 324.400,42.000 324.681,42.000 325.024 C 42.000 325.409,42.191 325.537,42.500 325.359 C 42.775 325.201,42.876 325.210,42.724 325.379 C 42.336 325.809,45.357 331.353,46.803 332.866 C 47.461 333.555,48.000 334.452,48.000 334.859 C 48.000 335.267,48.135 335.600,48.300 335.601 C 48.465 335.601,49.112 336.411,49.737 337.401 C 50.362 338.390,50.993 339.200,51.139 339.200 C 51.285 339.200,51.644 339.741,51.937 340.402 C 52.230 341.064,52.595 341.526,52.750 341.431 C 52.904 341.336,53.278 341.817,53.580 342.500 C 53.883 343.184,54.416 344.086,54.765 344.505 C 55.114 344.924,55.714 345.657,56.098 346.134 C 58.264 348.822,59.381 350.050,63.100 353.831 C 65.356 356.124,67.342 358.000,67.514 358.000 C 67.686 358.000,68.139 358.527,68.519 359.170 C 68.899 359.814,70.116 361.119,71.223 362.070 C 72.330 363.022,74.303 364.835,75.608 366.100 C 76.913 367.365,78.171 368.400,78.404 368.400 C 78.636 368.400,79.441 368.985,80.192 369.700 C 81.941 371.366,82.711 372.000,82.987 372.000 C 83.108 372.000,83.772 372.540,84.463 373.200 C 85.154 373.860,85.887 374.400,86.093 374.400 C 86.298 374.400,87.037 374.986,87.733 375.703 C 88.430 376.419,89.630 377.449,90.400 377.992 C 91.170 378.534,92.149 379.298,92.575 379.689 C 93.002 380.080,93.634 380.400,93.980 380.400 C 94.327 380.400,94.948 380.850,95.361 381.400 C 95.774 381.950,96.357 382.400,96.656 382.400 C 96.955 382.400,97.200 382.559,97.200 382.754 C 97.200 382.949,97.789 383.389,98.510 383.730 C 99.230 384.072,100.355 384.813,101.010 385.375 C 101.664 385.938,102.326 386.399,102.479 386.400 C 102.633 386.400,103.244 386.850,103.838 387.400 C 104.431 387.950,105.078 388.400,105.275 388.400 C 105.472 388.400,106.020 388.760,106.492 389.200 C 106.964 389.640,107.587 390.000,107.875 390.000 C 108.164 390.000,108.400 390.180,108.400 390.400 C 108.400 390.620,108.715 390.800,109.100 390.800 C 109.708 390.801,110.375 391.246,112.676 393.185 C 113.520 393.897,116.009 395.200,116.524 395.200 C 116.799 395.200,117.283 395.560,117.600 396.000 C 117.917 396.440,118.329 396.800,118.515 396.800 C 118.701 396.800,119.443 397.250,120.164 397.800 C 120.886 398.350,121.601 398.800,121.754 398.800 C 121.908 398.800,122.420 399.160,122.892 399.600 C 123.364 400.040,123.987 400.400,124.275 400.400 C 124.564 400.400,124.800 400.546,124.800 400.725 C 124.800 400.904,125.430 401.298,126.200 401.600 C 126.970 401.902,127.600 402.296,127.600 402.475 C 127.600 402.654,127.960 402.800,128.400 402.800 C 128.840 402.800,129.200 402.967,129.200 403.171 C 129.200 403.505,130.016 404.014,132.697 405.352 C 133.190 405.599,133.595 405.946,133.597 406.124 C 133.599 406.302,133.757 406.350,133.948 406.232 C 134.139 406.114,134.814 406.463,135.448 407.008 C 136.082 407.553,136.816 407.999,137.079 408.000 C 137.343 408.000,138.044 408.450,138.638 409.000 C 139.231 409.550,140.051 410.000,140.458 410.000 C 140.866 410.000,141.200 410.146,141.200 410.325 C 141.200 410.504,141.830 410.898,142.600 411.200 C 143.370 411.502,144.000 411.896,144.000 412.075 C 144.000 412.254,144.360 412.400,144.800 412.400 C 145.240 412.400,145.600 412.580,145.600 412.800 C 145.600 413.020,145.960 413.200,146.400 413.200 C 146.840 413.200,147.200 413.377,147.200 413.592 C 147.200 413.808,147.650 414.098,148.200 414.236 C 148.750 414.374,149.200 414.647,149.200 414.843 C 149.200 415.040,149.560 415.200,150.000 415.200 C 150.440 415.200,150.800 415.380,150.800 415.600 C 150.800 415.820,151.070 416.000,151.400 416.000 C 151.730 416.000,152.000 416.180,152.000 416.400 C 152.000 416.620,152.360 416.800,152.800 416.800 C 153.240 416.800,153.600 416.980,153.600 417.200 C 153.600 417.420,153.960 417.600,154.400 417.600 C 154.840 417.600,155.200 417.780,155.200 418.000 C 155.200 418.220,155.560 418.400,156.000 418.400 C 156.440 418.400,156.800 418.559,156.800 418.753 C 156.800 418.948,157.115 419.220,157.500 419.358 C 157.885 419.496,159.532 420.327,161.160 421.204 C 162.788 422.082,164.453 422.800,164.860 422.800 C 165.267 422.800,165.600 422.980,165.600 423.200 C 165.600 423.420,165.960 423.600,166.400 423.600 C 166.840 423.600,167.200 423.780,167.200 424.000 C 167.200 424.220,167.560 424.400,168.000 424.400 C 168.440 424.400,168.801 424.535,168.803 424.700 C 168.805 424.980,169.303 425.305,172.712 427.251 C 173.434 427.663,174.289 428.000,174.612 428.000 C 174.935 428.000,175.200 428.180,175.200 428.400 C 175.200 428.620,175.560 428.800,176.000 428.800 C 176.440 428.800,176.800 428.980,176.800 429.200 C 176.800 429.420,177.145 429.600,177.567 429.600 C 177.988 429.600,178.393 429.745,178.467 429.922 C 178.637 430.334,186.042 434.000,186.703 434.000 C 186.976 434.000,187.200 434.180,187.200 434.400 C 187.200 434.620,187.560 434.800,188.000 434.800 C 188.440 434.800,188.800 434.945,188.800 435.123 C 188.800 435.521,191.630 436.800,192.511 436.800 C 192.864 436.800,193.264 436.980,193.400 437.200 C 193.536 437.420,194.436 437.600,195.400 437.600 C 196.364 437.600,197.246 437.751,197.360 437.935 C 197.638 438.386,202.751 438.402,203.028 437.954 C 203.149 437.759,203.869 437.600,204.629 437.600 C 205.389 437.600,206.323 437.433,206.705 437.229 C 207.087 437.024,208.254 436.529,209.299 436.129 C 210.343 435.728,211.198 435.265,211.199 435.100 C 211.199 434.935,211.560 434.800,212.000 434.800 C 212.440 434.800,212.800 434.620,212.800 434.400 C 212.800 434.180,213.160 434.000,213.600 434.000 C 214.040 434.000,214.400 433.820,214.400 433.600 C 214.400 433.380,214.623 433.200,214.896 433.200 C 215.562 433.200,221.364 430.337,221.533 429.925 C 221.607 429.746,222.012 429.600,222.433 429.600 C 222.855 429.600,223.200 429.420,223.200 429.200 C 223.200 428.980,223.560 428.800,224.000 428.800 C 224.440 428.800,224.800 428.620,224.800 428.400 C 224.800 428.180,225.103 428.000,225.474 428.000 C 225.845 428.000,226.594 427.595,227.139 427.100 C 227.683 426.605,228.010 426.407,227.865 426.660 C 227.720 426.914,228.546 426.654,229.701 426.084 C 230.855 425.514,231.860 424.902,231.933 424.724 C 232.007 424.546,232.332 424.400,232.657 424.400 C 232.982 424.400,233.133 424.216,232.994 423.990 C 232.855 423.765,232.894 423.630,233.081 423.690 C 233.269 423.751,234.227 423.403,235.211 422.918 C 236.195 422.433,237.585 421.804,238.300 421.520 C 239.015 421.237,239.600 420.869,239.600 420.702 C 239.600 420.536,239.960 420.400,240.400 420.400 C 240.840 420.400,241.200 420.223,241.200 420.008 C 241.200 419.792,241.650 419.502,242.200 419.364 C 242.750 419.226,243.200 418.953,243.200 418.757 C 243.200 418.560,243.560 418.400,244.000 418.400 C 244.440 418.400,244.800 418.250,244.800 418.068 C 244.800 417.885,245.295 417.488,245.900 417.185 C 246.505 416.882,247.270 416.415,247.600 416.146 C 247.930 415.877,248.290 415.674,248.400 415.695 C 248.916 415.792,251.563 414.274,251.757 413.769 C 251.877 413.456,252.234 413.200,252.550 413.200 C 253.225 413.200,256.539 411.536,256.733 411.100 C 256.807 410.935,257.125 410.800,257.441 410.800 C 258.216 410.800,261.200 408.891,261.200 408.395 C 261.200 408.178,261.549 408.000,261.976 408.000 C 262.403 408.000,262.864 407.820,263.000 407.600 C 263.136 407.380,263.597 407.200,264.024 407.200 C 264.451 407.200,264.800 407.020,264.800 406.800 C 264.800 406.580,265.081 406.400,265.424 406.400 C 265.767 406.400,265.933 406.216,265.794 405.990 C 265.655 405.765,265.689 405.629,265.870 405.688 C 266.374 405.853,270.800 403.593,270.800 403.171 C 270.800 402.967,271.160 402.800,271.600 402.800 C 272.040 402.800,272.400 402.664,272.400 402.498 C 272.400 402.331,272.984 401.937,273.698 401.621 C 274.412 401.305,275.326 400.676,275.729 400.223 C 276.131 399.770,276.323 399.670,276.154 400.000 C 275.863 400.567,276.724 400.089,277.600 399.196 C 277.710 399.084,278.464 398.644,279.276 398.218 C 280.087 397.793,280.659 397.295,280.546 397.112 C 280.433 396.930,280.489 396.825,280.670 396.879 C 281.140 397.021,283.600 395.865,283.600 395.502 C 283.600 395.336,283.855 395.200,284.167 395.200 C 284.478 395.200,284.793 395.065,284.867 394.900 C 284.940 394.735,285.845 394.172,286.877 393.649 C 287.909 393.126,288.848 392.451,288.964 392.149 C 289.080 391.847,289.458 391.600,289.804 391.600 C 290.150 391.600,290.820 391.240,291.292 390.800 C 291.764 390.360,292.398 390.000,292.699 390.000 C 293.001 390.000,293.160 389.858,293.052 389.685 C 292.945 389.512,293.430 389.122,294.129 388.819 C 295.883 388.059,297.230 386.970,296.886 386.589 C 296.729 386.414,296.810 386.392,297.068 386.540 C 297.325 386.687,297.807 386.536,298.139 386.204 C 298.471 385.872,298.949 385.600,299.200 385.600 C 299.451 385.600,299.885 385.375,300.163 385.100 C 300.441 384.825,301.183 384.240,301.813 383.800 C 302.443 383.360,303.550 382.415,304.272 381.700 C 304.995 380.985,305.814 380.394,306.093 380.387 C 306.688 380.372,308.332 379.204,307.776 379.191 C 307.569 379.186,308.030 378.874,308.800 378.499 C 309.570 378.123,310.613 377.407,311.118 376.908 C 311.623 376.409,312.181 376.000,312.359 376.000 C 312.536 376.000,313.246 375.460,313.937 374.800 C 314.628 374.140,315.382 373.600,315.614 373.600 C 315.845 373.600,317.033 372.610,318.252 371.400 C 319.472 370.190,320.633 369.200,320.832 369.200 C 321.030 369.200,322.386 368.030,323.845 366.600 C 325.303 365.170,326.651 364.000,326.840 364.000 C 327.028 364.000,328.443 362.785,329.984 361.300 C 331.524 359.815,333.283 358.131,333.892 357.558 C 334.501 356.986,335.720 355.657,336.600 354.605 C 337.480 353.554,338.830 351.999,339.600 351.149 C 341.271 349.305,343.693 346.536,344.685 345.334 C 345.078 344.857,345.713 344.092,346.096 343.634 C 346.479 343.175,346.659 342.795,346.496 342.788 C 346.333 342.781,346.515 342.592,346.900 342.368 C 347.285 342.144,347.600 341.788,347.600 341.576 C 347.600 341.365,348.135 340.633,348.788 339.950 C 349.441 339.266,350.083 338.368,350.215 337.953 C 350.346 337.539,350.652 337.200,350.894 337.200 C 351.135 337.200,351.221 337.088,351.084 336.951 C 350.947 336.813,351.277 336.121,351.817 335.413 C 352.358 334.704,352.800 333.961,352.800 333.762 C 352.801 333.563,353.251 332.877,353.800 332.238 C 354.350 331.599,354.800 330.916,354.800 330.721 C 354.800 330.526,355.160 329.980,355.600 329.508 C 356.040 329.036,356.400 328.413,356.400 328.125 C 356.400 327.836,356.580 327.600,356.800 327.600 C 357.020 327.600,357.200 327.240,357.200 326.800 C 357.200 326.360,357.335 325.999,357.500 325.997 C 357.844 325.993,358.800 324.070,358.800 323.382 C 358.800 323.130,359.156 322.602,359.591 322.209 C 360.025 321.815,360.285 321.337,360.167 321.147 C 360.049 320.956,360.115 320.800,360.314 320.800 C 360.648 320.800,361.968 318.348,362.897 316.000 C 363.115 315.450,363.452 314.687,363.647 314.305 C 363.841 313.923,364.000 313.338,364.000 313.005 C 364.000 312.672,364.180 312.400,364.400 312.400 C 364.620 312.400,364.800 311.830,364.800 311.133 C 364.800 310.437,364.925 309.992,365.079 310.145 C 365.414 310.481,366.800 307.749,366.800 306.752 C 366.800 306.364,366.980 305.936,367.200 305.800 C 367.420 305.664,367.600 305.113,367.600 304.576 C 367.600 304.039,367.780 303.600,368.000 303.600 C 368.220 303.600,368.400 303.071,368.400 302.424 C 368.400 301.777,368.580 301.136,368.800 301.000 C 369.020 300.864,369.200 300.223,369.200 299.576 C 369.200 298.929,369.380 298.400,369.600 298.400 C 369.820 298.400,370.006 297.905,370.013 297.300 C 370.020 296.695,370.290 295.851,370.613 295.424 C 370.936 294.996,371.200 294.242,371.200 293.747 C 371.200 293.252,371.368 292.743,371.573 292.617 C 371.778 292.490,371.930 291.814,371.910 291.114 C 371.890 290.414,372.082 289.773,372.337 289.688 C 372.592 289.603,372.800 289.019,372.800 288.390 C 372.800 287.762,372.980 287.136,373.200 287.000 C 373.420 286.864,373.600 286.043,373.600 285.176 C 373.600 284.309,373.780 283.600,374.000 283.600 C 374.220 283.600,374.400 282.801,374.400 281.824 C 374.400 280.847,374.580 279.936,374.800 279.800 C 375.020 279.664,375.200 278.674,375.200 277.600 C 375.200 276.526,375.367 275.544,375.572 275.417 C 375.890 275.221,376.135 273.798,376.539 269.800 C 376.584 269.360,376.737 268.814,376.880 268.587 C 377.023 268.360,377.191 266.798,377.253 265.115 C 377.316 263.433,377.490 262.132,377.640 262.225 C 377.879 262.372,378.199 253.316,378.106 249.035 C 378.087 248.174,378.191 247.661,378.336 247.896 C 378.481 248.131,378.623 212.884,378.650 169.569 C 378.678 126.254,378.588 90.884,378.450 90.969 C 378.313 91.054,378.145 90.285,378.078 89.262 C 378.011 88.238,377.786 87.229,377.578 87.020 C 377.370 86.811,377.200 86.331,377.200 85.953 C 377.200 85.576,377.065 85.207,376.900 85.133 C 376.735 85.060,376.259 84.330,375.843 83.511 C 375.427 82.693,374.904 82.136,374.681 82.273 C 374.459 82.411,374.394 82.334,374.537 82.102 C 374.835 81.620,372.637 79.097,372.253 79.481 C 372.114 79.620,372.000 79.519,372.000 79.257 C 372.000 78.995,371.550 78.609,371.000 78.400 C 370.450 78.191,370.000 77.814,370.000 77.563 C 370.000 77.309,369.657 77.196,369.226 77.309 C 368.761 77.431,368.360 77.273,368.222 76.914 C 368.096 76.586,367.740 76.414,367.430 76.533 C 367.120 76.652,366.767 76.491,366.646 76.175 C 366.524 75.859,365.980 75.600,365.436 75.600 C 364.892 75.600,364.336 75.420,364.200 75.200 C 364.064 74.980,363.233 74.800,362.353 74.800 C 361.388 74.800,360.851 74.641,361.000 74.400 C 361.144 74.167,360.737 74.000,360.024 74.000 C 359.351 74.000,358.800 73.820,358.800 73.600 C 358.800 73.380,358.296 73.200,357.680 73.200 C 357.064 73.200,356.318 72.975,356.021 72.700 C 355.584 72.294,355.537 72.313,355.771 72.800 C 355.947 73.167,355.837 73.128,355.486 72.700 C 355.170 72.315,354.627 72.000,354.280 72.000 C 353.932 72.000,353.536 71.820,353.400 71.600 C 353.264 71.380,352.634 71.200,352.000 71.200 C 351.366 71.200,350.736 71.020,350.600 70.800 C 350.464 70.580,349.924 70.400,349.400 70.400 C 348.876 70.400,348.336 70.220,348.200 70.000 C 348.064 69.780,347.323 69.600,346.553 69.600 C 345.721 69.600,345.253 69.438,345.400 69.200 C 345.544 68.967,345.145 68.800,344.447 68.800 C 343.787 68.800,343.136 68.620,343.000 68.400 C 342.864 68.180,342.058 68.000,341.210 68.000 C 340.361 68.000,339.600 67.800,339.518 67.554 C 339.427 67.282,338.755 67.512,337.785 68.149 C 335.401 69.713,335.391 69.727,334.873 72.043 C 334.608 73.230,333.873 76.515,333.239 79.344 C 331.865 85.481,331.858 85.465,336.483 86.824 C 338.088 87.295,340.930 88.183,342.800 88.798 C 344.670 89.413,348.858 90.764,352.107 91.800 C 356.240 93.119,358.192 93.939,358.607 94.531 C 359.308 95.533,359.484 235.541,358.803 250.400 C 356.265 305.718,331.625 342.796,273.200 379.215 C 266.669 383.285,252.443 391.637,247.000 394.596 C 245.460 395.433,242.670 396.969,240.800 398.010 C 236.964 400.145,227.177 405.201,211.665 413.062 C 199.960 418.993,199.763 419.046,196.400 417.137 C 195.190 416.451,190.420 413.960,185.800 411.602 C 166.473 401.738,161.066 398.930,154.800 395.501 C 146.330 390.865,129.758 381.041,124.600 377.597 C 122.400 376.128,118.915 373.902,116.856 372.651 C 114.797 371.399,111.647 369.235,109.856 367.841 C 108.065 366.448,104.584 363.855,102.120 362.078 C 63.693 334.369,43.625 297.384,41.198 249.800 C 40.581 237.699,40.675 94.598,41.300 94.098 C 41.575 93.878,47.560 91.858,54.600 89.610 C 61.640 87.362,72.980 83.722,79.800 81.520 C 86.620 79.318,95.800 76.356,100.200 74.936 C 113.788 70.553,127.240 66.095,130.800 64.794 C 134.345 63.499,137.980 62.204,145.400 59.596 C 147.820 58.745,151.060 57.567,152.600 56.978 C 155.138 56.006,160.946 53.996,185.400 45.622 C 189.800 44.115,194.619 42.414,196.109 41.841 C 199.999 40.346,201.281 40.679,229.000 50.397 C 231.640 51.323,234.610 52.321,235.600 52.614 C 236.590 52.908,238.120 53.418,239.000 53.749 C 245.787 56.297,258.319 60.400,259.315 60.400 C 260.165 60.400,262.016 59.442,265.369 57.266 C 268.026 55.543,271.061 53.608,272.112 52.966 C 276.912 50.039,277.200 49.748,277.200 47.821 C 277.200 46.845,276.992 45.919,276.738 45.762 C 276.452 45.585,276.385 45.652,276.562 45.938 C 276.719 46.192,276.657 46.400,276.424 46.400 C 276.191 46.400,276.000 46.241,276.000 46.046 C 276.000 45.851,275.055 45.394,273.900 45.031 C 271.826 44.377,270.460 43.843,269.105 43.153 C 268.723 42.959,267.879 42.800,267.229 42.800 C 266.579 42.800,265.936 42.620,265.800 42.400 C 265.664 42.180,265.124 42.000,264.600 42.000 C 264.076 42.000,263.536 41.820,263.400 41.600 C 263.264 41.380,262.713 41.200,262.176 41.200 C 261.639 41.200,261.200 41.020,261.200 40.800 C 261.200 40.580,260.912 40.400,260.560 40.400 C 260.209 40.400,259.264 40.112,258.460 39.759 C 255.773 38.580,252.867 37.600,252.058 37.600 C 251.790 37.600,251.111 37.298,250.547 36.928 C 249.983 36.559,248.869 36.190,248.072 36.108 C 247.275 36.026,246.527 35.833,246.411 35.680 C 246.158 35.344,243.643 34.360,242.800 34.266 C 242.470 34.230,242.056 33.975,241.880 33.700 C 241.704 33.425,241.220 33.200,240.804 33.200 C 240.388 33.200,239.936 33.020,239.800 32.800 C 239.664 32.580,239.034 32.400,238.400 32.400 C 237.766 32.400,237.136 32.220,237.000 32.000 C 236.864 31.780,236.234 31.600,235.600 31.600 C 234.966 31.600,234.331 31.411,234.188 31.181 C 234.014 30.899,233.719 30.931,233.288 31.281 C 232.807 31.670,232.722 31.675,232.947 31.300 C 233.155 30.953,232.941 30.800,232.247 30.800 C 231.697 30.800,231.136 30.620,231.000 30.400 C 230.864 30.180,230.223 30.000,229.576 30.000 C 228.929 30.000,228.400 29.844,228.400 29.654 C 228.400 29.464,227.545 29.004,226.500 28.631 C 225.455 28.258,224.287 27.783,223.905 27.576 C 223.523 27.369,222.848 27.200,222.405 27.200 C 221.962 27.200,221.600 27.020,221.600 26.800 C 221.600 26.580,221.161 26.400,220.624 26.400 C 220.087 26.400,219.536 26.220,219.400 26.000 C 219.264 25.780,218.343 25.600,217.353 25.600 C 216.363 25.600,215.640 25.458,215.748 25.285 C 215.855 25.112,215.502 24.933,214.963 24.889 C 214.424 24.844,213.539 24.516,212.995 24.160 C 212.451 23.804,211.750 23.610,211.436 23.731 C 211.123 23.851,210.767 23.691,210.646 23.375 C 210.524 23.059,209.980 22.800,209.436 22.800 C 208.892 22.800,208.336 22.620,208.200 22.400 C 208.064 22.180,207.254 22.000,206.400 22.000 C 205.546 22.000,204.741 21.828,204.611 21.618 C 204.481 21.408,202.676 21.236,200.600 21.236 C 198.524 21.236,196.719 21.408,196.589 21.618 M338.120 57.200 C 338.120 58.410,338.195 58.905,338.287 58.300 C 338.378 57.695,338.378 56.705,338.287 56.100 C 338.195 55.495,338.120 55.990,338.120 57.200 M268.200 100.689 C 265.340 103.698,261.189 108.059,258.975 110.380 C 256.762 112.701,254.053 115.590,252.956 116.800 C 251.860 118.010,248.271 121.881,244.981 125.402 C 237.790 133.101,227.051 145.900,218.924 156.460 C 215.647 160.717,211.858 165.640,210.502 167.400 C 209.146 169.160,206.917 172.130,205.548 174.000 C 204.180 175.870,201.592 179.380,199.797 181.800 C 191.470 193.031,175.034 218.014,165.719 233.600 C 162.336 239.261,154.343 253.268,153.279 255.400 C 152.730 256.500,151.165 259.380,149.800 261.800 C 143.563 272.858,134.000 291.932,134.000 293.313 C 134.000 293.852,138.812 303.560,139.197 303.798 C 139.870 304.214,140.461 303.206,145.317 293.360 C 146.900 290.151,149.951 284.405,150.393 283.800 C 150.554 283.580,151.586 281.690,152.687 279.600 C 153.787 277.510,155.730 273.820,157.004 271.400 C 158.277 268.980,160.075 265.650,161.000 264.000 C 161.924 262.350,163.542 259.380,164.595 257.400 C 165.648 255.420,167.631 251.820,169.003 249.400 C 170.375 246.980,173.455 241.506,175.849 237.236 C 178.242 232.966,180.740 228.534,181.400 227.389 C 184.002 222.872,197.869 200.000,200.359 196.119 C 205.417 188.235,212.034 178.184,213.736 175.800 C 214.678 174.480,217.162 170.880,219.255 167.800 C 222.740 162.672,228.118 155.070,233.925 147.064 C 235.176 145.339,238.078 141.469,240.374 138.464 C 242.670 135.459,246.259 130.750,248.349 128.000 C 250.440 125.250,253.699 121.110,255.591 118.800 C 257.483 116.490,260.633 112.530,262.591 110.000 C 264.549 107.470,267.422 103.838,268.976 101.928 C 273.377 96.517,273.589 96.231,273.595 95.700 C 273.602 94.975,273.838 94.757,268.200 100.689 " stroke="none" fill="#263938" fill-rule="evenodd"></path><path id="path1" d="M196.600 41.642 C 194.640 42.431,188.485 44.570,166.400 52.137 C 160.350 54.210,154.140 56.388,152.600 56.978 C 151.060 57.567,147.820 58.745,145.400 59.596 C 137.980 62.204,134.345 63.499,130.800 64.794 C 127.240 66.095,113.788 70.553,100.200 74.936 C 95.800 76.356,86.620 79.318,79.800 81.520 C 72.980 83.722,61.640 87.362,54.600 89.610 C 47.560 91.858,41.575 93.878,41.300 94.098 C 40.675 94.598,40.581 237.699,41.198 249.800 C 43.625 297.384,63.693 334.369,102.120 362.078 C 104.584 363.855,108.065 366.448,109.856 367.841 C 111.647 369.235,114.797 371.399,116.856 372.651 C 118.915 373.902,122.400 376.128,124.600 377.597 C 129.758 381.041,146.330 390.865,154.800 395.501 C 161.066 398.930,166.473 401.738,185.800 411.602 C 190.420 413.960,195.190 416.451,196.400 417.137 C 198.674 418.427,199.717 418.757,198.880 417.920 C 198.511 417.551,198.400 402.344,198.400 351.907 C 198.400 291.435,198.349 286.355,197.741 286.122 C 197.349 285.972,195.932 286.489,194.241 287.399 C 187.237 291.171,180.425 294.436,177.057 295.636 C 175.046 296.352,170.492 298.067,166.938 299.446 C 163.384 300.826,158.524 302.521,156.138 303.214 C 150.232 304.928,150.114 305.060,145.890 314.749 C 138.985 330.584,138.174 333.535,138.544 341.462 L 138.790 346.725 137.293 348.536 C 136.470 349.532,134.627 351.279,133.198 352.418 C 131.769 353.557,129.610 355.420,128.400 356.559 C 127.190 357.698,124.400 360.179,122.200 362.071 C 120.000 363.964,117.488 366.253,116.619 367.156 C 113.272 370.635,111.597 368.982,113.783 364.359 C 114.552 362.732,115.984 359.330,116.964 356.800 C 120.756 347.013,126.414 333.563,128.913 328.400 C 130.350 325.430,132.333 321.110,133.321 318.800 C 134.308 316.490,136.202 312.129,137.529 309.110 C 138.856 306.090,139.746 303.660,139.505 303.710 C 138.858 303.844,133.946 293.977,134.131 292.912 C 134.215 292.424,134.129 292.120,133.939 292.238 C 130.274 294.503,125.994 268.762,127.162 251.488 C 128.204 236.072,130.226 224.549,132.062 223.567 C 133.646 222.719,134.318 223.508,137.571 230.040 C 139.321 233.554,141.438 237.362,142.276 238.503 L 143.798 240.577 144.143 238.189 C 144.352 236.743,144.312 232.957,144.043 228.600 C 142.337 201.006,144.423 190.391,155.169 172.000 C 156.776 169.250,158.451 166.373,158.891 165.606 C 161.729 160.665,175.247 143.078,180.262 137.800 C 180.680 137.360,182.704 135.020,184.759 132.600 C 186.813 130.180,190.498 126.064,192.947 123.453 C 195.396 120.842,197.619 118.322,197.886 117.853 C 198.257 117.201,198.375 108.197,198.386 79.674 C 198.395 54.735,198.537 42.091,198.814 41.574 C 199.323 40.623,199.118 40.629,196.600 41.642 " stroke="none" fill="#4cd2aa" fill-rule="evenodd"></path><path id="path2" d="M199.592 42.700 C 199.588 42.865,199.591 59.584,199.600 79.854 L 199.616 116.708 198.023 118.723 C 197.147 119.831,194.843 122.417,192.903 124.469 C 174.031 144.428,160.636 162.411,151.989 179.400 C 144.606 193.907,144.581 194.049,144.660 221.300 C 144.705 237.156,144.607 242.000,144.240 242.000 C 143.598 242.000,139.959 236.436,138.194 232.756 C 132.648 221.194,132.000 221.150,130.013 232.200 C 126.942 249.287,126.860 266.120,129.779 280.525 C 131.903 291.008,132.783 292.625,134.500 289.200 C 134.887 288.430,137.068 284.020,139.348 279.400 C 141.628 274.780,144.444 269.290,145.605 267.200 C 146.767 265.110,149.326 260.430,151.293 256.800 C 153.260 253.170,155.727 248.760,156.774 247.000 C 157.822 245.240,159.281 242.720,160.017 241.400 C 178.735 207.824,217.368 153.831,241.155 128.000 C 252.429 115.758,254.860 113.145,259.013 108.809 C 261.440 106.274,264.320 103.215,265.413 102.012 C 273.187 93.452,279.594 87.461,280.263 88.129 C 280.704 88.571,276.186 95.006,271.788 100.200 C 270.670 101.520,267.616 105.300,265.002 108.600 C 262.387 111.900,258.167 117.220,255.624 120.422 C 253.081 123.624,249.702 127.944,248.115 130.022 C 246.529 132.100,243.589 135.936,241.583 138.547 C 236.811 144.758,225.752 160.148,218.408 170.800 C 203.140 192.944,187.392 218.525,171.991 246.200 C 169.298 251.040,166.276 256.530,165.277 258.400 C 164.277 260.270,162.659 263.240,161.682 265.000 C 160.704 266.760,158.730 270.450,157.295 273.200 C 155.860 275.950,153.144 280.990,151.261 284.400 C 147.868 290.542,146.443 293.335,143.249 300.093 C 142.341 302.015,140.976 304.560,140.215 305.749 C 139.455 306.938,137.046 311.936,134.863 316.855 C 132.680 321.775,129.895 327.870,128.675 330.400 C 126.599 334.703,120.825 348.537,117.769 356.527 C 117.027 358.467,115.800 361.437,115.042 363.127 C 112.405 369.010,113.258 369.510,118.115 364.929 C 119.940 363.208,123.939 359.640,127.001 357.000 C 130.063 354.360,133.809 351.030,135.326 349.600 L 138.084 347.000 137.822 342.800 C 137.286 334.209,139.269 327.300,146.895 311.183 C 149.882 304.872,150.480 304.243,154.733 302.954 C 160.124 301.320,164.660 299.694,177.800 294.687 C 181.542 293.261,186.361 290.912,192.849 287.351 C 197.884 284.588,198.557 284.399,199.186 285.574 C 199.467 286.098,199.600 307.377,199.600 351.574 L 199.600 416.800 200.454 416.800 C 200.923 416.800,202.678 416.102,204.354 415.248 C 236.033 399.115,243.210 395.281,258.600 386.278 C 262.340 384.090,266.016 381.947,266.770 381.517 C 267.523 381.087,269.143 380.102,270.370 379.329 C 271.596 378.556,273.140 377.586,273.800 377.174 C 278.067 374.511,292.472 364.716,294.200 363.303 C 294.420 363.123,295.320 362.445,296.200 361.797 C 328.282 338.152,346.107 311.904,354.054 276.600 C 357.386 261.799,357.348 262.915,357.498 174.499 L 357.633 95.198 356.717 94.819 C 355.916 94.488,340.155 89.413,334.600 87.698 C 330.585 86.458,330.601 86.577,332.931 75.642 L 334.328 69.084 336.064 67.559 C 338.022 65.840,337.483 65.438,335.376 67.046 C 333.904 68.168,333.789 68.475,332.396 75.000 C 331.926 77.200,331.276 80.035,330.950 81.301 C 330.624 82.566,330.391 84.636,330.431 85.901 C 330.586 90.731,328.034 96.817,323.895 101.495 C 321.119 104.633,309.261 115.665,303.400 120.563 C 297.145 125.791,295.055 128.105,296.193 128.542 C 297.160 128.913,303.866 126.501,310.095 123.541 C 313.337 122.000,316.307 120.801,316.695 120.877 C 318.199 121.171,316.742 125.345,309.112 142.600 C 304.584 152.840,291.374 177.371,285.417 186.600 C 280.203 194.680,278.271 197.536,275.399 201.416 C 264.435 216.225,255.905 222.570,228.200 236.520 C 209.178 246.098,206.514 247.614,207.087 248.541 C 207.710 249.550,222.792 248.307,233.914 246.330 C 242.225 244.854,241.984 245.902,231.186 258.200 C 223.354 267.120,204.344 282.012,198.800 283.571 C 197.810 283.849,196.460 284.399,195.800 284.792 C 189.523 288.531,181.255 292.450,173.600 295.312 C 161.489 299.842,159.107 300.693,154.937 301.983 C 149.413 303.691,148.908 304.242,145.407 312.378 C 144.692 314.040,143.012 317.920,141.673 321.000 C 138.003 329.441,137.028 333.613,137.013 340.947 L 137.000 346.895 135.672 348.241 C 134.942 348.982,132.692 350.967,130.672 352.652 C 128.652 354.337,126.730 356.034,126.400 356.424 C 126.070 356.814,124.450 358.246,122.800 359.607 C 121.150 360.968,118.789 363.047,117.553 364.227 C 114.608 367.037,114.332 366.705,116.202 362.606 C 116.505 361.943,117.402 359.690,118.195 357.600 C 118.989 355.510,120.188 352.540,120.861 351.000 C 122.450 347.361,123.169 345.607,125.446 339.801 C 126.481 337.162,128.366 332.932,129.636 330.401 C 130.905 327.871,133.025 323.280,134.348 320.200 C 138.524 310.476,139.408 308.571,140.674 306.560 C 141.353 305.482,142.806 302.710,143.903 300.400 C 147.755 292.292,149.223 289.375,150.847 286.600 C 151.749 285.060,153.570 281.730,154.895 279.200 C 159.016 271.327,160.895 267.815,161.206 267.400 C 161.371 267.180,162.491 265.110,163.695 262.800 C 166.662 257.107,169.522 251.890,171.544 248.482 C 172.235 247.318,172.800 246.306,172.800 246.234 C 172.800 246.161,174.167 243.694,175.838 240.751 C 177.509 237.808,179.522 234.230,180.311 232.800 C 181.100 231.370,183.901 226.600,186.535 222.200 C 189.168 217.800,191.634 213.660,192.015 213.000 C 196.297 205.568,208.927 185.796,215.034 176.963 C 215.933 175.664,218.706 171.630,221.197 168.000 C 223.687 164.370,226.473 160.410,227.388 159.200 C 228.303 157.990,230.470 154.930,232.203 152.400 C 233.937 149.870,236.085 146.877,236.978 145.748 C 237.870 144.620,238.960 143.192,239.400 142.574 C 239.840 141.956,240.575 140.990,241.034 140.426 C 241.493 139.862,243.913 136.700,246.414 133.400 C 250.102 128.532,255.531 121.615,259.910 116.206 C 260.264 115.769,262.074 113.429,263.933 111.006 C 265.793 108.583,268.242 105.520,269.376 104.200 C 288.654 81.759,286.864 77.419,267.231 99.000 C 265.830 100.540,262.685 103.870,260.242 106.401 C 257.799 108.931,253.910 113.071,251.600 115.601 C 249.290 118.130,246.304 121.370,244.965 122.800 C 243.626 124.230,241.940 126.030,241.218 126.800 C 240.497 127.570,238.893 129.368,237.653 130.796 C 236.414 132.224,235.220 133.587,235.000 133.825 C 234.780 134.063,233.943 135.055,233.139 136.029 C 232.336 137.003,229.366 140.595,226.539 144.010 C 223.713 147.426,220.720 151.116,219.889 152.210 C 219.059 153.305,216.449 156.726,214.089 159.814 C 211.730 162.902,208.450 167.268,206.800 169.516 C 205.150 171.764,202.087 175.897,199.993 178.702 C 189.292 193.033,166.810 227.381,160.788 238.600 C 159.292 241.385,158.203 243.292,157.089 245.074 C 155.926 246.933,153.997 250.397,151.903 254.383 C 150.295 257.445,149.393 259.074,146.799 263.600 C 144.128 268.262,142.848 270.662,140.793 274.864 C 139.680 277.139,138.572 279.352,138.331 279.781 C 137.803 280.721,135.178 286.015,134.219 288.075 C 133.480 289.663,132.611 289.753,132.299 288.273 C 132.198 287.793,131.558 284.790,130.877 281.600 C 127.682 266.639,127.663 248.468,130.825 232.000 C 132.481 223.372,132.758 223.306,136.264 230.700 C 137.699 233.725,139.854 237.664,141.054 239.454 C 145.907 246.693,146.149 246.291,145.556 231.980 C 144.844 214.827,145.512 197.067,147.040 192.552 C 153.271 174.136,170.557 149.265,195.498 122.829 C 199.771 118.300,200.167 118.271,200.538 122.464 C 201.174 129.648,203.609 142.111,204.482 142.651 C 205.353 143.189,205.839 141.842,208.975 130.200 C 215.261 106.861,219.592 95.137,223.631 90.523 C 229.597 83.709,256.712 62.400,259.417 62.400 C 260.370 62.400,262.122 61.445,266.249 58.674 C 269.302 56.625,273.060 54.254,274.600 53.406 C 279.144 50.901,279.500 50.580,279.814 48.697 C 279.970 47.764,280.301 46.868,280.549 46.706 C 280.813 46.534,280.627 46.410,280.100 46.406 C 279.460 46.402,279.200 46.635,279.200 47.213 C 279.200 49.375,278.152 50.613,274.554 52.699 C 272.599 53.832,268.660 56.296,265.800 58.174 C 259.035 62.617,259.869 62.640,245.600 57.629 C 241.750 56.277,235.000 53.931,230.600 52.415 C 226.200 50.900,220.530 48.908,218.000 47.990 C 215.470 47.071,213.040 46.228,212.600 46.116 C 210.576 45.600,205.599 43.992,203.685 43.236 C 201.561 42.396,199.607 42.141,199.592 42.700 " stroke="none" fill="#cdcece" fill-rule="evenodd"></path><path id="path3" d="M327.600 26.704 C 326.674 26.885,326.660 26.922,327.400 27.195 C 327.840 27.358,326.789 27.416,325.064 27.325 C 322.807 27.206,322.005 27.285,322.206 27.609 C 322.372 27.879,322.137 27.847,321.617 27.530 C 320.878 27.078,320.681 27.094,320.274 27.642 C 319.787 28.296,317.990 28.457,317.567 27.884 C 317.186 27.369,314.990 27.347,315.086 27.859 C 315.140 28.143,314.843 28.232,314.308 28.092 C 313.478 27.875,313.475 27.853,314.221 27.561 C 314.727 27.363,314.193 27.246,312.700 27.228 C 311.435 27.213,310.400 27.363,310.400 27.563 C 310.400 27.762,310.805 27.848,311.300 27.754 C 312.133 27.596,312.141 27.611,311.400 27.951 C 310.835 28.210,310.469 28.154,310.156 27.759 C 309.087 26.413,303.329 29.391,304.219 30.830 C 304.363 31.063,304.237 31.213,303.940 31.164 C 302.844 30.981,300.551 32.113,300.700 32.763 C 300.755 33.003,300.575 33.201,300.300 33.201 C 300.025 33.202,299.472 34.000,299.072 34.973 C 298.342 36.748,296.654 38.921,296.289 38.556 C 296.020 38.287,293.149 39.936,292.484 40.742 C 292.185 41.104,292.055 41.175,292.194 40.900 C 292.333 40.625,292.257 40.400,292.024 40.400 C 291.791 40.400,291.600 40.580,291.600 40.800 C 291.600 41.020,291.358 41.200,291.062 41.200 C 290.766 41.200,290.223 41.533,289.855 41.939 C 289.487 42.346,288.631 42.694,287.953 42.714 C 287.274 42.733,286.423 42.997,286.060 43.300 C 285.697 43.603,285.130 43.827,284.800 43.799 C 283.850 43.717,282.751 44.397,283.051 44.882 C 283.211 45.141,283.141 45.211,282.882 45.051 C 282.639 44.900,282.251 45.130,282.020 45.562 C 281.790 45.993,281.260 46.454,280.844 46.586 C 280.314 46.754,280.007 47.359,279.821 48.602 C 279.524 50.579,279.218 50.861,274.600 53.406 C 273.060 54.254,269.302 56.625,266.249 58.674 C 262.122 61.445,260.370 62.400,259.417 62.400 C 256.712 62.400,229.597 83.709,223.631 90.523 C 219.592 95.137,215.261 106.861,208.975 130.200 C 205.839 141.842,205.353 143.189,204.482 142.651 C 203.609 142.111,201.174 129.648,200.538 122.464 C 200.167 118.271,199.771 118.300,195.498 122.829 C 170.557 149.265,153.271 174.136,147.040 192.552 C 145.512 197.067,144.844 214.827,145.556 231.980 C 146.149 246.291,145.907 246.693,141.054 239.454 C 139.854 237.664,137.699 233.725,136.264 230.700 C 132.758 223.306,132.481 223.372,130.825 232.000 C 127.663 248.468,127.682 266.639,130.877 281.600 C 131.558 284.790,132.198 287.793,132.299 288.273 C 132.611 289.753,133.480 289.663,134.219 288.075 C 135.178 286.015,137.803 280.721,138.331 279.781 C 138.572 279.352,139.680 277.139,140.793 274.864 C 142.848 270.662,144.128 268.262,146.799 263.600 C 149.393 259.074,150.295 257.445,151.903 254.383 C 153.997 250.397,155.926 246.933,157.089 245.074 C 158.203 243.292,159.292 241.385,160.788 238.600 C 166.810 227.381,189.292 193.033,199.993 178.702 C 202.087 175.897,205.150 171.764,206.800 169.516 C 208.450 167.268,211.730 162.902,214.089 159.814 C 216.449 156.726,219.059 153.305,219.889 152.210 C 220.720 151.116,223.713 147.426,226.539 144.010 C 229.366 140.595,232.336 137.003,233.139 136.029 C 233.943 135.055,234.780 134.063,235.000 133.825 C 235.220 133.587,236.414 132.224,237.653 130.796 C 238.893 129.368,240.497 127.570,241.218 126.800 C 241.940 126.030,243.626 124.230,244.965 122.800 C 246.304 121.370,249.290 118.130,251.600 115.601 C 253.910 113.071,257.799 108.931,260.242 106.401 C 262.685 103.870,265.830 100.540,267.231 99.000 C 277.078 88.176,283.200 83.015,283.200 85.537 C 283.200 86.762,275.960 96.535,269.376 104.200 C 268.242 105.520,265.793 108.583,263.933 111.006 C 262.074 113.429,260.264 115.769,259.910 116.206 C 255.531 121.615,250.102 128.532,246.414 133.400 C 243.913 136.700,241.493 139.862,241.034 140.426 C 240.575 140.990,239.840 141.956,239.400 142.574 C 238.960 143.192,237.870 144.620,236.978 145.748 C 236.085 146.877,233.937 149.870,232.203 152.400 C 230.470 154.930,228.303 157.990,227.388 159.200 C 226.473 160.410,223.687 164.370,221.197 168.000 C 218.706 171.630,215.933 175.664,215.034 176.963 C 208.927 185.796,196.297 205.568,192.015 213.000 C 191.634 213.660,189.168 217.800,186.535 222.200 C 183.901 226.600,181.100 231.370,180.311 232.800 C 179.522 234.230,177.509 237.808,175.838 240.751 C 174.167 243.694,172.800 246.161,172.800 246.234 C 172.800 246.306,172.234 247.318,171.541 248.482 C 170.849 249.647,169.742 251.590,169.082 252.800 C 168.421 254.010,167.430 255.810,166.879 256.800 C 166.328 257.790,164.894 260.490,163.691 262.800 C 162.489 265.110,161.371 267.180,161.206 267.400 C 160.895 267.815,159.016 271.327,154.895 279.200 C 153.570 281.730,151.749 285.060,150.847 286.600 C 149.223 289.375,147.755 292.292,143.903 300.400 C 142.806 302.710,141.353 305.482,140.674 306.560 C 139.408 308.571,138.524 310.476,134.348 320.200 C 133.025 323.280,130.905 327.871,129.636 330.401 C 128.366 332.932,126.481 337.162,125.446 339.801 C 123.169 345.607,122.450 347.361,120.861 351.000 C 120.188 352.540,118.989 355.510,118.195 357.600 C 117.402 359.690,116.505 361.943,116.202 362.606 C 114.332 366.705,114.608 367.037,117.553 364.227 C 118.789 363.047,121.150 360.968,122.800 359.607 C 124.450 358.246,126.070 356.814,126.400 356.424 C 126.730 356.034,128.652 354.337,130.672 352.652 C 132.692 350.967,134.942 348.982,135.672 348.241 L 137.000 346.895 137.013 340.947 C 137.028 333.613,138.003 329.441,141.673 321.000 C 143.012 317.920,144.692 314.040,145.407 312.378 C 148.908 304.242,149.413 303.691,154.937 301.983 C 159.107 300.693,161.489 299.842,173.600 295.312 C 181.255 292.450,189.523 288.531,195.800 284.792 C 196.460 284.399,197.810 283.849,198.800 283.571 C 204.344 282.012,223.354 267.120,231.186 258.200 C 241.984 245.902,242.225 244.854,233.914 246.330 C 222.792 248.307,207.710 249.550,207.087 248.541 C 206.514 247.614,209.178 246.098,228.200 236.520 C 255.905 222.570,264.435 216.225,275.399 201.416 C 278.271 197.536,280.203 194.680,285.417 186.600 C 291.374 177.371,304.584 152.840,309.112 142.600 C 316.742 125.345,318.199 121.171,316.695 120.877 C 316.307 120.801,313.337 122.000,310.095 123.541 C 303.866 126.501,297.160 128.913,296.193 128.542 C 295.055 128.105,297.145 125.791,303.400 120.563 C 309.261 115.665,321.119 104.633,323.895 101.495 C 328.034 96.817,330.586 90.731,330.431 85.901 C 330.391 84.636,330.624 82.566,330.950 81.301 C 331.276 80.035,331.926 77.200,332.396 75.000 C 333.789 68.475,333.904 68.168,335.376 67.046 C 336.130 66.471,336.907 66.000,337.104 66.000 C 337.301 66.000,337.382 65.458,337.285 64.796 C 337.188 64.134,337.325 63.331,337.590 63.012 C 337.915 62.620,338.050 60.898,338.004 57.716 C 337.966 55.122,338.152 51.650,338.417 50.000 C 339.607 42.581,339.137 32.337,337.533 30.733 C 337.114 30.314,336.883 29.790,337.020 29.568 C 337.409 28.939,336.367 27.957,335.577 28.207 C 335.187 28.331,334.753 28.247,334.613 28.021 C 334.456 27.767,334.622 27.710,335.045 27.873 C 335.511 28.051,335.638 27.985,335.442 27.668 C 335.283 27.411,334.814 27.200,334.400 27.200 C 333.986 27.200,333.536 27.020,333.400 26.800 C 333.152 26.399,329.474 26.338,327.600 26.704 " stroke="none" fill="#eeece4" fill-rule="evenodd"></path><path id="path4" d="M338.914 40.200 C 338.917 41.300,338.995 41.703,339.087 41.095 C 339.179 40.486,339.177 39.586,339.082 39.095 C 338.987 38.603,338.911 39.100,338.914 40.200 M198.814 41.574 C 198.537 42.091,198.395 54.735,198.386 79.674 C 198.375 108.197,198.257 117.201,197.886 117.853 C 197.619 118.322,195.396 120.842,192.947 123.453 C 190.498 126.064,186.813 130.180,184.759 132.600 C 182.704 135.020,180.680 137.360,180.262 137.800 C 175.247 143.078,161.729 160.665,158.891 165.606 C 158.451 166.373,156.776 169.250,155.169 172.000 C 144.423 190.391,142.337 201.006,144.043 228.600 C 144.312 232.957,144.352 236.743,144.143 238.189 L 143.798 240.577 142.276 238.503 C 141.438 237.362,139.321 233.554,137.571 230.040 C 132.923 220.709,131.778 220.668,129.820 229.766 C 126.266 246.283,126.034 265.308,129.199 280.800 C 131.855 293.803,132.981 295.211,135.792 289.048 C 139.257 281.450,144.822 270.626,149.800 261.800 C 151.165 259.380,152.730 256.500,153.279 255.400 C 154.343 253.268,162.336 239.261,165.719 233.600 C 175.034 218.014,191.470 193.031,199.797 181.800 C 201.592 179.380,204.180 175.870,205.548 174.000 C 206.917 172.130,209.146 169.160,210.502 167.400 C 211.858 165.640,215.647 160.717,218.924 156.460 C 227.051 145.900,237.790 133.101,244.981 125.402 C 248.271 121.881,251.866 118.010,252.970 116.800 C 262.451 106.413,273.602 94.993,273.595 95.678 C 273.589 96.232,273.390 96.502,268.976 101.928 C 267.422 103.838,264.549 107.470,262.591 110.000 C 260.633 112.530,257.483 116.490,255.591 118.800 C 253.699 121.110,250.440 125.250,248.349 128.000 C 246.259 130.750,242.670 135.459,240.374 138.464 C 238.078 141.469,235.176 145.339,233.925 147.064 C 228.118 155.070,222.740 162.672,219.255 167.800 C 217.162 170.880,214.678 174.480,213.736 175.800 C 212.034 178.184,205.417 188.235,200.359 196.119 C 197.869 200.000,184.002 222.872,181.400 227.389 C 180.740 228.534,178.242 232.966,175.849 237.236 C 173.455 241.506,170.375 246.980,169.003 249.400 C 167.631 251.820,165.648 255.420,164.595 257.400 C 163.542 259.380,161.924 262.350,161.000 264.000 C 160.075 265.650,158.277 268.980,157.004 271.400 C 155.730 273.820,153.787 277.510,152.687 279.600 C 151.586 281.690,150.554 283.580,150.393 283.800 C 149.964 284.386,146.921 290.108,145.415 293.160 C 144.698 294.612,143.458 297.127,142.658 298.749 C 141.859 300.371,140.860 302.261,140.439 302.949 C 140.018 303.637,138.380 307.170,136.800 310.800 C 131.483 323.009,129.512 327.385,127.969 330.400 C 126.481 333.309,120.591 347.439,116.964 356.800 C 115.984 359.330,114.552 362.732,113.783 364.359 C 111.597 368.982,113.272 370.635,116.619 367.156 C 117.488 366.253,120.000 363.964,122.200 362.071 C 124.400 360.179,127.190 357.698,128.400 356.559 C 129.610 355.420,131.769 353.557,133.198 352.418 C 134.627 351.279,136.470 349.532,137.293 348.536 L 138.790 346.725 138.544 341.462 C 138.174 333.535,138.985 330.584,145.890 314.749 C 150.114 305.060,150.232 304.928,156.138 303.214 C 158.524 302.521,163.384 300.826,166.938 299.446 C 170.492 298.067,175.046 296.352,177.057 295.636 C 180.425 294.436,187.237 291.171,194.241 287.399 C 195.932 286.489,197.349 285.972,197.741 286.122 C 198.349 286.355,198.400 291.435,198.400 351.907 C 198.400 421.328,198.319 418.400,200.245 418.400 C 201.273 418.400,231.187 403.360,240.800 398.010 C 242.670 396.969,245.460 395.433,247.000 394.596 C 283.875 374.552,314.458 351.660,328.756 333.400 C 347.660 309.258,357.328 282.553,358.803 250.400 C 359.484 235.541,359.308 95.533,358.607 94.531 C 358.192 93.939,356.240 93.119,352.107 91.800 C 348.858 90.764,344.670 89.413,342.800 88.798 C 340.930 88.183,338.088 87.295,336.483 86.824 C 331.837 85.459,331.872 85.547,333.313 78.950 C 335.340 69.664,335.397 69.509,337.101 68.599 C 338.622 67.787,339.095 66.690,338.000 66.515 C 335.409 66.098,332.521 73.664,331.326 84.001 C 331.075 86.164,331.618 86.777,334.600 87.698 C 340.155 89.413,355.916 94.488,356.717 94.819 L 357.633 95.198 357.498 174.499 C 357.376 246.420,357.299 254.363,356.674 259.848 C 351.717 303.300,333.188 334.537,296.200 361.797 C 295.320 362.445,294.420 363.123,294.200 363.303 C 292.472 364.716,278.067 374.511,273.800 377.174 C 273.140 377.586,271.596 378.556,270.370 379.329 C 269.143 380.102,267.523 381.087,266.770 381.517 C 266.016 381.947,262.340 384.090,258.600 386.278 C 243.210 395.281,236.033 399.115,204.354 415.248 C 202.678 416.102,200.923 416.800,200.454 416.800 L 199.600 416.800 199.600 351.574 C 199.600 307.377,199.467 286.098,199.186 285.574 C 198.557 284.399,197.884 284.588,192.849 287.351 C 186.361 290.912,181.542 293.261,177.800 294.687 C 164.660 299.694,160.124 301.320,154.733 302.954 C 150.480 304.243,149.882 304.872,146.895 311.183 C 139.269 327.300,137.286 334.209,137.822 342.800 L 138.084 347.000 135.326 349.600 C 133.809 351.030,130.063 354.360,127.001 357.000 C 123.939 359.640,119.940 363.208,118.115 364.929 C 113.258 369.510,112.405 369.010,115.042 363.127 C 115.800 361.437,117.027 358.467,117.769 356.527 C 120.825 348.537,126.599 334.703,128.675 330.400 C 129.895 327.870,132.680 321.775,134.863 316.855 C 137.046 311.936,139.455 306.938,140.215 305.749 C 140.976 304.560,142.341 302.015,143.249 300.093 C 146.443 293.335,147.868 290.542,151.261 284.400 C 153.144 280.990,155.860 275.950,157.295 273.200 C 158.730 270.450,160.704 266.760,161.682 265.000 C 162.659 263.240,164.277 260.270,165.277 258.400 C 183.305 224.675,204.739 189.946,226.129 159.800 C 234.315 148.263,237.795 143.478,241.583 138.547 C 243.589 135.936,246.529 132.100,248.115 130.022 C 249.702 127.944,253.081 123.624,255.624 120.422 C 258.167 117.220,262.387 111.900,265.002 108.600 C 267.616 105.300,270.670 101.520,271.788 100.200 C 274.225 97.322,279.275 90.573,279.969 89.266 C 282.098 85.255,274.928 91.534,265.413 102.012 C 264.320 103.215,261.440 106.274,259.013 108.809 C 254.860 113.145,252.429 115.758,241.155 128.000 C 217.368 153.831,178.735 207.824,160.017 241.400 C 159.281 242.720,157.822 245.240,156.774 247.000 C 155.727 248.760,153.260 253.170,151.293 256.800 C 149.326 260.430,146.767 265.110,145.605 267.200 C 144.444 269.290,141.628 274.780,139.348 279.400 C 137.068 284.020,134.887 288.430,134.500 289.200 C 132.783 292.625,131.903 291.008,129.779 280.525 C 126.860 266.120,126.942 249.287,130.013 232.200 C 132.000 221.150,132.648 221.194,138.194 232.756 C 139.959 236.436,143.598 242.000,144.240 242.000 C 144.607 242.000,144.705 237.156,144.660 221.300 C 144.581 194.049,144.606 193.907,151.989 179.400 C 160.636 162.411,174.031 144.428,192.903 124.469 C 194.843 122.417,197.147 119.831,198.023 118.723 L 199.616 116.708 199.589 79.654 L 199.562 42.600 200.515 42.480 C 201.039 42.414,202.443 42.745,203.634 43.216 C 205.589 43.989,210.556 45.595,212.600 46.116 C 213.040 46.228,215.470 47.071,218.000 47.990 C 220.530 48.908,226.200 50.900,230.600 52.415 C 235.000 53.931,241.750 56.277,245.600 57.629 C 259.869 62.640,259.035 62.617,265.800 58.174 C 268.660 56.296,272.599 53.832,274.554 52.699 C 278.882 50.189,281.076 46.400,278.200 46.400 C 277.300 46.400,277.200 46.560,277.200 47.997 C 277.200 49.719,276.807 50.103,272.112 52.966 C 271.061 53.608,268.026 55.543,265.369 57.266 C 262.016 59.442,260.165 60.400,259.315 60.400 C 258.319 60.400,245.787 56.297,239.000 53.749 C 238.120 53.418,236.590 52.908,235.600 52.614 C 234.610 52.321,231.640 51.323,229.000 50.397 C 204.159 41.688,199.484 40.322,198.814 41.574 M378.561 137.600 C 378.561 141.010,378.622 142.405,378.697 140.700 C 378.772 138.995,378.772 136.205,378.697 134.500 C 378.622 132.795,378.561 134.190,378.561 137.600 M378.509 147.600 C 378.509 148.590,378.587 148.995,378.682 148.500 C 378.778 148.005,378.778 147.195,378.682 146.700 C 378.587 146.205,378.509 146.610,378.509 147.600 M378.555 155.400 C 378.556 158.260,378.620 159.378,378.697 157.883 C 378.774 156.389,378.774 154.049,378.696 152.683 C 378.618 151.318,378.555 152.540,378.555 155.400 M378.528 179.600 C 378.528 181.030,378.601 181.615,378.689 180.900 C 378.778 180.185,378.778 179.015,378.689 178.300 C 378.601 177.585,378.528 178.170,378.528 179.600 M378.562 203.400 C 378.562 206.920,378.624 208.306,378.698 206.481 C 378.772 204.656,378.772 201.776,378.697 200.081 C 378.622 198.386,378.561 199.880,378.562 203.400 M378.570 234.000 C 378.570 238.730,378.628 240.665,378.698 238.300 C 378.769 235.935,378.769 232.065,378.698 229.700 C 378.628 227.335,378.570 229.270,378.570 234.000 " stroke="none" fill="#9abbb0" fill-rule="evenodd"></path></g></svg>