<?xml version="1.0" encoding="UTF-8"?>
<svg version="1.1" xmlns="http://www.w3.org/2000/svg" width="549" height="529">
<path d="M0 0 C6.6384615 5.91218069 11.84883289 15.56400435 13.59765625 24.25 C13.56100462 26.26380333 13.5237519 28.27760393 13.47973633 30.29125977 C13.35290811 37.53007557 13.35290811 37.53007557 16.6875 43.640625 C19.58026147 45.41695485 22.51144926 46.83850855 25.59765625 48.25 C34.98593616 53.86052584 42.81260722 60.66287594 50.59765625 68.25 C51.28085937 68.90742187 51.9640625 69.56484375 52.66796875 70.2421875 C67.33051254 84.37919208 78.55518066 99.40468589 89.765625 116.3828125 C90.72408325 117.83264526 90.72408325 117.83264526 91.7019043 119.31176758 C92.98690009 121.30338694 94.23760375 123.3174758 95.45629883 125.3503418 C96.3461145 126.82627808 96.3461145 126.82627808 97.25390625 128.33203125 C97.77146484 129.21608643 98.28902344 130.1001416 98.82226562 131.01098633 C101.59028099 134.50183739 104.93312053 135.4730318 109.046875 136.90234375 C113.34437471 138.533408 117.22280637 140.62508444 121.22265625 142.875 C122.35574219 143.50595581 122.35574219 143.50595581 123.51171875 144.1496582 C127.6092648 146.46141449 131.61828226 148.87337655 135.578125 151.4140625 C136.79218018 152.1862915 136.79218018 152.1862915 138.03076172 152.97412109 C139.5888446 153.97330209 141.13663517 154.98876209 142.67236328 156.02197266 C146.69087501 158.76462171 146.69087501 158.76462171 151.34375 158.73046875 C152.45943359 157.99763672 152.45943359 157.99763672 153.59765625 157.25 C154.3040625 156.78722656 155.01046875 156.32445312 155.73828125 155.84765625 C156.434375 155.34105469 157.13046875 154.83445313 157.84765625 154.3125 C167.78295847 147.68356263 177.89267471 147.07570505 189.59765625 148.25 C200.38256892 150.49052763 209.41158872 157.20419322 215.59765625 166.25 C221.70416477 178.38412159 223.71134169 190.40576102 219.6328125 203.58984375 C215.41922892 214.41795854 208.25866108 222.01974972 198.59765625 228.25 C198.74203125 229.14332031 198.88640625 230.03664063 199.03515625 230.95703125 C202.34734974 253.9454762 201.5684301 277.55574047 198.41015625 300.5 C198.31209686 301.23659851 198.21403748 301.97319702 198.11300659 302.7321167 C196.85489572 311.95291695 194.80260678 320.42520541 191.5925293 329.16699219 C190.39292167 332.34452545 190.39292167 332.34452545 190.59765625 336.25 C191.46390625 336.559375 191.46390625 336.559375 192.34765625 336.875 C196.26616419 339.26964374 198.17349399 342.97751322 199.59765625 347.25 C200.35759052 353.96999016 200.06057309 359.04967297 196.015625 364.6015625 C191.501012 369.84995558 186.08073748 372.8700275 179.16015625 373.625 C171.78732452 372.84891245 167.03113304 370.50000532 162.0078125 364.99609375 C158.44444642 360.58383713 158.14528192 356.33473886 158.29296875 350.8046875 C159.11140353 343.94242668 162.8634208 339.11324712 168.13671875 334.83325195 C170.86697822 333.07673085 173.2332562 332.33327989 176.375 331.55078125 C177.355896 331.30110596 178.33679199 331.05143066 179.34741211 330.79418945 C180.08999268 330.61460693 180.83257324 330.43502441 181.59765625 330.25 C190.4838658 297.22744835 192.61023511 265.32366814 189.59765625 231.25 C188.71561523 231.2691748 187.83357422 231.28834961 186.92480469 231.30810547 C179.21163729 231.47578302 172.19729505 230.63872674 164.59765625 229.25 C164.36280518 229.89098633 164.1279541 230.53197266 163.88598633 231.19238281 C157.08219368 249.62930762 149.71979707 268.05544897 140.43969727 285.41625977 C139.14958524 288.22577888 139.45225317 290.7384538 139.53515625 293.8125 C139.90338702 322.85840646 137.36736881 351.42264823 130.52856445 379.69921875 C130.15284302 381.25769531 130.15284302 381.25769531 129.76953125 382.84765625 C129.54362305 383.75008057 129.31771484 384.65250488 129.08496094 385.58227539 C128.54399387 388.54377194 128.43073571 391.24569565 128.59765625 394.25 C129.84202551 395.95747217 129.84202551 395.95747217 131.66015625 397.25 C139.04045815 404.01527674 143.98757069 415.30091238 144.59765625 425.25 C144.83611594 436.88683275 141.10639026 447.30051899 133.59375 456.21875 C125.27060921 464.68848231 114.76867826 469.34156311 102.84765625 469.625 C90.34279974 469.04674074 80.3658091 464.56491903 71.44921875 455.66796875 C69.59765625 453.25 69.59765625 453.25 68.71557617 451.01806641 C67.58557164 448.32661558 66.59253911 446.39316589 64.59765625 444.25 C60.2949165 442.9707546 56.11957637 443.12848992 51.66015625 443.25 C49.33854313 443.25260709 47.01692563 443.25260125 44.6953125 443.25 C42.93634644 443.26015137 42.93634644 443.26015137 41.1418457 443.27050781 C29.82118505 443.20500285 18.87398783 441.63654555 7.78515625 439.5 C7.08720947 439.36882782 6.3892627 439.23765564 5.67016602 439.10250854 C-3.7670963 437.32579836 -12.95580931 435.2316991 -22.02734375 432.03515625 C-29.41884177 430.31560636 -36.44307733 432.99408247 -43.52734375 435.0625 C-63.82359546 440.75023008 -85.71121962 445.19545502 -106.89453125 444.015625 C-115.42474469 443.13183741 -115.42474469 443.13183741 -122.953125 446.29296875 C-124.73002563 448.86890392 -126.07703347 451.42063694 -127.40234375 454.25 C-134.01965287 461.9121474 -143.3752844 467.60071658 -153.40234375 469.25 C-166.63677179 470.15195316 -176.16473111 467.83304898 -186.40234375 459.25 C-195.35991632 450.85009732 -199.72298328 440.53819769 -200.71484375 428.4375 C-200.25341021 413.9600226 -193.3195215 403.13285038 -183.40234375 393.25 C-183.68368164 392.24924438 -183.68368164 392.24924438 -183.97070312 391.22827148 C-190.49039244 367.72988246 -194.55828337 343.85073495 -194.41796875 319.42578125 C-193.82918447 291.76849278 -193.82918447 291.76849278 -205.1328125 267.08691406 C-208.0341534 262.88889696 -209.62429256 257.99926832 -211.40234375 253.25 C-211.6859375 252.50943359 -211.96953125 251.76886719 -212.26171875 251.00585938 C-213.2340399 248.46547112 -214.19529355 245.92117846 -215.15234375 243.375 C-215.45881836 242.56530762 -215.76529297 241.75561523 -216.08105469 240.92138672 C-217.63852434 236.70360474 -218.85349686 232.74187853 -219.40234375 228.25 C-220.3975 228.56710937 -221.39265625 228.88421875 -222.41796875 229.2109375 C-226.32026661 230.32503764 -230.09556434 230.65505413 -234.15234375 230.875 C-235.4465625 230.94976562 -236.74078125 231.02453125 -238.07421875 231.1015625 C-240.1820785 231.19557502 -242.29238852 231.25 -244.40234375 231.25 C-245.16016001 237.34284273 -245.59494791 243.29911121 -245.58984375 249.4375 C-245.59048828 250.25323486 -245.59113281 251.06896973 -245.59179688 251.90942383 C-245.52946295 259.1536178 -244.70548792 266.11761273 -243.40234375 273.25 C-242.73847656 273.49234375 -242.07460937 273.7346875 -241.390625 273.984375 C-234.38636729 276.64292537 -228.81715606 279.1168878 -225.12890625 286.05859375 C-223.24712032 291.73430292 -223.69629212 297.91120398 -225.40234375 303.5625 C-229.11440073 308.55057657 -234.15771623 313.84495881 -240.40234375 315.25 C-247.92084242 315.85633054 -253.18412159 314.20457053 -259.15234375 309.4375 C-262.73236028 306.15514776 -265.0245786 303.10718145 -265.6796875 298.15234375 C-265.91040132 292.77209745 -265.22537445 287.89493245 -262.40234375 283.25 C-261.07533057 282.19746609 -259.71624424 281.18461826 -258.33447266 280.20507812 C-254.95675457 277.32066593 -253.81604823 275.50742477 -253.42724609 271.06835938 C-253.40302138 269.07686633 -253.42584812 267.08441157 -253.48828125 265.09375 C-253.49808014 264.03265015 -253.50787903 262.97155029 -253.51797485 261.8782959 C-253.5505964 259.64227102 -253.60394141 257.40646372 -253.67675781 255.17138672 C-253.77708388 251.75883921 -253.78128071 248.35524043 -253.77734375 244.94140625 C-253.82102208 242.7628968 -253.87031429 240.58449118 -253.92578125 238.40625 C-253.92113861 237.39252319 -253.91649597 236.37879639 -253.91171265 235.33435059 C-254.11911349 230.92802071 -254.32955464 228.28409149 -257.59014893 225.14111328 C-260.20278039 223.28025951 -260.20278039 223.28025951 -262.88833618 221.77355957 C-269.78363616 217.59481309 -274.73237219 210.09297918 -276.93286133 202.39379883 C-279.75128671 189.52401551 -277.44240764 176.59414811 -270.65234375 165.5 C-264.17108138 156.44886053 -255.3274326 150.64716775 -244.40234375 148.25 C-243.03557743 148.11070644 -241.66488705 148.00634699 -240.29296875 147.93359375 C-239.16181641 147.87075195 -239.16181641 147.87075195 -238.0078125 147.80664062 C-237.23050781 147.76732422 -236.45320313 147.72800781 -235.65234375 147.6875 C-234.85957031 147.64431641 -234.06679687 147.60113281 -233.25 147.55664062 C-231.3009656 147.45097009 -229.35167627 147.35002034 -227.40234375 147.25 C-227.10690674 146.62246826 -226.81146973 145.99493652 -226.50708008 145.34838867 C-217.03667615 125.40295135 -206.1244701 107.71061361 -191.40234375 91.25 C-190.57089844 90.28578125 -189.73945313 89.3215625 -188.8828125 88.328125 C-182.5706278 81.1312404 -175.68227368 74.68792048 -167.63671875 69.44921875 C-164.55585549 66.41683061 -164.71040622 64.25641609 -164.46484375 60 C-163.8463514 53.29024614 -162.50514506 48.82220029 -157.40234375 44.25 C-152.57801458 40.29285397 -147.73773815 37.86748562 -141.40234375 38.25 C-134.37688876 39.41685758 -129.69233791 42.62301579 -125.40234375 48.25 C-122.60793408 52.74492232 -121.83874313 56.98972753 -122.40234375 62.25 C-124.58392425 69.03713932 -128.33726509 73.98768004 -134.02734375 78.1875 C-140.38683123 80.18956087 -146.8700009 80.2371845 -153.08984375 77.8125 C-155.40234375 76.25 -155.40234375 76.25 -156.40234375 75.25 C-159.55183665 74.85902847 -161.03979264 75.02430593 -163.76171875 76.71875 C-164.550625 77.3890625 -165.33953125 78.059375 -166.15234375 78.75 C-167.01988281 79.4821875 -167.88742188 80.214375 -168.78125 80.96875 C-169.64621094 81.7215625 -170.51117188 82.474375 -171.40234375 83.25 C-172.19511719 83.9203125 -172.98789063 84.590625 -173.8046875 85.28125 C-178.81013817 89.59363827 -183.2280191 94.13498247 -187.40234375 99.25 C-188.01746826 99.99660889 -188.01746826 99.99660889 -188.64501953 100.75830078 C-195.29528239 108.86563024 -201.15196009 117.15002674 -206.40234375 126.25 C-206.97130371 127.22187256 -206.97130371 127.22187256 -207.55175781 128.21337891 C-212.10693771 136.00454972 -216.45606945 143.67902021 -219.40234375 152.25 C-218.29052734 152.64638672 -218.29052734 152.64638672 -217.15625 153.05078125 C-213.69912091 154.55622611 -211.22650789 156.68778596 -208.3671875 159.10546875 C-206.51071357 160.45820171 -206.51071357 160.45820171 -204.56689453 159.9921875 C-202.04678977 159.12808661 -200.05396735 157.9486774 -197.8046875 156.51953125 C-196.92619141 155.96668457 -196.04769531 155.41383789 -195.14257812 154.84423828 C-194.21767578 154.25626465 -193.29277344 153.66829102 -192.33984375 153.0625 C-185.13968264 148.54467997 -177.93506781 144.1940747 -170.40234375 140.25 C-169.25636719 139.6209375 -168.11039062 138.991875 -166.9296875 138.34375 C-166.33349609 138.01681152 -165.73730469 137.68987305 -165.12304688 137.35302734 C-163.43318755 136.42619596 -161.74392008 135.49828569 -160.0546875 134.5703125 C-157.40234375 133.25 -157.40234375 133.25 -155.40234375 133.25 C-155.18449219 132.60804688 -154.96664062 131.96609375 -154.7421875 131.3046875 C-152.88236565 127.06451057 -150.44780548 123.27557098 -147.96484375 119.375 C-147.16566528 118.11731812 -147.16566528 118.11731812 -146.3503418 116.83422852 C-138.8696303 105.17900789 -130.85066069 94.39010122 -121.40234375 84.25 C-120.33574624 83.00349448 -119.27312434 81.75357427 -118.21484375 80.5 C-105.00353198 65.47477815 -90.18483156 52.7207666 -72.74609375 42.8359375 C-70.11498887 41.40207957 -70.11498887 41.40207957 -69.40234375 38.25 C-69.38273976 36.54165212 -69.40889857 34.83254413 -69.46484375 33.125 C-69.51404157 20.62875419 -64.91168767 10.2526122 -56.39453125 1.03515625 C-39.73264155 -13.89520374 -17.29836779 -12.60108743 0 0 Z M-41.71484375 20.75 C-45.59467201 25.39357398 -45.74569198 29.63963022 -45.68359375 35.5234375 C-45.15697195 40.62874325 -42.51071728 43.24976047 -38.83984375 46.5625 C-33.77432373 50.06939847 -28.35053463 49.82482517 -22.40234375 49.25 C-17.21964471 47.73757667 -13.90460557 44.29580401 -11.28515625 39.6640625 C-9.54748183 34.91236874 -9.6486346 30.20493978 -10.40234375 25.25 C-12.56172013 20.77129344 -15.33187314 18.06801812 -19.40234375 15.25 C-28.0038538 12.38282998 -35.65997319 13.9794237 -41.71484375 20.75 Z M9.59765625 49.25 C9.16195313 49.90226562 8.72625 50.55453125 8.27734375 51.2265625 C2.82775459 59.22401152 2.82775459 59.22401152 -0.90234375 62.4375 C-3.79134214 65.02164904 -3.79134214 65.02164904 -3.22216797 68.43847656 C-2.36226278 72.4363443 -1.18945561 76.21601344 0.21484375 80.046875 C0.47266632 80.76232483 0.73048889 81.47777466 0.99612427 82.21490479 C1.53909634 83.71530703 2.08552459 85.21446267 2.63525391 86.71240234 C3.47395046 89.0035355 4.29612547 91.30015314 5.1171875 93.59765625 C5.64875553 95.06025385 6.18127467 96.52250621 6.71484375 97.984375 C6.95870819 98.66876648 7.20257263 99.35315796 7.4538269 100.05828857 C9.17548011 104.75897374 9.17548011 104.75897374 12.59765625 108.25 C15.06439612 108.79614167 17.41266817 109.18304136 19.91015625 109.5 C28.06072735 110.70069221 36.08192898 112.37060184 44.10580444 114.22717285 C46.0565362 114.67799695 48.00933237 115.11985836 49.9621582 115.56152344 C57.15293012 117.24305779 63.82049976 119.33692963 70.59765625 122.25 C72.73461929 123.04509351 74.8790486 123.82089059 77.03515625 124.5625 C78.51822266 125.08263672 78.51822266 125.08263672 80.03125 125.61328125 C82.69110795 126.51627345 82.69110795 126.51627345 85.59765625 125.25 C80.35553513 115.64242647 74.22716303 106.9354105 67.59765625 98.25 C66.86933594 97.27933594 66.14101563 96.30867188 65.390625 95.30859375 C64.79894531 94.62925781 64.20726562 93.94992188 63.59765625 93.25 C62.93765625 93.25 62.27765625 93.25 61.59765625 93.25 C61.23776611 92.15993652 61.23776611 92.15993652 60.87060547 91.04785156 C59.41196319 87.84185991 57.71215892 85.9766556 55.23046875 83.484375 C54.35068359 82.59838623 53.47089844 81.71239746 52.56445312 80.79956055 C51.62666016 79.87570557 50.68886719 78.95185059 49.72265625 78 C49.00686401 77.29068832 49.00686401 77.29068832 48.27661133 76.56704712 C41.45841491 69.8215831 34.68662486 63.46465814 26.59765625 58.25 C26.04078125 57.88600098 25.48390625 57.52200195 24.91015625 57.14697266 C17.72463238 52.13340999 17.72463238 52.13340999 9.59765625 49.25 Z M-103.40234375 76.25 C-104.335625 77.11882812 -105.26890625 77.98765625 -106.23046875 78.8828125 C-114.65966606 86.89869107 -121.54132585 95.88619362 -128.40234375 105.25 C-129.39293914 106.57964321 -130.38381414 107.90907815 -131.375 109.23828125 C-132.28133956 110.47033163 -133.18636127 111.70335295 -134.08984375 112.9375 C-134.70496826 113.76483643 -134.70496826 113.76483643 -135.33251953 114.60888672 C-137.78406006 118.0167687 -139.27035034 121.21235505 -140.40234375 125.25 C-134.01010893 123.78585683 -127.80209604 122.08574608 -121.6171875 119.8984375 C-112.90652573 116.91638502 -104.02117325 114.97883595 -95.02734375 113.0625 C-93.43733441 112.71755929 -91.84748972 112.37185874 -90.2578125 112.02539062 C-89.48572449 111.85804413 -88.71363647 111.69069763 -87.91815186 111.51828003 C-86.41052493 111.18981938 -84.90369908 110.8576566 -83.39776611 110.52151489 C-80.41578022 109.86201019 -77.4728384 109.25870433 -74.44042969 108.88427734 C-71.78678794 108.6280038 -71.78678794 108.6280038 -68.40234375 107.25 C-66.3278524 104.51771265 -65.46148011 101.48489875 -64.40234375 98.25 C-63.47763268 95.8980471 -62.54469483 93.54931923 -61.60546875 91.203125 C-60.86513366 89.28932604 -60.13232587 87.37277821 -59.40087891 85.45556641 C-58.64731458 83.48686117 -57.88228236 81.52284175 -57.1171875 79.55859375 C-56.63340224 78.29454324 -56.15030435 77.03022938 -55.66796875 75.765625 C-55.01489746 74.06841309 -55.01489746 74.06841309 -54.34863281 72.33691406 C-53.44765918 69.39782463 -53.02803467 67.29176804 -53.40234375 64.25 C-55.05425866 62.89843325 -56.72528467 61.570238 -58.40234375 60.25 C-60.27852844 57.6512584 -62.02867383 54.99791761 -63.75390625 52.296875 C-64.29789062 51.62140625 -64.841875 50.9459375 -65.40234375 50.25 C-78.01986896 50.25 -94.94485024 68.23902013 -103.40234375 76.25 Z M-149.46484375 54.8125 C-150.79509148 58.2711441 -150.258414 60.6940159 -149.40234375 64.25 C-147.47066977 66.59813734 -147.47066977 66.59813734 -144.02734375 66.625 C-140.42206347 66.53667912 -140.42206347 66.53667912 -137.96484375 64.625 C-135.95419604 61.56881548 -135.86714062 59.84350675 -136.40234375 56.25 C-137.27363682 54.21117905 -137.27363682 54.21117905 -139.40234375 53.25 C-143.24172106 52.60210508 -146.29123087 52.40824782 -149.46484375 54.8125 Z M-90.52734375 119.375 C-91.4822168 119.59728271 -92.43708984 119.81956543 -93.42089844 120.04858398 C-100.20543987 121.65782374 -106.94153055 123.41995587 -113.65234375 125.3125 C-114.4839502 125.54533691 -115.31555664 125.77817383 -116.17236328 126.01806641 C-121.25142053 127.4888831 -126.1082263 129.28029272 -130.99658203 131.29272461 C-133.21375559 132.17495898 -135.43101502 132.94531896 -137.703125 133.671875 C-138.37021484 133.89359375 -139.03730469 134.1153125 -139.72460938 134.34375 C-141.06454917 134.78557509 -142.41131739 135.20714945 -143.76367188 135.609375 C-149.5961332 137.61232757 -151.71952143 140.84435589 -154.40234375 146.25 C-154.80702881 147.06114258 -155.21171387 147.87228516 -155.62866211 148.70800781 C-156.86960655 151.28688778 -158.04948172 153.88617636 -159.21484375 156.5 C-159.62154297 157.38429687 -160.02824219 158.26859375 -160.44726562 159.1796875 C-160.83076172 160.03304687 -161.21425781 160.88640625 -161.609375 161.765625 C-161.95460205 162.53165039 -162.2998291 163.29767578 -162.65551758 164.08691406 C-163.61991416 166.49876778 -163.61991416 166.49876778 -163.40234375 170.25 C-162.67797119 170.1998877 -161.95359863 170.14977539 -161.20727539 170.09814453 C-158.30248492 169.89924497 -155.39747998 169.70385569 -152.49230957 169.5105896 C-151.14075687 169.42020263 -149.7892749 169.32875171 -148.43786621 169.23623657 C-139.40145804 168.62004522 -130.37270694 168.15438967 -121.3203125 167.84765625 C-118.52013192 167.74394755 -115.72000992 167.63875466 -112.91989136 167.53338623 C-111.07554935 167.46948597 -109.23088302 167.41434328 -107.38601685 167.36798096 C-104.7808558 167.30197255 -102.17822081 167.20654012 -99.57421875 167.10546875 C-98.79116867 167.09387222 -98.00811859 167.0822757 -97.20133972 167.07032776 C-94.7592313 167.01246836 -94.7592313 167.01246836 -91.40234375 166.25 C-89.39437584 164.14981558 -89.39437584 164.14981558 -88.40234375 161.25 C-87.97767822 160.24179199 -87.5530127 159.23358398 -87.11547852 158.19482422 C-86.69580811 157.0760791 -86.2761377 155.95733398 -85.84375 154.8046875 C-85.61332504 154.19416534 -85.38290009 153.58364319 -85.14549255 152.95462036 C-84.41404465 151.01309362 -83.68940746 149.06910484 -82.96484375 147.125 C-82.4828548 145.84358708 -82.0004363 144.56233564 -81.51757812 143.28125 C-80.57726898 140.78313439 -79.64456119 138.28257597 -78.71533203 135.78027344 C-77.87448654 133.51946536 -77.02471548 131.26194463 -76.16357422 129.00878906 C-75.61467529 127.55424316 -75.61467529 127.55424316 -75.0546875 126.0703125 C-74.73363037 125.23000488 -74.41257324 124.38969727 -74.08178711 123.52392578 C-73.21148329 121.00678212 -73.21148329 121.00678212 -73.40234375 117.25 C-79.40127639 116.97212029 -84.70173854 117.99506106 -90.52734375 119.375 Z M15.59765625 117.25 C17.72192715 124.92775251 20.47087153 132.25124654 23.47265625 139.625 C23.89417969 140.67171875 24.31570313 141.7184375 24.75 142.796875 C26.02359523 145.95165218 27.30824257 149.10165735 28.59765625 152.25 C29.05946289 153.38083008 29.52126953 154.51166016 29.99707031 155.67675781 C30.4453418 156.76569336 30.89361328 157.85462891 31.35546875 158.9765625 C31.76168457 159.96479004 32.16790039 160.95301758 32.58642578 161.97119141 C33.39944493 164.17162777 33.39944493 164.17162777 34.59765625 165.25 C36.80774739 165.54017179 39.02616838 165.76717155 41.24609375 165.96875 C41.92583252 166.03132492 42.60557129 166.09389984 43.3059082 166.15837097 C45.52771446 166.3609142 47.75008331 166.5560621 49.97265625 166.75 C50.72718079 166.81692047 51.48170532 166.88384094 52.25909424 166.95278931 C70.07317723 168.52967486 87.70846777 169.43029417 105.59765625 169.25 C105.1600221 162.21482465 102.9517959 156.8141775 99.91015625 150.5 C99.48798828 149.56800781 99.06582031 148.63601562 98.63085938 147.67578125 C94.00833994 137.95663783 87.41746445 135.48112298 77.66015625 132 C76.58636719 131.61448975 75.51257813 131.22897949 74.40625 130.83178711 C60.72455003 126.06442369 46.68050789 122.60696501 32.59765625 119.25 C31.69281494 119.03214844 30.78797363 118.81429687 29.85571289 118.58984375 C24.91674014 117.43834595 20.63778731 117.06672251 15.59765625 117.25 Z M-184.58984375 157.8125 C-185.35748047 158.28107422 -186.12511719 158.74964844 -186.91601562 159.23242188 C-188.40291704 160.14341974 -189.88603641 161.06062813 -191.36474609 161.98486328 C-192.66038228 162.78931891 -193.96712713 163.57634854 -195.28759766 164.33935547 C-197.14154042 165.40726751 -197.14154042 165.40726751 -199.40234375 167.25 C-199.40234375 168.57 -199.40234375 169.89 -199.40234375 171.25 C-196.19408813 171.30849554 -192.98597142 171.34376162 -189.77734375 171.375 C-188.87371094 171.39175781 -187.97007812 171.40851563 -187.0390625 171.42578125 C-179.95635165 171.56869333 -179.95635165 171.56869333 -173.40234375 169.25 C-171.57183985 166.83514871 -170.33964522 164.25104228 -169.08984375 161.5 C-168.74373047 160.79617187 -168.39761719 160.09234375 -168.04101562 159.3671875 C-166.12218662 155.34250911 -164.88840215 151.73019051 -164.40234375 147.25 C-170.94045005 147.25 -179.10370291 154.44037081 -184.58984375 157.8125 Z M107.59765625 147.25 C108.49594124 150.31473704 109.48855307 153.25781516 110.59765625 156.25 C111.03851563 157.46429688 111.479375 158.67859375 111.93359375 159.9296875 C113.46673579 163.75083922 115.08301442 166.96575248 117.59765625 170.25 C121.66184765 171.97456786 125.25816094 171.59857413 129.59765625 171.25 C132.18106184 171.25778916 134.76446207 171.27854497 137.34765625 171.3125 C139.43103396 171.29671684 141.51440337 171.27773562 143.59765625 171.25 C143.92765625 169.93 144.25765625 168.61 144.59765625 167.25 C127.21815517 154.04279072 127.21815517 154.04279072 107.59765625 147.25 Z M-250.9375 177.91015625 C-254.93953481 183.33910041 -255.34416047 188.67798223 -254.40234375 195.25 C-252.40910707 200.0757309 -248.69115687 203.87671213 -244.21484375 206.5625 C-238.71528899 207.90683561 -233.46245304 207.94965976 -228.08984375 206.125 C-223.01334218 202.58325472 -220.41875971 199.39220657 -218.90234375 193.4375 C-218.08160716 188.1385696 -218.69119239 183.90784692 -221.40234375 179.25 C-224.96854531 175.25585425 -228.38497778 172.5430881 -233.85546875 172.01171875 C-241.16233023 171.81782159 -245.87771126 172.43837453 -250.9375 177.91015625 Z M167.59765625 176.25 C164.54852507 180.19912919 162.33379048 184.26558158 162.03515625 189.3125 C162.87737314 195.20801823 164.75023908 199.40258283 168.97265625 203.625 C174.94634493 207.32299776 179.85566421 207.83566015 186.59765625 206.25 C190.97789282 204.74697765 193.70875916 202.65145651 196.03515625 198.625 C198.576336 192.75399851 198.51120684 186.93989897 196.47265625 180.9375 C193.59409909 176.81156808 190.46402672 173.87212349 185.59765625 172.25 C178.9402586 171.60334195 172.64424124 171.36071116 167.59765625 176.25 Z M-210.40234375 222.25 C-211.58981525 226.45675273 -211.14642647 229.03431797 -209.77734375 233.15234375 C-209.40343506 234.28438232 -209.02952637 235.4164209 -208.64428711 236.58276367 C-208.02952515 238.36710815 -208.02952515 238.36710815 -207.40234375 240.1875 C-206.99314697 241.39704346 -206.5839502 242.60658691 -206.16235352 243.8527832 C-203.21332702 252.37888022 -199.90100016 260.42436297 -195.40234375 268.25 C-194.41234375 268.25 -193.42234375 268.25 -192.40234375 268.25 C-191.89619104 264.37577792 -191.39851654 260.50051183 -190.90234375 256.625 C-190.75925781 255.53058594 -190.61617187 254.43617188 -190.46875 253.30859375 C-190.33339844 252.24511719 -190.19804687 251.18164062 -190.05859375 250.0859375 C-189.87006836 248.62486572 -189.87006836 248.62486572 -189.67773438 247.13427734 C-188.90311841 241.37962556 -188.90311841 241.37962556 -190.80078125 236.1953125 C-191.45304687 235.59460938 -192.1053125 234.99390625 -192.77734375 234.375 C-193.50050781 233.70726562 -194.22367188 233.03953125 -194.96875 232.3515625 C-201.85548903 225.39034245 -201.85548903 225.39034245 -210.40234375 222.25 Z M146.28515625 226.4375 C143.22306593 229.02912346 140.17091975 231.5799028 136.97265625 234 C134.20614663 236.62090385 134.00633642 237.54685049 133.59765625 241.25 C133.81855398 244.25850631 133.81855398 244.25850631 134.375 247.42578125 C134.55869141 248.58271484 134.74238281 249.73964844 134.93164062 250.93164062 C135.13080078 252.12982422 135.32996094 253.32800781 135.53515625 254.5625 C135.73044922 255.78001953 135.92574219 256.99753906 136.12695312 258.25195312 C136.60941814 261.25265019 137.09991351 264.25180582 137.59765625 267.25 C140.88842773 266.51757663 140.88842773 266.51757663 142.39453125 263.20703125 C143.06102484 261.83290878 143.71087788 260.4506425 144.34765625 259.0625 C144.86283813 257.95116699 144.86283813 257.95116699 145.38842773 256.81738281 C148.21418061 250.51143762 150.52308708 244.06815195 152.66015625 237.5 C153.12663574 236.09004761 153.12663574 236.09004761 153.60253906 234.65161133 C153.8806543 233.76111084 154.15876953 232.87061035 154.4453125 231.953125 C154.69289307 231.16583008 154.94047363 230.37853516 155.19555664 229.56738281 C155.66412529 226.86692525 155.28089709 224.88498262 154.59765625 222.25 C150.52831554 222.25 149.35898298 223.83133708 146.28515625 226.4375 Z M-21.40234375 242.25 C-23.86879806 244.97024707 -23.86879806 244.97024707 -25.40234375 247.25 C-28.36428322 246.91192514 -29.97947356 246.66526802 -32.140625 244.54296875 C-32.66011719 243.84816406 -33.17960937 243.15335938 -33.71484375 242.4375 C-37.93137618 237.3003273 -42.87307384 234.49807283 -49.40234375 233.25 C-59.36583706 232.53497283 -68.69824891 232.37919901 -76.6484375 239.16796875 C-84.85699683 247.67775962 -87.01395533 256.04097759 -86.87329102 267.56835938 C-86.09026436 287.45765183 -70.6968883 303.51477866 -57.12890625 316.78125 C-52.33939594 321.11788398 -47.26614201 325.05999438 -42.10986328 328.94824219 C-40.47641489 330.19353055 -38.87316186 331.46964303 -37.2734375 332.7578125 C-36.32597656 333.49773437 -35.37851562 334.23765625 -34.40234375 335 C-33.57734375 335.65484375 -32.75234375 336.3096875 -31.90234375 336.984375 C-29.443479 338.45792686 -29.443479 338.45792686 -26.5390625 338.296875 C-22.33761305 336.89464779 -19.55976069 334.59380741 -16.21484375 331.75 C-15.23028198 330.93523193 -15.23028198 330.93523193 -14.22583008 330.10400391 C-12.89857342 329.00499334 -11.57486509 327.9016823 -10.25488281 326.79394531 C-7.73476198 324.6936232 -5.15789039 322.66626784 -2.58984375 320.625 C10.99127001 309.41455402 28.7795049 291.80587969 31.59765625 273.25 C32.30050659 261.76110022 32.15689331 252.09435724 24.53515625 242.9375 C18.27719174 236.49726468 11.31186691 232.58101215 2.234375 232.125 C-7.36459718 232.58006238 -14.50747745 235.58836385 -21.40234375 242.25 Z M-181.40234375 246.25 C-183.41953255 253.83564695 -184.47956846 261.27614308 -185.18994141 269.08349609 C-185.38443504 271.06733118 -185.64592258 273.04430205 -185.9140625 275.01953125 C-186.9313247 287.21346644 -181.05711252 295.49572286 -174.40234375 305.25 C-173.86786621 306.03375 -173.33338867 306.8175 -172.78271484 307.625 C-166.40011241 316.86677728 -159.55955434 325.75748581 -152.546875 334.52734375 C-150.40234375 337.25 -150.40234375 337.25 -148.40234375 340.25 C-147.41234375 340.25 -146.42234375 340.25 -145.40234375 340.25 C-142.15486902 329.47496863 -139.43796377 318.58192763 -136.95779419 307.60766602 C-136.6298178 306.16378209 -136.29672457 304.72105069 -135.95846558 303.27954102 C-135.47816073 301.22458006 -135.01788683 299.16607596 -134.5625 297.10546875 C-134.29058838 295.90559326 -134.01867676 294.70571777 -133.73852539 293.46948242 C-133.37208561 289.96022945 -133.72631551 288.31565085 -135.40234375 285.25 C-137.71916633 282.71291499 -137.71916633 282.71291499 -140.58984375 280.25 C-141.11304199 279.78287598 -141.63624023 279.31575195 -142.17529297 278.83447266 C-143.90776249 277.29466875 -145.65305918 275.77066613 -147.40234375 274.25 C-148.01964355 273.71213867 -148.63694336 273.17427734 -149.27294922 272.62011719 C-152.45739999 269.84911496 -155.65018352 267.08798949 -158.84765625 264.33203125 C-161.89963429 261.69549295 -164.91080302 259.01761662 -167.90234375 256.3125 C-174.02405942 249.74349998 -174.02405942 249.74349998 -181.40234375 246.25 Z M117.16015625 251.625 C116.53197998 252.16938721 115.90380371 252.71377441 115.2565918 253.2746582 C110.51165364 257.40322992 105.87117689 261.63703076 101.23828125 265.890625 C98.60636821 268.24221594 95.90826116 270.47331262 93.16015625 272.6875 C92.26941406 273.41839844 91.37867188 274.14929688 90.4609375 274.90234375 C88.95906708 276.13375456 87.4549719 277.36275115 85.93115234 278.56689453 C84.21230696 279.93410271 82.52932159 281.33744069 80.84765625 282.75 C80.30955322 283.16435303 79.7714502 283.57870605 79.21704102 284.00561523 C77.46675695 285.41568179 77.46675695 285.41568179 75.59765625 288.25 C75.33114206 294.70527181 77.47279348 301.34991643 79.1015625 307.53515625 C79.34430405 308.47685165 79.58704559 309.41854706 79.83714294 310.38877869 C80.60570047 313.36488487 81.38277564 316.33868771 82.16015625 319.3125 C82.68611383 321.34295218 83.21150997 323.37354988 83.73632812 325.40429688 C85.01695416 330.35457027 86.30521837 335.30279796 87.59765625 340.25 C91.41275053 340.6725157 91.41275053 340.6725157 93.1328125 338.9921875 C93.63683594 338.37601562 94.14085937 337.75984375 94.66015625 337.125 C95.5728125 336.01318359 95.5728125 336.01318359 96.50390625 334.87890625 C97.19484375 334.01136719 97.88578125 333.14382813 98.59765625 332.25 C99.39171875 331.28964844 100.18578125 330.32929688 101.00390625 329.33984375 C109.30141972 319.18114758 116.60169637 308.33558628 123.59765625 297.25 C123.99484863 296.62254883 124.39204102 295.99509766 124.80126953 295.34863281 C129.61480401 287.53903638 130.40157003 281.28935608 129.59765625 272.25 C129.50339355 271.04754639 129.50339355 271.04754639 129.40722656 269.82080078 C128.6478812 257.8105138 128.6478812 257.8105138 125.59765625 246.25 C122.07592261 246.25 119.70834564 249.39006002 117.16015625 251.625 Z M-250.40234375 289.25 C-252.03681413 292.51894076 -252.18640865 295.6921206 -251.40234375 299.25 C-248.64525358 301.92599928 -247.09729442 302.25 -243.27734375 302.25 C-240.29068169 301.45965495 -240.29068169 301.45965495 -238.40234375 299.125 C-237.04732441 295.2293194 -237.94852731 293.02992275 -239.40234375 289.25 C-240.62475305 287.80755249 -240.62475305 287.80755249 -244.27734375 288 C-246.76429429 288.05348281 -248.16114328 288.12939977 -250.40234375 289.25 Z M-185.40234375 304.25 C-185.94219098 332.88128218 -183.8377202 359.43498183 -176.40234375 387.25 C-171.97555058 388.26288216 -168.59375249 388.02807429 -164.08984375 387.3125 C-162.83558594 387.11785156 -161.58132812 386.92320312 -160.2890625 386.72265625 C-159.33644531 386.56667969 -158.38382813 386.41070312 -157.40234375 386.25 C-154.75608246 379.64231743 -152.88848009 372.96069219 -151.15234375 366.0625 C-150.87132812 364.99580078 -150.5903125 363.92910156 -150.30078125 362.83007812 C-150.04039062 361.79947266 -149.78 360.76886719 -149.51171875 359.70703125 C-149.27420898 358.77866455 -149.03669922 357.85029785 -148.79199219 356.89379883 C-148.36704565 354.01049929 -148.58494287 352.0362295 -149.40234375 349.25 C-151.04965697 347.048355 -151.04965697 347.048355 -153.21484375 344.9375 C-158.09671031 339.76523302 -162.26751263 334.20505669 -166.4152832 328.43237305 C-166.90472412 327.76117432 -167.39416504 327.08997559 -167.8984375 326.3984375 C-168.33341553 325.79177246 -168.76839355 325.18510742 -169.21655273 324.56005859 C-169.60786377 324.12773926 -169.9991748 323.69541992 -170.40234375 323.25 C-171.06234375 323.25 -171.72234375 323.25 -172.40234375 323.25 C-172.65113281 322.72664063 -172.89992188 322.20328125 -173.15625 321.6640625 C-174.75332809 318.5700366 -176.53141774 315.59811873 -178.33984375 312.625 C-178.68724609 312.03976562 -179.03464844 311.45453125 -179.39257812 310.8515625 C-181.20698635 307.87196934 -182.45045996 306.21792253 -185.40234375 304.25 Z M128.59765625 305.25 C124.7376267 309.51634845 121.33036085 313.97583747 118.03515625 318.6875 C114.1977512 324.15648758 110.14212475 329.39333555 105.91015625 334.5625 C105.08124878 335.58355835 105.08124878 335.58355835 104.2355957 336.62524414 C101.93718784 339.44606448 99.62786174 342.21676909 97.1796875 344.91015625 C93.74862522 348.66387287 93.74862522 348.66387287 92.46118164 353.41845703 C93.31588714 360.15902333 94.70909705 366.67369669 96.41015625 373.25 C96.65830078 374.28511719 96.90644531 375.32023437 97.16210938 376.38671875 C97.54206055 377.86591797 97.54206055 377.86591797 97.9296875 379.375 C98.26577026 380.70917969 98.26577026 380.70917969 98.60864258 382.0703125 C99.42273237 384.37011584 99.42273237 384.37011584 101.47241211 385.51513672 C104.68983951 386.62765326 107.98309105 386.98702556 111.34765625 387.375 C112.39373047 387.50455078 112.39373047 387.50455078 113.4609375 387.63671875 C115.17237957 387.84771846 116.88492254 388.04975501 118.59765625 388.25 C126.67984108 366.32492414 129.46675912 343.17032579 130.41015625 319.9375 C130.46324951 318.70854004 130.51634277 317.47958008 130.57104492 316.21337891 C130.624823 314.50480713 130.624823 314.50480713 130.6796875 312.76171875 C130.71296143 311.74553467 130.74623535 310.72935059 130.78051758 309.68237305 C130.84978348 307.06738882 130.84978348 307.06738882 128.59765625 305.25 Z M172.59765625 348.25 C171.56878338 351.47380166 171.28334882 353.35543271 172.41015625 356.5625 C173.5045295 358.40097822 173.5045295 358.40097822 175.59765625 359.25 C179.01337478 359.75031206 179.01337478 359.75031206 182.59765625 359.25 C185.23691983 357.20118716 185.23691983 357.20118716 186.59765625 354.25 C186.42848782 350.69746291 185.59813392 349.2507165 183.59765625 346.25 C178.95673992 344.80615937 176.28466724 344.9843617 172.59765625 348.25 Z M-39.46484375 367.375 C-40.32956299 367.91398926 -41.19428223 368.45297852 -42.08520508 369.00830078 C-43.92143005 370.15431119 -45.75328551 371.30734793 -47.58105469 372.46679688 C-50.39581276 374.24587207 -53.2272265 375.99458057 -56.06640625 377.734375 C-64.27475261 382.77058298 -72.42186207 387.85768536 -80.40234375 393.25 C-78.45490348 397.75252934 -75.29675815 399.59548761 -71.21484375 402.0625 C-70.49796387 402.50118408 -69.78108398 402.93986816 -69.04248047 403.3918457 C-62.06163078 407.58480387 -54.89446326 411.07887508 -47.40234375 414.25 C-46.6453418 414.57693848 -45.88833984 414.90387695 -45.10839844 415.24072266 C-42.71502829 416.26610511 -40.31155933 417.26248311 -37.90234375 418.25 C-37.16064941 418.56541748 -36.41895508 418.88083496 -35.65478516 419.20581055 C-29.30020696 421.72766249 -24.6782694 421.2699295 -18.34375 418.68359375 C-16.87941823 418.0286296 -15.41993332 417.36274803 -13.96484375 416.6875 C-13.18351074 416.33107422 -12.40217773 415.97464844 -11.59716797 415.60742188 C-9.19227901 414.50188213 -6.79616882 413.37927496 -4.40234375 412.25 C-3.6767627 411.90984863 -2.95118164 411.56969727 -2.20361328 411.21923828 C11.38205882 404.84607604 11.38205882 404.84607604 23.59765625 396.25 C23.59765625 395.26 23.59765625 394.27 23.59765625 393.25 C17.52828326 387.88885667 9.96001178 383.97768879 2.97265625 379.9375 C-7.93347056 373.58667616 -7.93347056 373.58667616 -13.17578125 370.22265625 C-13.89556152 369.76093018 -14.6153418 369.2992041 -15.35693359 368.82348633 C-16.67799842 367.96868895 -17.99386519 367.10577899 -19.30322266 366.2331543 C-27.7068513 360.80030829 -31.5862447 362.29258119 -39.46484375 367.375 Z M-100.34008789 404.50805664 C-103.5247043 406.51054834 -106.64188139 408.41417841 -110.05859375 409.99609375 C-113.59144328 411.81719357 -115.89445816 413.14934145 -118.40234375 416.25 C-119.86615008 422.1493325 -119.22635322 428.29606693 -118.40234375 434.25 C-116.30131648 436.35102727 -111.89168164 435.42097907 -109.08740234 435.44067383 C-87.21088141 435.42082218 -62.8754106 434.90490839 -42.40234375 426.25 C-42.40234375 425.59 -42.40234375 424.93 -42.40234375 424.25 C-43.36011719 423.77691406 -44.31789063 423.30382812 -45.3046875 422.81640625 C-59.13537103 415.95989977 -72.90333022 409.09935942 -85.86328125 400.68359375 C-91.4704442 397.51770328 -95.54431786 401.49174968 -100.34008789 404.50805664 Z M27.33203125 402.55859375 C26.13259888 403.3021814 26.13259888 403.3021814 24.90893555 404.06079102 C24.06371338 404.59760498 23.21849121 405.13441895 22.34765625 405.6875 C15.75560366 409.76103649 9.1443057 413.70383722 2.28515625 417.3125 C1.61129883 417.66948975 0.93744141 418.02647949 0.24316406 418.39428711 C-3.89634714 420.55491256 -8.08993232 422.4592056 -12.40234375 424.25 C-12.40234375 424.91 -12.40234375 425.57 -12.40234375 426.25 C10.85143968 434.3307972 37.15800104 436.59303479 61.59765625 434.25 C63.65282528 424.22896944 63.65282528 424.22896944 61 414.9140625 C58.30296459 413.06801155 55.5316273 411.69270917 52.59765625 410.25 C51.23494214 409.39247073 49.88398339 408.51608132 48.54296875 407.625 C47.12372332 406.68746154 45.70445249 405.74996153 44.28515625 404.8125 C43.2633728 404.13682983 43.2633728 404.13682983 42.22094727 403.44750977 C41.56537842 403.03299561 40.90980957 402.61848145 40.234375 402.19140625 C39.36365356 401.62981812 39.36365356 401.62981812 38.4753418 401.05688477 C34.21197153 399.22481628 31.10248556 400.1711863 27.33203125 402.55859375 Z M-174.33984375 418 C-176.47510045 424.53137343 -177.2272684 430.0303097 -174.421875 436.4609375 C-172.03793108 440.64425672 -168.80583753 443.43306293 -164.40234375 445.25 C-157.93292342 446.20433996 -152.41951867 445.77538865 -147.0625 441.859375 C-142.96380561 437.88605243 -141.21461939 433.40999591 -140.90234375 427.75 C-141.21461939 422.09000409 -142.96380561 417.61394757 -147.0625 413.640625 C-151.69580939 410.25364729 -156.03375893 409.48157076 -161.71484375 409.765625 C-167.3469354 410.78071129 -171.07256717 413.36257518 -174.33984375 418 Z M88.78515625 416.25 C84.72981777 421.81160706 84.96174547 427.58176895 85.59765625 434.25 C87.75703263 438.72870656 90.52718564 441.43198188 94.59765625 444.25 C99.71674999 445.95636458 105.48509781 446.15831166 110.69921875 444.63671875 C115.55977732 442.20643946 118.70436568 438.30718947 120.59765625 433.25 C121.51818112 427.06933304 121.31942751 421.46047977 117.59765625 416.25 C113.15204352 411.89922701 110.06496767 410.09279569 103.84765625 410 C97.23496447 410.07900468 93.21042738 411.22469211 88.78515625 416.25 Z " fill="#4C90C7" transform="translate(302.40234375,34.75)"/>
<path d="M0 0 C2.475 0.495 2.475 0.495 5 1 C5.06058594 1.70125 5.12117188 2.4025 5.18359375 3.125 C5.26738281 4.07375 5.35117187 5.0225 5.4375 6 C5.51871094 6.928125 5.59992188 7.85625 5.68359375 8.8125 C5.90189741 11.01170721 6.18191442 13.20535661 6.51171875 15.390625 C8.93352056 34.72851847 7.47805172 55.03015653 4.8125 74.25 C4.71434998 74.98569214 4.61619995 75.72138428 4.51507568 76.47937012 C3.25710669 85.70137192 1.20537004 94.17406301 -2.00512695 102.91699219 C-3.20473458 106.09452545 -3.20473458 106.09452545 -3 110 C-2.4225 110.20625 -1.845 110.4125 -1.25 110.625 C2.66850794 113.01964374 4.57583774 116.72751322 6 121 C6.75993427 127.71999016 6.46291684 132.79967297 2.41796875 138.3515625 C-2.09664425 143.59995558 -7.51691877 146.6200275 -14.4375 147.375 C-21.81033173 146.59891245 -26.56652321 144.25000532 -31.58984375 138.74609375 C-35.15320983 134.33383713 -35.45237433 130.08473886 -35.3046875 124.5546875 C-34.48625272 117.69242668 -30.73423545 112.86324712 -25.4609375 108.58325195 C-22.73067803 106.82673085 -20.36440005 106.08327989 -17.22265625 105.30078125 C-16.24176025 105.05110596 -15.26086426 104.80143066 -14.25024414 104.54418945 C-13.50766357 104.36460693 -12.76508301 104.18502441 -12 104 C-3.60735105 72.81159714 0.02610382 41.40758733 -3.98535156 9.13696289 C-3.99018555 8.43176514 -3.99501953 7.72656738 -4 7 C-3.34 6.34 -2.68 5.68 -2 5 C-1.29289322 3.35008418 -0.62056011 1.68437744 0 0 Z M-21 122 C-22.02887287 125.22380166 -22.31430743 127.10543271 -21.1875 130.3125 C-20.09312675 132.15097822 -20.09312675 132.15097822 -18 133 C-14.58428147 133.50031206 -14.58428147 133.50031206 -11 133 C-8.36073642 130.95118716 -8.36073642 130.95118716 -7 128 C-7.16916843 124.44746291 -7.99952233 123.0007165 -10 120 C-14.64091633 118.55615937 -17.31298901 118.7343617 -21 122 Z " fill="#658ACA" transform="translate(496,261)"/>
<path d="M0 0 C3.91010659 4.38964797 5.8018368 8.31714344 6.4375 14.25 C5.65746795 21.53029913 2.2477662 26.79519008 -2.9375 31.75 C-8.32390044 35.72567651 -14.50405031 35.42766843 -20.9375 34.75 C-25.85416667 32.83333333 -25.85416667 32.83333333 -27.9375 30.75 C-31.0869929 30.35902847 -32.57494889 30.52430593 -35.296875 32.21875 C-36.08578125 32.8890625 -36.8746875 33.559375 -37.6875 34.25 C-38.55503906 34.9821875 -39.42257813 35.714375 -40.31640625 36.46875 C-41.18136719 37.2215625 -42.04632813 37.974375 -42.9375 38.75 C-43.73027344 39.4203125 -44.52304688 40.090625 -45.33984375 40.78125 C-50.34529442 45.09363827 -54.76317535 49.63498247 -58.9375 54.75 C-59.34758301 55.24773926 -59.75766602 55.74547852 -60.18017578 56.25830078 C-66.83043864 64.36563024 -72.68711634 72.65002674 -77.9375 81.75 C-78.50645996 82.72187256 -78.50645996 82.72187256 -79.08691406 83.71337891 C-83.64209396 91.50454972 -87.9912257 99.17902021 -90.9375 107.75 C-89.9475 108.08 -88.9575 108.41 -87.9375 108.75 C-90.9375 110.75 -90.9375 110.75 -93.9375 110.4375 C-96.9375 109.75 -96.9375 109.75 -99.9375 108.75 C-100.75585938 106.91064453 -100.75585938 106.91064453 -100.9375 104.75 C-100.13476563 102.99169922 -100.13476563 102.99169922 -98.84375 101.1796875 C-96.75111208 98.05946636 -94.95163957 94.93696051 -93.28125 91.5703125 C-84.7103784 74.36528227 -74.86214509 59.29845339 -61.5078125 45.44140625 C-59.51041892 43.34991054 -57.67410347 41.25658978 -55.875 39 C-51.25722328 33.48890337 -45.15338954 28.85026494 -39.15625 24.93359375 C-36.08711247 21.91308692 -36.24458317 19.73944166 -36 15.5 C-35.38191621 8.79467844 -34.04386579 4.31529392 -28.9375 -0.25 C-19.86735743 -7.55394848 -8.82731159 -8.28610221 0 0 Z M-21 10.3125 C-22.33024773 13.7711441 -21.79357025 16.1940159 -20.9375 19.75 C-19.00582602 22.09813734 -19.00582602 22.09813734 -15.5625 22.125 C-11.95721972 22.03667912 -11.95721972 22.03667912 -9.5 20.125 C-7.48935229 17.06881548 -7.40229687 15.34350675 -7.9375 11.75 C-8.80879307 9.71117905 -8.80879307 9.71117905 -10.9375 8.75 C-14.77687731 8.10210508 -17.82638712 7.90824782 -21 10.3125 Z " fill="#5CBECE" transform="translate(173.9375,79.25)"/>
<path d="M0 0 C6.35955052 2.67770548 10.31174892 6.56535646 13 13 C13.8383805 18.35326567 13.56437714 23.13050074 12 28.3125 C8.28794302 33.30057657 3.24462752 38.59495881 -3 40 C-10.51849867 40.60633054 -15.78177784 38.95457053 -21.75 34.1875 C-25.33001653 30.90514776 -27.62223485 27.85718145 -28.27734375 22.90234375 C-28.58063023 15.82970301 -26.95568512 9.87253355 -22.25 4.5 C-19.68968542 2.13027955 -19.14983618 2.00788611 -15.4375 1.8125 C-14.303125 1.874375 -13.16875 1.93625 -12 2 C-11.175 1.484375 -10.35 0.96875 -9.5 0.4375 C-5.92108898 -1.62037384 -3.94316013 -1.01978279 0 0 Z M-13 14 C-14.63447038 17.26894076 -14.7840649 20.4421206 -14 24 C-11.24290983 26.67599928 -9.69495067 27 -5.875 27 C-2.88833794 26.20965495 -2.88833794 26.20965495 -1 23.875 C0.35501934 19.9793194 -0.54618356 17.77992275 -2 14 C-3.2224093 12.55755249 -3.2224093 12.55755249 -6.875 12.75 C-9.36195054 12.80348281 -10.75879953 12.87939977 -13 14 Z " fill="#5F7BC6" transform="translate(65,310)"/>
<path d="M0 0 C0.804375 0.4640625 0.804375 0.4640625 1.625 0.9375 C4.3984957 2.17827439 7.00042837 2.5909675 10 3 C10 4.65 10 6.3 10 8 C9.34 8 8.68 8 8 8 C7.24549139 14.07228525 6.80930585 20.00756485 6.8125 26.125 C6.80968018 26.94033203 6.80686035 27.75566406 6.80395508 28.59570312 C6.84732754 35.24010557 7.64269865 41.56890504 8.85546875 48.09375 C9 51 9 51 7.70703125 52.85546875 C5.45199766 54.36742491 3.7015234 54.79738574 1 55 C0.01 54.34 -0.98 53.68 -2 53 C-2.39872742 50.86129761 -2.39872742 50.86129761 -2.43237305 48.18310547 C-2.45216721 47.18221893 -2.47196136 46.1813324 -2.49235535 45.15011597 C-2.49874527 44.06674957 -2.50513519 42.98338318 -2.51171875 41.8671875 C-2.52966995 40.76021515 -2.54762115 39.6532428 -2.56611633 38.51272583 C-2.62042605 34.96685632 -2.65418169 31.42112297 -2.6875 27.875 C-2.72065477 25.47524138 -2.75514268 23.07550078 -2.79101562 20.67578125 C-2.87616422 14.78397627 -2.94442624 8.8921541 -3 3 C-2.01 2.67 -1.02 2.34 0 2 C0 1.34 0 0.68 0 0 Z " fill="#6F9BCF" transform="translate(50,258)"/>
<path d="M0 0 C0.99 1.32 1.98 2.64 3 4 C3.99 3.67 4.98 3.34 6 3 C8.27734375 4.15234375 8.27734375 4.15234375 10.9375 5.9375 C12.40896484 6.91976562 12.40896484 6.91976562 13.91015625 7.921875 C14.92980469 8.60765625 15.94945312 9.2934375 17 10 C18.45212891 10.90492187 18.45212891 10.90492187 19.93359375 11.828125 C28.16832249 17.0336109 35.04487297 23.23807094 42 30 C42.76957031 30.72703125 43.53914063 31.4540625 44.33203125 32.203125 C46.41088911 34.44264401 46.6255227 36.00418162 47 39 C47.32193044 40.33613236 47.6534234 41.67004754 48 43 C46.8274869 42.04882866 45.66212985 41.08882991 44.5 40.125 C43.8503125 39.59132812 43.200625 39.05765625 42.53125 38.5078125 C42.0259375 38.01023438 41.520625 37.51265625 41 37 C41 36.34 41 35.68 41 35 C40.26652344 35.24363281 39.53304687 35.48726562 38.77734375 35.73828125 C36 36 36 36 33.81640625 34.48046875 C33.07261719 33.72378906 32.32882812 32.96710938 31.5625 32.1875 C17.83688984 18.89262623 17.83688984 18.89262623 1 12 C-0.63676257 13.9600281 -0.63676257 13.9600281 -2 16 C-1.979375 15.05125 -1.95875 14.1025 -1.9375 13.125 C-1.77448174 10.09333717 -1.77448174 10.09333717 -3 8 C-2.34 7.01 -1.68 6.02 -1 5 C-0.61500109 3.34450469 -0.27206865 1.6777567 0 0 Z " fill="#60CBC9" transform="translate(311,73)"/>
<path d="M0 0 C0.66 0.66 1.32 1.32 2 2 C1.01 3.485 1.01 3.485 0 5 C-2.609375 5.40625 -2.609375 5.40625 -5.75 5.5 C-12.01882341 5.88992681 -15.93355485 6.76600524 -20.3125 11.5 C-22.80736631 15.19609823 -23.20350461 18.32827024 -23.5625 22.6875 C-23.64628906 23.68136719 -23.73007812 24.67523438 -23.81640625 25.69921875 C-23.87699219 26.45847656 -23.93757813 27.21773438 -24 28 C-25.9375 28.5625 -25.9375 28.5625 -28 29 C-29.68997013 27.31002987 -29.25202754 25.25136714 -29.3125 22.9375 C-29.22890526 16.48398635 -27.83164756 12.01676738 -23.38671875 7.28125 C-16.21047452 0.7892153 -9.6710981 -1.11478227 0 0 Z " fill="#5D71C3" transform="translate(412,440)"/>
<path d="M0 0 C0.495 1.485 0.495 1.485 1 3 C1.99 3.33 2.98 3.66 4 4 C1.50935112 4.68707555 -0.37886292 5 -3 5 C-3.433125 6.2065625 -3.433125 6.2065625 -3.875 7.4375 C-5 10 -5 10 -7 11 C-7 10.34 -7 9.68 -7 9 C-7.79921875 9.02320313 -8.5984375 9.04640625 -9.421875 9.0703125 C-17.17836874 9.19776662 -24.39876473 8.53394297 -32 7 C-32.66 7.99 -33.32 8.98 -34 10 C-35.125 3.25 -35.125 3.25 -34 1 C-33.319375 1.14308594 -32.63875 1.28617187 -31.9375 1.43359375 C-28.63491782 2.07039483 -25.32838283 2.57830638 -22 3.0625 C-20.205625 3.32740234 -20.205625 3.32740234 -18.375 3.59765625 C-15.53314965 3.93644165 -12.85534174 4.08111766 -10 4 C-10 4.66 -10 5.32 -10 6 C-9.4740625 5.3503125 -9.4740625 5.3503125 -8.9375 4.6875 C-6.21514365 2.31641544 -3.35241784 1.3283165 0 0 Z " fill="#4F9FC9" transform="translate(499,257)"/>
<path d="M0 0 C0.66 0.33 1.32 0.66 2 1 C2 8.33333333 2 15.66666667 2 23 C9.26 23.33 16.52 23.66 24 24 C24 24.33 24 24.66 24 25 C23.06933716 25.02187378 23.06933716 25.02187378 22.11987305 25.04418945 C19.30845367 25.11866588 16.49822251 25.21532564 13.6875 25.3125 C12.71103516 25.33505859 11.73457031 25.35761719 10.72851562 25.38085938 C9.32182617 25.4340332 9.32182617 25.4340332 7.88671875 25.48828125 C6.59060669 25.52755737 6.59060669 25.52755737 5.26831055 25.56762695 C2.90405856 25.79402401 2.90405856 25.79402401 1.44458008 27.59448242 C0.72951294 28.29021362 0.72951294 28.29021362 0 29 C-2.1875 28.6875 -2.1875 28.6875 -4 28 C-3.91928281 23.89501791 -3.80642513 19.79153891 -3.6875 15.6875 C-3.66494141 14.52025391 -3.64238281 13.35300781 -3.61914062 12.15039062 C-3.58369141 11.03212891 -3.54824219 9.91386719 -3.51171875 8.76171875 C-3.48553467 7.73006592 -3.45935059 6.69841309 -3.43237305 5.63549805 C-2.95128965 2.70308967 -2.30866329 1.79264077 0 0 Z " fill="#6171C3" transform="translate(183,446)"/>
<path d="M0 0 C1.43859375 -0.00386719 1.43859375 -0.00386719 2.90625 -0.0078125 C3.91171875 -0.00007813 4.9171875 0.00765625 5.953125 0.015625 C6.943125 0.00789063 7.933125 0.00015625 8.953125 -0.0078125 C14.96478896 0.00826147 19.75408678 0.54110589 25.203125 3.265625 C24.543125 4.585625 23.883125 5.905625 23.203125 7.265625 C22.0275 6.935625 20.851875 6.605625 19.640625 6.265625 C11.49564843 4.43980354 2.33605333 4.32551805 -5.796875 6.265625 C-6.421875 4.390625 -6.421875 4.390625 -6.796875 2.265625 C-4.29099257 -0.24025743 -3.4606264 0.00894219 0 0 Z " fill="#549CCE" transform="translate(238.796875,263.734375)"/>
<path d="M0 0 C0.33 1.65 0.66 3.3 1 5 C-1.70879335 6.35439668 -4.00933268 6.06501451 -7 6 C-7.2475 6.598125 -7.495 7.19625 -7.75 7.8125 C-9.16370012 10.28647521 -10.65055383 11.43370255 -13 13 C-13 12.34 -13 11.68 -13 11 C-13.66 10.67 -14.32 10.34 -15 10 C-14.67 9.01 -14.34 8.02 -14 7 C-13.38125 6.87625 -12.7625 6.7525 -12.125 6.625 C-9.03087944 5.71496454 -8.50520656 3.73673921 -7 1 C-4.53721199 -0.231394 -2.7204945 -0.07159196 0 0 Z " fill="#6DA7CE" transform="translate(96,252)"/>
<path d="M0 0 C5.70985379 3.65119902 10.94464135 7.48244546 16 12 C15.67 13.32 15.34 14.64 15 16 C14.05125 15.154375 13.1025 14.30875 12.125 13.4375 C7.66627528 9.60134875 2.85894313 6.30447239 -2 3 C-1.34 2.67 -0.68 2.34 0 2 C0 1.34 0 0.68 0 0 Z " fill="#6DCECE" transform="translate(333,93)"/>
<path d="M0 0 C1.32 0.66 2.64 1.32 4 2 C3.34 3.32 2.68 4.64 2 6 C1.01 5.67 0.02 5.34 -1 5 C-0.67 6.98 -0.34 8.96 0 11 C-0.99 11.33 -1.98 11.66 -3 12 C-3.66 12.66 -4.32 13.32 -5 14 C-5 13.34 -5 12.68 -5 12 C-5.66 12 -6.32 12 -7 12 C-6.6257368 6.63556087 -5.0040457 4.50353999 -1 1 C-0.67 0.67 -0.34 0.34 0 0 Z " fill="#5FA7CE" transform="translate(433,269)"/>
<path d="M0 0 C1.32 0.66 2.64 1.32 4 2 C4 2.66 4 3.32 4 4 C4.99 4.33 5.98 4.66 7 5 C6.1875 7.4375 6.1875 7.4375 5 10 C4.01 10.33 3.02 10.66 2 11 C1.67 9.68 1.34 8.36 1 7 C-0.32 7 -1.64 7 -3 7 C-3.1875 4.625 -3.1875 4.625 -3 2 C-2.01 1.34 -1.02 0.68 0 0 Z " fill="#5DA7C9" transform="translate(456,251)"/>
<path d="M0 0 C1.65 0 3.3 0 5 0 C5.75 1.625 5.75 1.625 6 4 C4.3125 7.25 4.3125 7.25 2 10 C0.68 10 -0.64 10 -2 10 C-2 8.68 -2 7.36 -2 6 C-3.65 6 -5.3 6 -7 6 C-7 5.67 -7 5.34 -7 5 C-4.69 5 -2.38 5 0 5 C0 3.35 0 1.7 0 0 Z " fill="#5FB4CD" transform="translate(446,201)"/>
<path d="M0 0 C2 1 2 1 4 4 C3.01 5.32 2.02 6.64 1 8 C0.278125 7.7525 -0.44375 7.505 -1.1875 7.25 C-4.1794348 6.68262931 -4.1794348 6.68262931 -6.8125 8.9375 C-7.534375 9.618125 -8.25625 10.29875 -9 11 C-9.33 9.35 -9.66 7.7 -10 6 C-9.278125 5.938125 -8.55625 5.87625 -7.8125 5.8125 C-4.15342375 4.75543353 -2.50788398 2.79449929 0 0 Z " fill="#657AC4" transform="translate(219,424)"/>
<path d="M0 0 C0.625 1.8125 0.625 1.8125 1 4 C0.01 5.485 0.01 5.485 -1 7 C-1.66 7 -2.32 7 -3 7 C-3.14308594 7.84498047 -3.14308594 7.84498047 -3.2890625 8.70703125 C-4.16849337 11.5434374 -5.54666372 13.35386403 -7.375 15.6875 C-7.98085938 16.47511719 -8.58671875 17.26273437 -9.2109375 18.07421875 C-11 20 -11 20 -14 21 C-14 21.66 -14 22.32 -14 23 C-14.66 23 -15.32 23 -16 23 C-15.505 21.515 -15.505 21.515 -15 20 C-14.34 20 -13.68 20 -13 20 C-12.67 19.01 -12.34 18.02 -12 17 C-11.34 17 -10.68 17 -10 17 C-9.8453125 16.1646875 -9.8453125 16.1646875 -9.6875 15.3125 C-8.85821592 12.5230899 -7.65700944 10.3860936 -6 8 C-5.34 8 -4.68 8 -4 8 C-4 7.34 -4 6.68 -4 6 C-2 4 -2 4 0 3 C0 2.01 0 1.02 0 0 Z " fill="#5887CB" transform="translate(353,313)"/>
<path d="M0 0 C0.33 0.99 0.66 1.98 1 3 C1.99 3.33 2.98 3.66 4 4 C1.50935112 4.68707555 -0.37886292 5 -3 5 C-3.433125 6.2065625 -3.433125 6.2065625 -3.875 7.4375 C-5 10 -5 10 -7 11 C-7 10.34 -7 9.68 -7 9 C-7.66 9 -8.32 9 -9 9 C-9 7.35 -9 5.7 -9 4 C-6.03 2.68 -3.06 1.36 0 0 Z " fill="#57A3C8" transform="translate(499,257)"/>
<path d="M0 0 C-0.33 1.65 -0.66 3.3 -1 5 C-2.60568666 4.71682074 -4.20952047 4.42312209 -5.8125 4.125 C-6.70582031 3.96257812 -7.59914063 3.80015625 -8.51953125 3.6328125 C-11 3 -11 3 -14 1 C-9.19953017 -3.0262005 -5.52809507 -1.67408544 0 0 Z " fill="#62BECD" transform="translate(369,158)"/>
<path d="M0 0 C1.9375 0.3125 1.9375 0.3125 4 1 C4.33 1.99 4.66 2.98 5 4 C7.00016466 5.20882096 7.00016466 5.20882096 9 6 C9 8.31 9 10.62 9 13 C8.67 13 8.34 13 8 13 C8 11.02 8 9.04 8 7 C6.02 7.99 6.02 7.99 4 9 C-0.875 4.25 -0.875 4.25 -2 2 C-1.34 2 -0.68 2 0 2 C0 1.34 0 0.68 0 0 Z " fill="#598CC9" transform="translate(164,314)"/>
<path d="M0 0 C0.33 1.32 0.66 2.64 1 4 C1.55268555 3.67402832 2.10537109 3.34805664 2.67480469 3.01220703 C5.378593 1.83519041 7.26349406 1.77050574 10.203125 1.8046875 C11.1828125 1.81113281 12.1625 1.81757813 13.171875 1.82421875 C14.18765625 1.84097656 15.2034375 1.85773438 16.25 1.875 C17.28125 1.88402344 18.3125 1.89304687 19.375 1.90234375 C21.91690287 1.92587989 24.4583328 1.95875977 27 2 C27 2.33 27 2.66 27 3 C26.37955811 3.01458252 25.75911621 3.02916504 25.11987305 3.04418945 C22.30845367 3.11866588 19.49822251 3.21532564 16.6875 3.3125 C15.71103516 3.33505859 14.73457031 3.35761719 13.72851562 3.38085938 C12.79072266 3.41630859 11.85292969 3.45175781 10.88671875 3.48828125 C9.59060669 3.52755737 9.59060669 3.52755737 8.26831055 3.56762695 C5.57040562 4.08188695 4.8158664 5.02429207 3 7 C0.8125 6.6875 0.8125 6.6875 -1 6 C-0.67 4.02 -0.34 2.04 0 0 Z " fill="#5A68BE" transform="translate(180,468)"/>
<path d="M0 0 C0.45375 0.639375 0.9075 1.27875 1.375 1.9375 C2.83921726 4.09702406 2.83921726 4.09702406 5 5 C3.02 8.63 1.04 12.26 -1 16 C-1.90650749 13.28047752 -2.64484971 10.84120234 -3 8 C-2.34 7.01 -1.68 6.02 -1 5 C-0.61500109 3.34450469 -0.27206865 1.6777567 0 0 Z " fill="#58CEC3" transform="translate(311,73)"/>
<path d="M0 0 C1.65 0.33 3.3 0.66 5 1 C5.33 2.65 5.66 4.3 6 6 C2 6 2 6 -1 4 C-2.65549531 3.61500109 -4.3222433 3.27206865 -6 3 C-6 2.67 -6 2.34 -6 2 C-4.02 2 -2.04 2 0 2 C0 1.34 0 0.68 0 0 Z " fill="#56B1C9" transform="translate(408,202)"/>
<path d="M0 0 C0.33 0.99 0.66 1.98 1 3 C2.33076989 3.34342449 3.66431979 3.67619874 5 4 C5.99 5.485 5.99 5.485 7 7 C5.68 8.32 4.36 9.64 3 11 C3 10.34 3 9.68 3 9 C2.01 9 1.02 9 0 9 C0 6.03 0 3.06 0 0 Z " fill="#69A0CE" transform="translate(117,271)"/>
<path d="M0 0 C-5.49687876 2.96656949 -11.74410231 4.4036063 -18 4 C-18 3.34 -18 2.68 -18 2 C-14.83190802 1.17614629 -11.65146308 0.49592892 -8.4375 -0.125 C-7.48746094 -0.31320313 -6.53742188 -0.50140625 -5.55859375 -0.6953125 C-3 -1 -3 -1 0 0 Z " fill="#52A5C8" transform="translate(236,225)"/>
<path d="M0 0 C1 2 1 2 0.1875 4.75 C-0.204375 5.8225 -0.59625 6.895 -1 8 C-1.37125 9.11375 -1.7425 10.2275 -2.125 11.375 C-2.41375 12.24125 -2.7025 13.1075 -3 14 C-3.33 14 -3.66 14 -4 14 C-4 11.36 -4 8.72 -4 6 C-4.66 5.67 -5.32 5.34 -6 5 C-5.34 5 -4.68 5 -4 5 C-3.67 4.01 -3.34 3.02 -3 2 C-2.01 1.34 -1.02 0.68 0 0 Z " fill="#72A3D0" transform="translate(436,327)"/>
<path d="M0 0 C2.72178647 2.37083979 3.88769607 4.6533784 5.1875 8 C5.53167969 8.86625 5.87585938 9.7325 6.23046875 10.625 C7 13 7 13 7 16 C4.49546085 13.75380873 3.16425844 11.63373662 1.8125 8.5625 C1.46832031 7.80066406 1.12414062 7.03882813 0.76953125 6.25390625 C0 4 0 4 0 0 Z " fill="#6091CE" transform="translate(186,293)"/>
<path d="M0 0 C1.65 0 3.3 0 5 0 C4.8125 2.375 4.8125 2.375 4 5 C1.4375 6.3125 1.4375 6.3125 -1 7 C-1 6.01 -1 5.02 -1 4 C-1.99 3.67 -2.98 3.34 -4 3 C-3.01 2.67 -2.02 2.34 -1 2 C-0.67 1.34 -0.34 0.68 0 0 Z " fill="#59B9CC" transform="translate(230,148)"/>
<path d="M0 0 C3.875 0.875 3.875 0.875 5 2 C5.04080783 3.99958364 5.04254356 6.00045254 5 8 C3.68 8 2.36 8 1 8 C0.67 5.36 0.34 2.72 0 0 Z " fill="#56AAD7" transform="translate(272,244)"/>
<path d="M0 0 C0.99 0.33 1.98 0.66 3 1 C3 1.66 3 2.32 3 3 C2.01 3.33 1.02 3.66 0 4 C-1.20882096 6.00016466 -1.20882096 6.00016466 -2 8 C-3.32 8 -4.64 8 -6 8 C-6 6.35 -6 4.7 -6 3 C-5.195625 2.87625 -4.39125 2.7525 -3.5625 2.625 C-2.716875 2.41875 -1.87125 2.2125 -1 2 C-0.67 1.34 -0.34 0.68 0 0 Z " fill="#65C0D1" transform="translate(161,158)"/>
<path d="M0 0 C0.804375 0.4640625 0.804375 0.4640625 1.625 0.9375 C4.3984957 2.17827439 7.00042837 2.5909675 10 3 C10 4.65 10 6.3 10 8 C9.34 6.68 8.68 5.36 8 4 C6.02 4.66 4.04 5.32 2 6 C2 5.01 2 4.02 2 3 C0.35 3.33 -1.3 3.66 -3 4 C-2.67 3.34 -2.34 2.68 -2 2 C-1.34 2 -0.68 2 0 2 C0 1.34 0 0.68 0 0 Z " fill="#5E9BCB" transform="translate(50,258)"/>
<path d="M0 0 C2 3 2 3 2 6 C0.68 6 -0.64 6 -2 6 C-2.33 7.32 -2.66 8.64 -3 10 C-4.35439668 7.29120665 -4.06501451 4.99066732 -4 2 C-2.68 2 -1.36 2 0 2 C0 1.34 0 0.68 0 0 Z " fill="#5CC7C6" transform="translate(252,96)"/>
<path d="M0 0 C0.66 0.66 1.32 1.32 2 2 C1.63318342 4.93453261 1.13562754 5.86437246 -1 8 C-1.66 7.34 -2.32 6.68 -3 6 C-2.75 3.4375 -2.75 3.4375 -2 1 C-1.34 0.67 -0.68 0.34 0 0 Z " fill="#67B1CD" transform="translate(101,200)"/>
<path d="M0 0 C1.65 0.33 3.3 0.66 5 1 C4.67 2.65 4.34 4.3 4 6 C2.35 5.67 0.7 5.34 -1 5 C-0.67 3.35 -0.34 1.7 0 0 Z " fill="#5885C5" transform="translate(273,392)"/>
<path d="M0 0 C-1.485 2.475 -1.485 2.475 -3 5 C-4.32 4.67 -5.64 4.34 -7 4 C-6.67 2.68 -6.34 1.36 -6 0 C-2.25 -1.125 -2.25 -1.125 0 0 Z " fill="#5A7FC5" transform="translate(279,373)"/>
<path d="M0 0 C1.32 0 2.64 0 4 0 C3.67 2.31 3.34 4.62 3 7 C2.01 6.67 1.02 6.34 0 6 C0 4.02 0 2.04 0 0 Z " fill="#74AACE" transform="translate(437,307)"/>
<path d="M0 0 C-1.65 1.98 -3.3 3.96 -5 6 C-5.99 5.67 -6.98 5.34 -8 5 C-7.8125 3.125 -7.8125 3.125 -7 1 C-2.66666667 -1.33333333 -2.66666667 -1.33333333 0 0 Z " fill="#5CB4D0" transform="translate(102,195)"/>
<path d="M0 0 C1.65 0.33 3.3 0.66 5 1 C4.67 2.65 4.34 4.3 4 6 C2.35 6.33 0.7 6.66 -1 7 C-0.67 4.69 -0.34 2.38 0 0 Z " fill="#6477C3" transform="translate(126,422)"/>
<path d="M0 0 C-0.33 1.65 -0.66 3.3 -1 5 C-2.32 4.67 -3.64 4.34 -5 4 C-5.33 2.68 -5.66 1.36 -6 0 C-3.50907189 -1.24546405 -2.58919267 -0.7767578 0 0 Z " fill="#607BC5" transform="translate(405,420)"/>
<path d="M0 0 C1.4540625 0.0309375 1.4540625 0.0309375 2.9375 0.0625 C1.625 2.5625 1.625 2.5625 -0.0625 5.0625 C-1.0525 5.0625 -2.0425 5.0625 -3.0625 5.0625 C-3.3925 5.7225 -3.7225 6.3825 -4.0625 7.0625 C-4.10504356 5.06295254 -4.10330783 3.06208364 -4.0625 1.0625 C-3.0625 0.0625 -3.0625 0.0625 0 0 Z " fill="#7B8ACB" transform="translate(475.0625,379.9375)"/>
<path d="M0 0 C0.33 1.65 0.66 3.3 1 5 C0.01 5.495 0.01 5.495 -1 6 C-1 4.35 -1 2.7 -1 1 C-1.99 1 -2.98 1 -4 1 C-4.33 1.99 -4.66 2.98 -5 4 C-6.32 3.67 -7.64 3.34 -9 3 C-5.92807025 0.26939578 -4.09590633 -0.34132553 0 0 Z " fill="#5B9FCA" transform="translate(96,252)"/>
<path d="M0 0 C0.33 0.66 0.66 1.32 1 2 C-3.95 2 -8.9 2 -14 2 C-13.67 1.34 -13.34 0.68 -13 0 C-8.4470882 -1.19242928 -4.58438284 -0.98878846 0 0 Z " fill="#56A8CB" transform="translate(325,225)"/>
<path d="M0 0 C0.66 0.66 1.32 1.32 2 2 C3.31747324 2.69748583 4.64914193 3.36959957 6 4 C2.535 5.485 2.535 5.485 -1 7 C-2 4 -2 4 -1.0625 1.8125 C-0.5365625 0.9153125 -0.5365625 0.9153125 0 0 Z " fill="#56ABC4" transform="translate(418,202)"/>
<path d="M0 0 C1.65 0 3.3 0 5 0 C4.67 1.65 4.34 3.3 4 5 C2.68 5 1.36 5 0 5 C0 3.35 0 1.7 0 0 Z " fill="#6B91CD" transform="translate(300,363)"/>
<path d="M0 0 C0.33 1.32 0.66 2.64 1 4 C-0.32 4.33 -1.64 4.66 -3 5 C-3.33 6.32 -3.66 7.64 -4 9 C-4.66 8.67 -5.32 8.34 -6 8 C-4.73058503 4.08597051 -3.48832306 2.20927127 0 0 Z " fill="#2CCEE1" transform="translate(196,242)"/>
<path d="M0 0 C1.65 0 3.3 0 5 0 C5.33 0.66 5.66 1.32 6 2 C5.0625 4.125 5.0625 4.125 4 6 C4 5.34 4 4.68 4 4 C2.68 4 1.36 4 0 4 C0 2.68 0 1.36 0 0 Z " fill="#59C9C5" transform="translate(294,98)"/>
<path d="M0 0 C1.5 1.3125 1.5 1.3125 3 3 C3 3.99 3 4.98 3 6 C1.02 6.99 1.02 6.99 -1 8 C-1.04241723 5.66705225 -1.04092937 3.33297433 -1 1 C-0.67 0.67 -0.34 0.34 0 0 Z " fill="#7299CE" transform="translate(115,329)"/>
<path d="M0 0 C0.66 1.32 1.32 2.64 2 4 C0.68 4.99 -0.64 5.98 -2 7 C-2.66 6.67 -3.32 6.34 -4 6 C-3.67 4.68 -3.34 3.36 -3 2 C-2.01 2 -1.02 2 0 2 C0 1.34 0 0.68 0 0 Z " fill="#5FACCA" transform="translate(138,202)"/>
<path d="M0 0 C3.465 1.485 3.465 1.485 7 3 C4 5 4 5 0 5 C0 3.35 0 1.7 0 0 Z " fill="#6AB0D1" transform="translate(79,185)"/>
<path d="M0 0 C2.97 0.495 2.97 0.495 6 1 C5.67 2.32 5.34 3.64 5 5 C2.525 4.01 2.525 4.01 0 3 C0 2.01 0 1.02 0 0 Z " fill="#6BBECF" transform="translate(403,175)"/>
<path d="M0 0 C1.98 0.495 1.98 0.495 4 1 C3.67 2.32 3.34 3.64 3 5 C1.68 5 0.36 5 -1 5 C-0.67 3.35 -0.34 1.7 0 0 Z " fill="#66CFC9" transform="translate(236,80)"/>
<path d="M0 0 C0.99 0.33 1.98 0.66 3 1 C3 2.65 3 4.3 3 6 C1.68 6 0.36 6 -1 6 C-1.042721 4.33388095 -1.04063832 2.66617115 -1 1 C-0.67 0.67 -0.34 0.34 0 0 Z " fill="#5F89CB" transform="translate(247,362)"/>
<path d="M0 0 C0 1.65 0 3.3 0 5 C-1.32 5.33 -2.64 5.66 -4 6 C-4.66 4.35 -5.32 2.7 -6 1 C-3.92446352 0.4465236 -2.15634036 0 0 0 Z " fill="#5E6FC1" transform="translate(369,449)"/>
<path d="M0 0 C0.66 0.66 1.32 1.32 2 2 C0.35 2.33 -1.3 2.66 -3 3 C-3 3.66 -3 4.32 -3 5 C-4.65 5.33 -6.3 5.66 -8 6 C-5.51047079 3.33264727 -3.36591866 1.44253657 0 0 Z " fill="#4C9ECA" transform="translate(295,229)"/>
<path d="M0 0 C0.99 0 1.98 0 3 0 C3 0.99 3 1.98 3 3 C4.65 3 6.3 3 8 3 C7.01 3.99 6.02 4.98 5 6 C3.68 5.34 2.36 4.68 1 4 C1 3.34 1 2.68 1 2 C0.34 1.67 -0.32 1.34 -1 1 C-0.67 0.67 -0.34 0.34 0 0 Z " fill="#647BC4" transform="translate(423,426)"/>
<path d="M0 0 C0.99 0 1.98 0 3 0 C4.60355101 3.50776784 5.22036864 6.14354879 5 10 C4.34 10 3.68 10 3 10 C2.92652344 9.04287109 2.92652344 9.04287109 2.8515625 8.06640625 C2.77679688 7.24011719 2.70203125 6.41382813 2.625 5.5625 C2.55539062 4.73878906 2.48578125 3.91507812 2.4140625 3.06640625 C2.27742188 2.38449219 2.14078125 1.70257813 2 1 C1.34 0.67 0.68 0.34 0 0 Z " fill="#5CA1CB" transform="translate(361,258)"/>
<path d="M0 0 C1.32 0 2.64 0 4 0 C3.625 2.4375 3.625 2.4375 3 5 C2.01 5.495 2.01 5.495 1 6 C0.67 4.02 0.34 2.04 0 0 Z " fill="#6DAFD1" transform="translate(491,262)"/>
<path d="M0 0 C0.99 0 1.98 0 3 0 C2.45276317 3.37462715 1.9451 5.08235 0 8 C-0.38063221 5.6739143 -0.71269945 3.33944736 -1 1 C-0.67 0.67 -0.34 0.34 0 0 Z " fill="#64B3CF" transform="translate(465,259)"/>
<path d="M0 0 C0.33 0.99 0.66 1.98 1 3 C-1.97 5.475 -1.97 5.475 -5 8 C-5.33 6.35 -5.66 4.7 -6 3 C-5.195625 2.87625 -4.39125 2.7525 -3.5625 2.625 C-2.716875 2.41875 -1.87125 2.2125 -1 2 C-0.67 1.34 -0.34 0.68 0 0 Z " fill="#556CC0" transform="translate(215,427)"/>
<path d="M0 0 C0.99 0.33 1.98 0.66 3 1 C3.33 2.65 3.66 4.3 4 6 C2 6 2 6 0.375 4.5 C-0.07875 4.005 -0.5325 3.51 -1 3 C-1.33 3.99 -1.66 4.98 -2 6 C-2 4.68 -2 3.36 -2 2 C-1.34 2 -0.68 2 0 2 C0 1.34 0 0.68 0 0 Z " fill="#4CB8C7" transform="translate(315,146)"/>
<path d="M0 0 C1.65 0 3.3 0 5 0 C4.6875 1.9375 4.6875 1.9375 4 4 C3.01 4.33 2.02 4.66 1 5 C0.67 3.35 0.34 1.7 0 0 Z " fill="#67B2CF" transform="translate(457,257)"/>
</svg>
