<?xml version="1.0" encoding="UTF-8"?>
<svg version="1.1" xmlns="http://www.w3.org/2000/svg" width="365" height="603">
<path d="M0 0 C2.70538691 1.81260923 5.29048789 3.6705482 7.84375 5.6953125 C8.98497019 6.59204619 10.12695492 7.48780739 11.26953125 8.3828125 C11.90584473 8.88296875 12.5421582 9.383125 13.19775391 9.8984375 C18.30915658 13.88056327 23.49170911 17.77128906 28.65625 21.68408203 C50.79704092 38.51225904 65.82557509 53.7410707 69.94897461 82.04858398 C70.61319182 87.97396012 70.68329187 93.86274942 70.65625 99.8203125 C70.65206055 101.08721924 70.64787109 102.35412598 70.64355469 103.65942383 C70.43611702 120.92860958 68.28397328 137.28935807 56.59375 150.7578125 C54.03140248 153.36045401 54.03140248 153.36045401 54.34375 156.5703125 C56.6401744 158.37813597 58.90245565 159.97943226 61.34375 161.5703125 C62.8230972 162.55962594 64.30225885 163.54921686 65.78125 164.5390625 C66.54179687 165.04308594 67.30234375 165.54710937 68.0859375 166.06640625 C70.8308408 167.8947588 73.54911244 169.75951439 76.26272583 171.63388062 C78.21754828 172.98320146 80.17450297 174.32935169 82.13232422 175.67431641 C84.74435039 177.46947706 87.35430889 179.26754218 89.96142578 181.06982422 C97.15301092 186.03590056 104.37779384 190.94721436 111.6484375 195.796875 C114.03566324 197.39328355 116.42261721 198.9900979 118.80957031 200.58691406 C120.42477597 201.66524552 122.04166024 202.74106657 123.66015625 203.81445312 C155.05997133 224.65526137 155.05997133 224.65526137 159.34375 240.5703125 C159.8783561 242.11444177 160.41998528 243.65615813 160.96875 245.1953125 C163.36464028 251.91926264 163.51085027 258.82313803 163.546875 265.87890625 C163.55257507 266.76328873 163.55827515 267.6476712 163.56414795 268.55885315 C163.57355776 270.42716289 163.58011586 272.29548893 163.58398438 274.16381836 C163.59361414 276.96824681 163.62464442 279.77191731 163.65625 282.57617188 C163.76869799 301.54460402 161.97530004 318.5398209 148.78125 333.1953125 C148.34176025 333.68539795 147.90227051 334.1754834 147.44946289 334.68041992 C137.72058583 344.88363193 125.23291128 352.49035677 113.53125 360.1953125 C112.07381555 361.16015858 110.61670742 362.12549776 109.15991211 363.09130859 C106.25158212 365.01875758 103.34178433 366.9439556 100.43066406 368.8671875 C94.74413589 372.6256682 89.07521858 376.41040804 83.40625 380.1953125 C81.51181738 381.45848126 79.61728924 382.72150679 77.72265625 383.984375 C76.83078613 384.57895508 75.93891602 385.17353516 75.02001953 385.78613281 C68.12792969 390.38085938 61.23583984 394.97558594 54.34375 399.5703125 C55.72478734 403.54969329 57.59753004 406.35381469 60.21875 409.6328125 C72.89867638 426.83800246 72.01515489 452.09254804 69.09765625 472.49609375 C64.54242925 499.59040456 45.25324634 516.08664458 24.0859375 531.16796875 C18.78379087 534.95225877 13.57809969 538.85931402 8.38256836 542.78808594 C0.72761851 548.56983624 0.72761851 548.56983624 -2.8046875 548.57421875 C-7.90672741 547.2443767 -11.16599186 544.71713357 -15.28125 541.5078125 C-16.5021936 540.58029175 -16.5021936 540.58029175 -17.74780273 539.6340332 C-19.48736439 538.31047166 -21.22251992 536.98110255 -22.95361328 535.64648438 C-25.69209044 533.54277979 -28.4502391 531.46765673 -31.21484375 529.3984375 C-52.72105096 513.26166962 -69.81449165 497.92812761 -74.21875 470.00390625 C-75.86184267 456.07140335 -76.04134326 440.24765464 -72.65625 426.5703125 C-72.42292969 425.57644531 -72.18960938 424.58257812 -71.94921875 423.55859375 C-69.85767901 416.09972373 -66.33331884 410.95552675 -61.484375 405.06640625 C-59.36081453 402.68258774 -59.36081453 402.68258774 -59.65625 399.5703125 C-61.79114659 397.92619674 -63.88041604 396.49551424 -66.15625 395.0703125 C-67.54248846 394.17575135 -68.92787796 393.27987354 -70.3125 392.3828125 C-71.39144531 391.68865234 -71.39144531 391.68865234 -72.4921875 390.98046875 C-75.92590651 388.74297315 -79.28921088 386.40643118 -82.65625 384.0703125 C-87.5694811 380.67897752 -92.49824866 377.31468303 -97.46875 374.0078125 C-98.34140503 373.42688843 -98.34140503 373.42688843 -99.23168945 372.83422852 C-102.96281865 370.35367685 -106.69901515 367.88085873 -110.43690491 365.4105072 C-112.81090014 363.84032184 -115.18283334 362.26703701 -117.55453491 360.69338989 C-118.72520414 359.91767602 -119.89674092 359.14326942 -121.06924438 358.37033081 C-142.79601708 344.04567019 -142.79601708 344.04567019 -151.46875 335.2578125 C-152.00935059 334.7100415 -152.54995117 334.16227051 -153.10693359 333.59790039 C-164.50543614 321.66632502 -168.12194483 308.36437616 -168.125 292.1484375 C-168.13642029 290.43294708 -168.13642029 290.43294708 -168.14807129 288.68280029 C-168.15880295 286.27944097 -168.16175392 283.87603527 -168.15722656 281.47265625 C-168.15625605 277.84293827 -168.19792636 274.21535058 -168.2421875 270.5859375 C-168.33370667 252.97257448 -167.30985903 237.11048012 -154.65625 223.5703125 C-146.7549835 215.5918692 -137.26917723 209.69479496 -127.96875 203.5078125 C-126.29354209 202.38622152 -124.61882214 201.26390138 -122.94458008 200.14086914 C-119.65768977 197.93655834 -116.36903763 195.73491814 -113.07910156 193.53515625 C-107.64224017 189.89575479 -102.23940468 186.20802599 -96.84375 182.5078125 C-88.08636339 176.51403785 -79.26447865 170.61983002 -70.41870117 164.75756836 C-69.46326416 164.12343018 -68.50782715 163.48929199 -67.5234375 162.8359375 C-66.67894043 162.27680664 -65.83444336 161.71767578 -64.96435547 161.14160156 C-62.81165334 159.67610644 -60.72511986 158.15130318 -58.65625 156.5703125 C-60.07149342 153.48313936 -61.81300374 151.04651551 -63.90625 148.3828125 C-67.17827591 143.78280955 -69.17904689 139.1686888 -71.03125 133.8828125 C-71.28165039 133.17036377 -71.53205078 132.45791504 -71.79003906 131.72387695 C-74.12374671 124.73492565 -74.81496664 117.89822184 -74.859375 110.5390625 C-74.86507507 109.78548462 -74.87077515 109.03190674 -74.87664795 108.25549316 C-74.8860455 106.66545999 -74.89261091 105.07540779 -74.89648438 103.48535156 C-74.90611195 101.10445146 -74.93715222 98.72444536 -74.96875 96.34375 C-75.12501929 73.84155718 -69.32404075 54.01024251 -53.21875 37.6328125 C-46.60126647 31.10561566 -39.41222821 25.56400372 -31.86572266 20.16357422 C-29.45891253 18.42801147 -27.07774039 16.66083555 -24.69921875 14.88671875 C-23.01828541 13.63534112 -21.33729676 12.38403777 -19.65625 11.1328125 C-18.87934814 10.55337891 -18.10244629 9.97394531 -17.30200195 9.37695312 C-15.10230944 7.75172069 -12.88477069 6.15571993 -10.65625 4.5703125 C-9.94210938 4.04550293 -9.22796875 3.52069336 -8.4921875 2.97998047 C-3.3966319 -0.54945516 -3.3966319 -0.54945516 0 0 Z M-26.65625 90.5703125 C-25.1834824 100.4686808 -15.97574208 107.96786571 -8.59375 114.0703125 C-7.98402344 114.575625 -7.37429687 115.0809375 -6.74609375 115.6015625 C-3.57402279 117.07198044 -1.97890224 116.63356122 1.34375 115.5703125 C4.05833009 113.80133522 6.43678904 111.73333903 8.84375 109.5703125 C9.50576416 108.98741455 10.16777832 108.4045166 10.84985352 107.80395508 C15.53741589 103.56914547 19.41074024 99.21745069 22.34375 93.5703125 C20.95283229 90.29130931 19.45152983 88.59322416 16.60546875 86.4765625 C15.86748047 85.92097656 15.12949219 85.36539063 14.36914062 84.79296875 C13.59763672 84.22449219 12.82613281 83.65601562 12.03125 83.0703125 C10.51402728 81.93529092 8.99709301 80.79988362 7.48046875 79.6640625 C6.76552246 79.13296875 6.05057617 78.601875 5.31396484 78.0546875 C3.63763736 76.79172949 1.99633833 75.4824939 0.36328125 74.1640625 C-4.87592197 70.02944951 -21.47318567 86.54911155 -26.65625 90.5703125 Z M-22.59375 208.4453125 C-23.9089563 209.37102051 -23.9089563 209.37102051 -25.25073242 210.31542969 C-29.68654085 213.44407149 -34.09636966 216.60339604 -38.46875 219.8203125 C-42.93756765 223.09469963 -47.51885932 226.17930028 -52.13720703 229.23632812 C-67.92839626 239.69901122 -83.53463043 250.43499723 -99.03125 261.328125 C-103.57489385 264.51976708 -108.14169096 267.6768229 -112.71875 270.8203125 C-113.38011963 271.2745459 -114.04148926 271.7287793 -114.72290039 272.19677734 C-117.3574748 274.00340246 -119.99822146 275.79829347 -122.65625 277.5703125 C-122.40469544 280.73989993 -121.64968275 281.57598184 -119.19921875 283.69140625 C-118.08941408 284.47597341 -116.97002022 285.24707113 -115.84375 286.0078125 C-114.9012439 286.66221313 -114.9012439 286.66221313 -113.93969727 287.32983398 C-108.24487402 291.24971897 -102.42895258 294.98506697 -96.61694336 298.7277832 C-87.79798445 304.42919427 -79.1017325 310.30820071 -70.40625 316.1953125 C-69.63021423 316.72064575 -68.85417847 317.245979 -68.05462646 317.78723145 C-64.81906302 319.97786062 -61.58380213 322.16893546 -58.34899902 324.36068726 C-49.36725033 330.44582526 -40.37542468 336.51601282 -31.38269043 342.5848999 C-28.76436041 344.35202971 -26.14631063 346.119574 -23.52832031 347.88720703 C-21.91602509 348.97559995 -20.30372086 350.06397954 -18.69140625 351.15234375 C-17.96488358 351.6429277 -17.2383609 352.13351166 -16.48982239 352.63896179 C-15.15456713 353.54010562 -13.81841732 354.43992601 -12.48118591 355.33813477 C-11.28779245 356.14390161 -10.09927543 356.95695073 -8.91639709 357.77807617 C-6.57481692 359.3894478 -4.91490376 360.52399817 -2.08203125 361.03125 C1.061418 360.43394402 2.65551732 359.18802232 5.15625 357.1953125 C10.32880693 353.24434459 15.67184302 349.78316798 21.24536133 346.42431641 C26.18120893 343.41122329 30.81562528 340.06894581 35.47412109 336.64501953 C40.10950054 333.2936962 44.88204566 330.15665418 49.65625 327.0078125 C57.83986073 321.58280858 65.98957342 316.1133229 74.09375 310.5703125 C79.55543977 306.8348983 85.01621461 303.10160503 90.53125 299.4453125 C92.46962408 298.15495791 94.40698968 296.863088 96.34375 295.5703125 C97.09881836 295.06725586 97.85388672 294.56419922 98.63183594 294.04589844 C101.22826062 292.31129966 103.81768871 290.56661972 106.40625 288.8203125 C107.6586145 287.98669189 107.6586145 287.98669189 108.9362793 287.13623047 C109.72172119 286.60400879 110.50716309 286.07178711 111.31640625 285.5234375 C112.02031494 285.05067383 112.72422363 284.57791016 113.44946289 284.09082031 C115.49184787 282.45143719 116.86477647 280.72123118 118.34375 278.5703125 C111.31140652 272.4667691 103.69742778 267.39248531 95.9362793 262.27783203 C89.041202 257.72601071 82.23794655 253.05707177 75.46875 248.3203125 C68.56574859 243.49359554 61.63828342 238.71970549 54.61376953 234.07177734 C44.50639942 227.37917258 34.57337868 220.43046119 24.62939453 213.49853516 C1.40649383 195.6267829 1.40649383 195.6267829 -22.59375 208.4453125 Z M-12.65625 444.3203125 C-13.35492188 444.85914063 -14.05359375 445.39796875 -14.7734375 445.953125 C-18.43352378 448.7845125 -22.05112571 451.66931404 -25.65625 454.5703125 C-25.08876829 457.84660871 -24.25738024 459.29716128 -21.70703125 461.41015625 C-21.10568359 461.91611328 -20.50433594 462.42207031 -19.88476562 462.94335938 C-19.25248047 463.45962891 -18.62019531 463.97589844 -17.96875 464.5078125 C-17.04932617 465.27641602 -17.04932617 465.27641602 -16.11132812 466.06054688 C-14.88956662 467.08019301 -13.66057158 468.09123748 -12.42431641 469.09326172 C-11.27262263 470.05539198 -10.15206375 471.05647545 -9.07177734 472.09814453 C-6.61968879 474.41271785 -5.16332906 475.53482379 -1.75390625 475.7734375 C2.58032329 474.09002931 5.50631878 471.4372003 8.90625 468.3203125 C9.55271484 467.74667969 10.19917969 467.17304688 10.86523438 466.58203125 C14.47695434 463.3561003 17.95579947 460.02979366 21.34375 456.5703125 C20.07877211 452.77537884 18.59836853 452.08046426 15.34375 449.8203125 C10.85250981 446.67061159 6.58944582 443.37653251 2.4140625 439.8203125 C-3.71771392 436.11810787 -7.83619766 440.49628574 -12.65625 444.3203125 Z " fill="#A480D8" transform="translate(184.65625,27.4296875)"/>
<path d="M0 0 C2.70538691 1.81260923 5.29048789 3.6705482 7.84375 5.6953125 C8.98497019 6.59204619 10.12695492 7.48780739 11.26953125 8.3828125 C11.90584473 8.88296875 12.5421582 9.383125 13.19775391 9.8984375 C18.30915658 13.88056327 23.49170911 17.77128906 28.65625 21.68408203 C50.79704092 38.51225904 65.82557509 53.7410707 69.94897461 82.04858398 C70.61319182 87.97396012 70.68329187 93.86274942 70.65625 99.8203125 C70.65206055 101.08721924 70.64787109 102.35412598 70.64355469 103.65942383 C70.43611702 120.92860958 68.28397328 137.28935807 56.59375 150.7578125 C54.03140248 153.36045401 54.03140248 153.36045401 54.34375 156.5703125 C56.6401744 158.37813597 58.90245565 159.97943226 61.34375 161.5703125 C62.8230972 162.55962594 64.30225885 163.54921686 65.78125 164.5390625 C66.54179687 165.04308594 67.30234375 165.54710937 68.0859375 166.06640625 C70.8308408 167.8947588 73.54911244 169.75951439 76.26272583 171.63388062 C78.21754828 172.98320146 80.17450297 174.32935169 82.13232422 175.67431641 C84.74435039 177.46947706 87.35430889 179.26754218 89.96142578 181.06982422 C97.15301092 186.03590056 104.37779384 190.94721436 111.6484375 195.796875 C114.03566324 197.39328355 116.42261721 198.9900979 118.80957031 200.58691406 C120.42477597 201.66524552 122.04166024 202.74106657 123.66015625 203.81445312 C156.01484003 225.28903056 156.01484003 225.28903056 159.34375 240.5703125 C159.34375 241.2303125 159.34375 241.8903125 159.34375 242.5703125 C158.35375 242.5703125 157.36375 242.5703125 156.34375 242.5703125 C156.16199219 243.18519531 155.98023438 243.80007813 155.79296875 244.43359375 C155.54160156 245.24183594 155.29023438 246.05007813 155.03125 246.8828125 C154.78761719 247.68332031 154.54398437 248.48382813 154.29296875 249.30859375 C153.28253598 251.71616814 152.20353247 252.78702494 150.34375 254.5703125 C149.85841797 255.55644531 149.85841797 255.55644531 149.36328125 256.5625 C146.03248029 263.12200841 137.56494045 267.77921016 131.73706055 272.10595703 C129.04404281 274.13124787 127.23432699 275.73444702 125.34375 278.5703125 C120.69316721 279.19170532 117.72307909 279.18757549 113.80859375 276.515625 C112.61895474 275.59311949 111.44366398 274.65189555 110.28125 273.6953125 C108.95924086 272.66772389 107.63496327 271.64304796 106.30859375 270.62109375 C105.64456543 270.10369629 104.98053711 269.58629883 104.29638672 269.05322266 C101.40198613 266.85509948 98.3881604 264.86527801 95.34375 262.8828125 C88.76176684 258.56108431 82.29762756 254.08075526 75.84375 249.5703125 C68.81570354 244.66178139 61.76431999 239.80307855 54.61523438 235.07275391 C44.50732664 228.37975533 34.57394317 221.43046287 24.62915039 214.49853516 C23.1266272 213.45125244 23.1266272 213.45125244 21.59375 212.3828125 C20.60689209 211.69493652 19.62003418 211.00706055 18.60327148 210.29833984 C11.90498194 205.63684839 5.17464621 201.03610271 -1.65625 196.5703125 C-8.13996849 199.49572128 -13.84558164 202.93756216 -19.52734375 207.21484375 C-29.02222381 214.36267481 -38.7696631 221.03826559 -48.6953125 227.5703125 C-54.64052468 231.50306267 -60.45464589 235.56462001 -66.19970703 239.78417969 C-69.27457689 242.01989306 -72.41193714 244.11445985 -75.59375 246.1953125 C-82.53205653 250.77024985 -89.34171053 255.51776595 -96.13964844 260.2980957 C-102.36130906 264.67161359 -108.61377639 268.99725301 -114.89624023 273.28295898 C-117.91563375 275.25221113 -117.91563375 275.25221113 -120.65625 277.5703125 C-122.34233966 277.64236761 -124.03125659 277.65417318 -125.71875 277.6328125 C-126.63785156 277.62378906 -127.55695313 277.61476563 -128.50390625 277.60546875 C-129.21417969 277.59386719 -129.92445313 277.58226562 -130.65625 277.5703125 C-130.98625 276.9103125 -131.31625 276.2503125 -131.65625 275.5703125 C-132.625625 275.0546875 -133.595 274.5390625 -134.59375 274.0078125 C-142.04153186 269.90769341 -148.65165893 263.40992029 -153.65625 256.5703125 C-153.65625 255.9103125 -153.65625 255.2503125 -153.65625 254.5703125 C-154.31625 254.5703125 -154.97625 254.5703125 -155.65625 254.5703125 C-155.65625 253.5803125 -155.65625 252.5903125 -155.65625 251.5703125 C-156.64625 251.2403125 -157.63625 250.9103125 -158.65625 250.5703125 C-159.60546875 248.06640625 -159.60546875 248.06640625 -160.34375 245.0078125 C-160.59511719 243.99589844 -160.84648437 242.98398437 -161.10546875 241.94140625 C-161.28722656 241.15894531 -161.46898437 240.37648438 -161.65625 239.5703125 C-162.31625 239.5703125 -162.97625 239.5703125 -163.65625 239.5703125 C-163.10300539 235.30571866 -161.67839869 232.71575843 -159.15625 229.2578125 C-158.5271875 228.37480469 -157.898125 227.49179688 -157.25 226.58203125 C-148.99330117 216.99481017 -138.41025859 210.45388379 -127.96875 203.5078125 C-126.29354209 202.38622152 -124.61882214 201.26390138 -122.94458008 200.14086914 C-119.65768977 197.93655834 -116.36903763 195.73491814 -113.07910156 193.53515625 C-107.64224017 189.89575479 -102.23940468 186.20802599 -96.84375 182.5078125 C-88.08636339 176.51403785 -79.26447865 170.61983002 -70.41870117 164.75756836 C-69.46326416 164.12343018 -68.50782715 163.48929199 -67.5234375 162.8359375 C-66.67894043 162.27680664 -65.83444336 161.71767578 -64.96435547 161.14160156 C-62.81165334 159.67610644 -60.72511986 158.15130318 -58.65625 156.5703125 C-60.07149342 153.48313936 -61.81300374 151.04651551 -63.90625 148.3828125 C-67.17827591 143.78280955 -69.17904689 139.1686888 -71.03125 133.8828125 C-71.28165039 133.17036377 -71.53205078 132.45791504 -71.79003906 131.72387695 C-74.12374671 124.73492565 -74.81496664 117.89822184 -74.859375 110.5390625 C-74.86507507 109.78548462 -74.87077515 109.03190674 -74.87664795 108.25549316 C-74.8860455 106.66545999 -74.89261091 105.07540779 -74.89648438 103.48535156 C-74.90611195 101.10445146 -74.93715222 98.72444536 -74.96875 96.34375 C-75.12501929 73.84155718 -69.32404075 54.01024251 -53.21875 37.6328125 C-46.60126647 31.10561566 -39.41222821 25.56400372 -31.86572266 20.16357422 C-29.45891253 18.42801147 -27.07774039 16.66083555 -24.69921875 14.88671875 C-23.01828541 13.63534112 -21.33729676 12.38403777 -19.65625 11.1328125 C-18.87934814 10.55337891 -18.10244629 9.97394531 -17.30200195 9.37695312 C-15.10230944 7.75172069 -12.88477069 6.15571993 -10.65625 4.5703125 C-9.94210938 4.04550293 -9.22796875 3.52069336 -8.4921875 2.97998047 C-3.3966319 -0.54945516 -3.3966319 -0.54945516 0 0 Z M-26.65625 90.5703125 C-25.1834824 100.4686808 -15.97574208 107.96786571 -8.59375 114.0703125 C-7.98402344 114.575625 -7.37429687 115.0809375 -6.74609375 115.6015625 C-3.57402279 117.07198044 -1.97890224 116.63356122 1.34375 115.5703125 C4.05833009 113.80133522 6.43678904 111.73333903 8.84375 109.5703125 C9.50576416 108.98741455 10.16777832 108.4045166 10.84985352 107.80395508 C15.53741589 103.56914547 19.41074024 99.21745069 22.34375 93.5703125 C20.95283229 90.29130931 19.45152983 88.59322416 16.60546875 86.4765625 C15.86748047 85.92097656 15.12949219 85.36539063 14.36914062 84.79296875 C13.59763672 84.22449219 12.82613281 83.65601562 12.03125 83.0703125 C10.51402728 81.93529092 8.99709301 80.79988362 7.48046875 79.6640625 C6.76552246 79.13296875 6.05057617 78.601875 5.31396484 78.0546875 C3.63763736 76.79172949 1.99633833 75.4824939 0.36328125 74.1640625 C-4.87592197 70.02944951 -21.47318567 86.54911155 -26.65625 90.5703125 Z " fill="#845DBF" transform="translate(184.65625,27.4296875)"/>
<path d="M0 0 C0.99 0 1.98 0 3 0 C3.26554687 0.78246094 3.53109375 1.56492187 3.8046875 2.37109375 C4.15789063 3.38300781 4.51109375 4.39492188 4.875 5.4375 C5.39707031 6.95150391 5.39707031 6.95150391 5.9296875 8.49609375 C6.74055093 11.13971751 6.74055093 11.13971751 9 12 C9 12.99 9 13.98 9 15 C9.66 15 10.32 15 11 15 C12.4453125 16.72265625 12.4453125 16.72265625 14.125 19.0625 C19.27690703 25.85704406 25.11510306 30.77831768 32.53125 34.95703125 C33.0159375 35.30121094 33.500625 35.64539063 34 36 C34 36.66 34 37.32 34 38 C36.64 38 39.28 38 42 38 C42.2280835 38.58668457 42.45616699 39.17336914 42.69116211 39.77783203 C44.36350023 42.61715707 46.18239998 43.75765979 48.94140625 45.5546875 C49.98353271 46.24079102 51.02565918 46.92689453 52.09936523 47.63378906 C53.25374094 48.38086332 54.40811927 49.12793351 55.5625 49.875 C56.76378493 50.66269678 57.96437236 51.45145817 59.16430664 52.24121094 C61.74276538 53.93714136 64.32402801 55.62868137 66.90722656 57.31738281 C73.9431817 61.92251244 80.93944552 66.58757203 87.9375 71.25 C88.64590027 71.72143433 89.35430054 72.19286865 90.08416748 72.67858887 C98.94785683 78.57927277 107.74412792 84.55515795 116.43017578 90.71557617 C125.40586569 97.05163605 134.57806247 103.09619025 143.73706055 109.16259766 C147.16399248 111.43291755 150.58413767 113.71305378 154 116 C154.79615723 116.53085205 155.59231445 117.0617041 156.41259766 117.60864258 C160.90960453 120.69114881 160.90960453 120.69114881 161.75 123.5625 C160.68279095 127.03092941 159.01332991 128.03478484 156 130 C155.113125 130.433125 154.22625 130.86625 153.3125 131.3125 C149.29370541 133.35981045 145.80609642 135.91462944 142.171875 138.57421875 C140 140 140 140 138 140 C138 140.66 138 141.32 138 142 C135.91015625 143.48046875 135.91015625 143.48046875 133.0625 145.1875 C127.12702309 148.85712004 121.45743207 152.80790574 116.3203125 157.55078125 C113.99320987 159.69099221 112.44696358 160.92925756 109.28515625 161.4296875 C104.792027 160.84200115 102.21017195 158.84254193 98.625 156.1875 C97.20206182 155.17154031 95.77887779 154.15592488 94.35546875 153.140625 C93.63278809 152.61791016 92.91010742 152.09519531 92.16552734 151.55664062 C88.79182521 149.13153072 85.36559148 146.78478283 81.9375 144.4375 C81.26775146 143.97698242 80.59800293 143.51646484 79.90795898 143.04199219 C75.68795391 140.14319649 71.44919421 137.27461545 67.1875 134.4375 C66.31472412 133.85645508 66.31472412 133.85645508 65.42431641 133.26367188 C61.69320723 130.78329414 57.95714069 128.310484 54.21934509 125.8401947 C51.84534986 124.27000934 49.47341666 122.69672451 47.10171509 121.12307739 C45.93104586 120.34736352 44.75950908 119.57295692 43.58700562 118.80001831 C21.86023292 104.47535769 21.86023292 104.47535769 13.1875 95.6875 C12.64689941 95.139729 12.10629883 94.59195801 11.54931641 94.02758789 C0.08593503 82.02809951 -3.48970575 68.70523016 -3.3984375 52.40234375 C-3.40274277 50.66906578 -3.40274277 50.66906578 -3.40713501 48.90077209 C-3.40916193 46.47640488 -3.40372908 44.05202079 -3.39111328 41.62768555 C-3.37502608 37.94347175 -3.39101765 34.26035237 -3.41015625 30.57617188 C-3.40817386 28.20572678 -3.40433028 25.83528235 -3.3984375 23.46484375 C-3.40451019 22.37807846 -3.41058289 21.29131317 -3.4168396 20.1716156 C-3.35197645 13.02744705 -2.21609939 6.79082562 0 0 Z " fill="#9069CB" transform="translate(20,267)"/>
<path d="M0 0 C1.20072676 1.49279543 2.40062518 2.98630183 3.58984375 4.48828125 C5.47836687 6.51281988 7.72043345 7.71942674 10.15625 8.99609375 C18.18340611 13.36681223 18.18340611 13.36681223 20 17 C20.70125 17.2475 21.4025 17.495 22.125 17.75 C25.39192914 19.17040397 27.46575355 20.99733649 30.10546875 23.34375 C35.97444422 28.52191054 35.97444422 28.52191054 42.875 32 C45 33 45 33 46.3125 36.125 C46.539375 37.07375 46.76625 38.0225 47 39 C46.39341553 39.35336426 45.78683105 39.70672852 45.16186523 40.07080078 C38.93021376 43.74859489 32.96468065 47.69225271 27.0625 51.875 C26.1856958 52.49213867 25.3088916 53.10927734 24.40551758 53.74511719 C19.96970915 56.87375899 15.55988034 60.03308354 11.1875 63.25 C6.71868235 66.52438713 2.13739068 69.60898778 -2.48095703 72.66601562 C-17.46191379 82.59186736 -32.29277441 92.74599986 -46.9921875 103.08374023 C-53.04448929 107.33988709 -59.1302427 111.54467638 -65.24243164 115.71435547 C-68.26055593 117.68280595 -68.26055593 117.68280595 -71 120 C-72.68608966 120.07205511 -74.37500659 120.08386068 -76.0625 120.0625 C-77.44115234 120.04896484 -77.44115234 120.04896484 -78.84765625 120.03515625 C-79.91306641 120.01775391 -79.91306641 120.01775391 -81 120 C-81.33 119.34 -81.66 118.68 -82 118 C-82.969375 117.484375 -83.93875 116.96875 -84.9375 116.4375 C-92.38528186 112.33738091 -98.99540893 105.83960779 -104 99 C-104 98.34 -104 97.68 -104 97 C-104.66 97 -105.32 97 -106 97 C-106 96.01 -106 95.02 -106 94 C-106.99 93.67 -107.98 93.34 -109 93 C-109.94921875 90.49609375 -109.94921875 90.49609375 -110.6875 87.4375 C-110.93886719 86.42558594 -111.19023438 85.41367187 -111.44921875 84.37109375 C-111.63097656 83.58863281 -111.81273437 82.80617188 -112 82 C-112.66 82 -113.32 82 -114 82 C-113.44675539 77.73540616 -112.02214869 75.14544593 -109.5 71.6875 C-108.55640625 70.36298828 -108.55640625 70.36298828 -107.59375 69.01171875 C-99.33705117 59.42449767 -88.75400859 52.88357129 -78.3125 45.9375 C-76.63729209 44.81590902 -74.96257214 43.69358888 -73.28833008 42.57055664 C-70.00143977 40.36624584 -66.71278763 38.16460564 -63.42285156 35.96484375 C-57.98599017 32.32544229 -52.58315468 28.63771349 -47.1875 24.9375 C-38.43011339 18.94372535 -29.60822865 13.04951752 -20.76245117 7.18725586 C-19.80701416 6.55311768 -18.85157715 5.91897949 -17.8671875 5.265625 C-17.02269043 4.70649414 -16.17819336 4.14736328 -15.30810547 3.57128906 C-13.79250295 2.53951227 -12.30495968 1.4650133 -10.85205078 0.34667969 C-7.10444542 -2.37831256 -3.77135128 -2.71065874 0 0 Z " fill="#492680" transform="translate(135,185)"/>
<path d="M0 0 C2.0699881 -0.00971028 4.13898526 -0.04072275 6.20874023 -0.07226562 C7.50618164 -0.07742187 8.80362305 -0.08257812 10.14038086 -0.08789062 C11.9375354 -0.10190918 11.9375354 -0.10190918 13.77099609 -0.11621094 C15.19327515 0.06022949 15.19327515 0.06022949 16.64428711 0.24023438 C18.71152425 3.34109008 18.88926134 3.96955119 18.83959961 7.47070312 C18.8331543 8.27314453 18.82670898 9.07558594 18.82006836 9.90234375 C18.80331055 10.73572266 18.78655273 11.56910156 18.76928711 12.42773438 C18.76026367 13.27271484 18.75124023 14.11769531 18.74194336 14.98828125 C18.71839414 17.0723868 18.68252358 19.15634655 18.64428711 21.24023438 C19.87405273 21.53027344 19.87405273 21.53027344 21.12866211 21.82617188 C22.20631836 22.0865625 23.28397461 22.34695313 24.39428711 22.61523438 C25.46163086 22.87046875 26.52897461 23.12570312 27.62866211 23.38867188 C30.64428711 24.24023438 30.64428711 24.24023438 32.62866211 25.30664062 C35.45500812 26.61574275 38.04687244 26.63578657 41.14428711 26.80273438 C47.30415365 27.14887366 47.30415365 27.14887366 49.79663086 27.81835938 C52.03926561 28.33041974 53.47690004 27.9404 55.70678711 27.42773438 C61.9683352 26.56299479 66.58131082 29.89505361 71.64428711 33.24023438 C73.37046865 34.96641592 72.81091355 37.20128998 72.88500977 39.50830078 C73.15004874 47.68088311 73.15004874 47.68088311 75.76928711 55.36523438 C78.61030038 61.46049922 77.92504918 67.76740091 76.64428711 74.24023438 C74.43827171 79.78455625 74.43827171 79.78455625 71.84741211 81.27148438 C71.20288086 81.42617188 70.55834961 81.58085937 69.89428711 81.74023438 C66.61862778 82.7444511 64.64714757 83.89810807 62.14428711 86.24023438 C59.68769053 88.52296225 57.70691376 89.75810017 54.51928711 90.80273438 C49.46242586 92.4850944 46.77606642 95.41340941 43.98413086 99.91992188 C42.39931552 103.84730683 42.53901778 106.95043383 43.01928711 111.05273438 C43.26464738 113.44954067 43.47235548 115.83615585 43.64428711 118.24023438 C42.64428711 119.24023438 42.64428711 119.24023438 40.03100586 119.43945312 C36.17565137 119.21266757 33.10135818 118.3222795 29.45678711 117.05273438 C28.24635742 116.64667969 27.03592773 116.240625 25.78881836 115.82226562 C20.77993015 113.30226597 19.62314535 109.49097982 17.83178711 104.42773438 C16.16400948 100.13463379 14.10326721 96.89504513 11.22631836 93.32617188 C8.84385488 90.18484966 6.96775591 86.77456178 5.03881836 83.34179688 C3.66178885 80.97269322 3.66178885 80.97269322 0.64428711 79.24023438 C-2.22730939 78.57233074 -2.22730939 78.57233074 -5.35571289 79.24023438 C-6.88311785 80.61839145 -6.88311785 80.61839145 -8.29321289 82.30273438 C-10.66212257 84.88030449 -10.97626451 85.20443736 -14.66821289 85.55273438 C-19.77837308 83.7338638 -23.67164426 81.24694038 -27.35571289 77.24023438 C-28.26529069 75.03641151 -28.78749955 72.88848451 -29.35571289 70.57617188 C-31.0984441 66.50526068 -34.51137998 64.12702136 -37.88305664 61.38085938 C-40.47302062 59.13867887 -42.51298246 57.13531929 -44.35571289 54.24023438 C-44.02571289 52.59023438 -43.69571289 50.94023437 -43.35571289 49.24023438 C-33.78571289 49.24023438 -24.21571289 49.24023438 -14.35571289 49.24023438 C-14.38665039 45.99179687 -14.38665039 45.99179687 -14.41821289 42.67773438 C-14.44578137 34.40632779 -14.23239338 26.14067735 -13.98239136 17.87380981 C-13.93951659 16.44846337 -13.8982839 15.02306661 -13.8586731 13.59762573 C-13.8015758 11.57209548 -13.73700134 9.54678021 -13.67211914 7.52148438 C-13.63546143 6.33619141 -13.59880371 5.15089844 -13.56103516 3.9296875 C-13.08035449 -2.36660046 -4.9713638 0.01416175 0 0 Z " fill="#4F2B88" transform="translate(162.355712890625,246.759765625)"/>
<path d="M0 0 C4.13422015 1.42301056 7.08257081 3.41494191 10.5 6.125 C11.64122019 7.02173369 12.78320492 7.91749489 13.92578125 8.8125 C14.88025146 9.56273437 14.88025146 9.56273437 15.85400391 10.328125 C20.96540658 14.31025077 26.14795911 18.20097656 31.3125 22.11376953 C53.45329092 38.94194654 68.48182509 54.1707582 72.60522461 82.47827148 C73.26944182 88.40364762 73.33954187 94.29243692 73.3125 100.25 C73.30831055 101.51690674 73.30412109 102.78381348 73.29980469 104.08911133 C73.11412326 119.5470905 71.6203148 135.26723041 62 148 C61.53464844 148.63292969 61.06929687 149.26585937 60.58984375 149.91796875 C59.83380859 150.88669922 59.83380859 150.88669922 59.0625 151.875 C58.59972656 152.47054687 58.13695312 153.06609375 57.66015625 153.6796875 C56 155 56 155 53.73828125 155.4921875 C49.82937178 154.78958751 47.19696123 152.62227375 44.125 150.25 C38.09832434 145.6935683 32.16789371 141.6065068 25 139 C25 138.34 25 137.68 25 137 C24.195625 136.5978125 24.195625 136.5978125 23.375 136.1875 C19.1875 134.09375 19.1875 134.09375 15 132 C15 131.34 15 130.68 15 130 C13.9171875 129.62875 13.9171875 129.62875 12.8125 129.25 C10 128 10 128 7.4375 125.9375 C5.13856875 124.11014439 3.84877273 123.4220404 1 123 C0.71875 120.24609375 0.71875 120.24609375 1 117 C2.90625 114.91015625 2.90625 114.91015625 5.5 113.0625 C6.86705078 112.04349609 6.86705078 112.04349609 8.26171875 111.00390625 C9.16535156 110.34261719 10.06898438 109.68132812 11 109 C16.30632155 104.82618081 21.44055612 100.43357477 24 94 C22.87716289 90.63148867 22.15718298 90.09249717 19.39453125 88.0390625 C18.65783203 87.48476562 17.92113281 86.93046875 17.16210938 86.359375 C15.99905273 85.50085938 15.99905273 85.50085938 14.8125 84.625 C13.29726017 83.49341425 11.78292147 82.36062074 10.26953125 81.2265625 C9.59510986 80.72721191 8.92068848 80.22786133 8.22583008 79.71337891 C7.49130615 79.14796387 6.75678223 78.58254883 6 78 C4.98036163 77.28735992 3.96072327 76.57471985 2.91018677 75.84048462 C0.34945085 73.68474831 0.03040147 73.13204342 -0.76622009 69.67205811 C-0.77367752 68.4071051 -0.78113495 67.1421521 -0.78881836 65.83886719 C-0.80105438 65.13748627 -0.81329041 64.43610535 -0.82589722 63.71347046 C-0.85896136 61.40724287 -0.84986128 59.10328445 -0.83984375 56.796875 C-0.85363857 55.19213613 -0.86991472 53.58741683 -0.88856506 51.98272705 C-0.93024821 47.76781372 -0.93543489 43.55358864 -0.93383789 39.33850098 C-0.9387203 35.88745033 -0.96961496 32.43686113 -1.00185299 28.98597336 C-1.03976344 24.88132263 -1.0665834 20.77663239 -1.08984375 16.671875 C-1.0944908 15.88486961 -1.09913784 15.09786423 -1.1039257 14.28701019 C-1.11421996 12.07248638 -1.11703972 9.85809959 -1.11694336 7.64355469 C-1.11883163 6.38178406 -1.12071991 5.12001343 -1.12266541 3.82000732 C-1 1 -1 1 0 0 Z " fill="#593493" transform="translate(182,27)"/>
<path d="M0 0 C2.81218446 2.81218446 2.30969074 4.67454516 2.40161133 8.61767578 C2.4195726 9.297621 2.43753387 9.97756622 2.45603943 10.67811584 C2.5108658 12.93379087 2.54876003 15.18922044 2.58203125 17.4453125 C2.59392675 18.21680508 2.60582226 18.98829765 2.61807823 19.78316879 C2.67742546 23.87068839 2.72123393 27.95809398 2.75512695 32.04589844 C2.78622755 35.4225464 2.84877562 38.79631695 2.93969727 42.171875 C3.04954888 46.25296854 3.10476024 50.33143188 3.12152672 54.41393661 C3.13675053 55.96505353 3.17068736 57.51610989 3.22416115 59.06637955 C3.61887403 71.18449483 3.61887403 71.18449483 -0.39770508 75.68893433 C-3.18155993 77.72965664 -5.95272152 79.3882502 -9 81 C-10.23981946 81.86741688 -11.46486363 82.75692729 -12.6640625 83.6796875 C-14.66230189 85.16123175 -16.6623469 86.64034334 -18.6640625 88.1171875 C-21.06653208 89.78662062 -21.06653208 89.78662062 -22 92 C-24.28515625 92.6328125 -24.28515625 92.6328125 -27.0625 93.125 C-27.98160156 93.29257813 -28.90070313 93.46015625 -29.84765625 93.6328125 C-30.55792969 93.75398438 -31.26820313 93.87515625 -32 94 C-32 94.66 -32 95.32 -32 96 C-32.66 96 -33.32 96 -34 96 C-34.23203125 96.57234375 -34.4640625 97.1446875 -34.703125 97.734375 C-36.31672742 100.55331899 -38.26857497 102.1595874 -40.75 104.25 C-44.62920524 107.64360688 -47.73543659 111.00726394 -50.69140625 115.2109375 C-52.54200552 117.74101053 -54.72603819 119.8523694 -57 122 C-59.69824035 124.69824035 -60.03921211 127.34900604 -61 131 C-61.33 131.99 -61.66 132.98 -62 134 C-63.32 134 -64.64 134 -66 134 C-66.48720213 132.64870353 -66.96428184 131.29375684 -67.4375 129.9375 C-67.70433594 129.18339844 -67.97117187 128.42929688 -68.24609375 127.65234375 C-69.89753176 121.84236236 -70.16687584 115.97580303 -70.203125 109.96875 C-70.21167511 108.83838318 -70.21167511 108.83838318 -70.22039795 107.68518066 C-70.2297955 106.09514749 -70.23636091 104.50509529 -70.24023438 102.91503906 C-70.24986195 100.53413896 -70.28090222 98.15413286 -70.3125 95.7734375 C-70.46876929 73.27124468 -64.66779075 53.43993001 -48.5625 37.0625 C-41.94768294 30.53793326 -34.76143991 24.99646447 -27.21826172 19.59765625 C-24.78700447 17.84659446 -22.37854825 16.06699114 -19.97265625 14.28125 C-5.94390774 3.8739846 -5.94390774 3.8739846 0 0 Z " fill="#BE9EE7" transform="translate(180,28)"/>
<path d="M0 0 C4.09964902 1.34170332 4.83896264 2.79102754 7.4375 6.125 C8.92122085 7.37862511 10.44452617 8.58659782 12 9.75 C30.67147669 24.35524399 30.67147669 24.35524399 33.046875 33.4609375 C33.17708333 35.34895833 33.30729167 37.23697917 33.4375 39.125 C34.0975 39.125 34.7575 39.125 35.4375 39.125 C29.60759403 55.18526981 13.27909588 65.79820625 -0.02392578 75.30957031 C-2.57311239 77.13258932 -5.11386225 78.96679752 -7.65234375 80.8046875 C-11.38343567 83.50588875 -15.11768195 86.20253533 -18.86279297 88.88427734 C-20.22937672 89.88183245 -21.56054598 90.9278127 -22.87890625 91.98828125 C-24.5625 93.125 -24.5625 93.125 -27.5625 93.125 C-27.70150527 83.67621399 -27.80812251 74.22777972 -27.87337303 64.77819443 C-27.90469003 60.39033655 -27.94716795 56.003178 -28.01513672 51.61572266 C-28.08031861 47.38167704 -28.11620327 43.14830408 -28.13176346 38.91379547 C-28.14285216 37.29816342 -28.16450674 35.68256832 -28.19688034 34.0672226 C-28.24043338 31.80409663 -28.24643537 29.54375089 -28.24365234 27.28027344 C-28.25697601 25.99231873 -28.27029968 24.70436401 -28.2840271 23.37738037 C-27.5625 20.125 -27.5625 20.125 -24.63212585 17.764328 C-23.61914932 17.22334976 -22.60617279 16.68237152 -21.5625 16.125 C-20.45964156 15.27442061 -19.37099831 14.40450526 -18.30859375 13.50390625 C-17.76396484 13.04306641 -17.21933594 12.58222656 -16.65820312 12.10742188 C-16.11099609 11.63884766 -15.56378906 11.17027344 -15 10.6875 C-14.44892578 10.22279297 -13.89785156 9.75808594 -13.33007812 9.27929688 C-10.69404164 7.03725873 -8.26472301 4.80942584 -5.8828125 2.28515625 C-3.5625 0.125 -3.5625 0.125 0 0 Z " fill="#4D2C83" transform="translate(209.5625,482.875)"/>
<path d="M0 0 C4.28668411 1.52778015 6.16123001 3.84156023 8.57421875 7.51953125 C9.00347656 8.1525415 9.43273437 8.78555176 9.875 9.43774414 C21.94715815 27.91397852 21.79017035 55.03600619 17.38671875 76.20703125 C15.6963479 82.440367 13.38020764 88.48336963 10.38671875 94.20703125 C9.39671875 94.20703125 8.40671875 94.20703125 7.38671875 94.20703125 C7.23976562 93.65015625 7.0928125 93.09328125 6.94140625 92.51953125 C2.91741339 78.82870498 -8.49131607 69.35056467 -19.484375 60.8984375 C-21.61328125 59.20703125 -21.61328125 59.20703125 -23.0234375 57.609375 C-25.27066665 55.62717533 -27.78295745 55.14343191 -30.61328125 54.20703125 C-34.45874624 51.78370568 -38.00772695 48.97193745 -41.61328125 46.20703125 C-43.04800781 45.15322266 -43.04800781 45.15322266 -44.51171875 44.078125 C-45.41148437 43.39878906 -46.31125 42.71945312 -47.23828125 42.01953125 C-48.05554688 41.40722656 -48.8728125 40.79492188 -49.71484375 40.1640625 C-51.94694595 37.86306825 -52.29826661 36.35174639 -52.61328125 33.20703125 C-50.30840745 31.588937 -48.00158192 29.97380372 -45.69140625 28.36328125 C-43.50580716 26.83225245 -41.32997785 25.29126393 -39.16015625 23.73828125 C-37.99878311 22.91524436 -36.83732586 22.09232614 -35.67578125 21.26953125 C-35.12059814 20.86806885 -34.56541504 20.46660645 -33.9934082 20.05297852 C-29.95242288 17.20703125 -29.95242288 17.20703125 -26.61328125 17.20703125 C-26.61328125 16.54703125 -26.61328125 15.88703125 -26.61328125 15.20703125 C-24.12116238 13.51669853 -21.63162474 11.9384896 -19.05078125 10.39453125 C-17.63141588 9.53615933 -16.21343584 8.67549236 -14.796875 7.8125 C-14.09288574 7.38888184 -13.38889648 6.96526367 -12.66357422 6.52880859 C-10.662883 5.23900837 -8.87250701 3.8157998 -7.0234375 2.3203125 C-4.30522127 0.36715455 -3.57063527 0.20458775 0 0 Z " fill="#946DCB" transform="translate(235.61328125,427.79296875)"/>
<path d="M0 0 C3.39158485 1.44347729 4.8255082 2.11871877 7 5 C8.04225704 10.46474535 7.81345951 15.92137354 7.68359375 21.45703125 C7.67053086 23.08654146 7.66056995 24.71607925 7.65357971 26.34562683 C7.6269074 30.62564581 7.55819528 34.90399031 7.48065186 39.18334961 C7.40892287 43.55364326 7.37704779 47.9242087 7.34179688 52.29492188 C7.26682071 60.86404799 7.1474202 69.43181545 7 78 C2.84567404 76.41594504 -0.38491513 74.48884813 -4 71.875 C-4.58668457 71.4512207 -5.17336914 71.02744141 -5.77783203 70.59082031 C-13.32051936 65.10138807 -20.71361384 59.40904595 -28.1171875 53.734375 C-32.38948599 50.45989967 -36.68561988 47.21878447 -41 44 C-40.84080078 43.40525879 -40.68160156 42.81051758 -40.51757812 42.19775391 C-39.56941191 38.1716255 -39.54037597 34.01668953 -39.28125 29.8984375 C-39 27 -39 27 -38 25 C-37.34 25 -36.68 25 -36 25 C-35.73832031 24.25621094 -35.47664062 23.51242187 -35.20703125 22.74609375 C-31.57277392 14.4778643 -24.02251603 10.57561954 -16.05859375 7.1875 C-10.97736395 5.21471091 -6.5434807 3.66403147 -1 4 C-0.67 2.68 -0.34 1.36 0 0 Z " fill="#C4A8E8" transform="translate(175,498)"/>
<path d="M0 0 C2.81085575 -0.05855949 4.41730158 -0.00465498 7 1 C9.18784016 3.10954767 11.0422433 5.37860374 12.9609375 7.734375 C14.9181491 9.90905456 16.52213514 11.10721309 19.0625 12.5 C23.8996128 15.22985574 27.06898079 19.33784757 30 24 C30 24.66 30 25.32 30 26 C30.99 26.33 31.98 26.66 33 27 C35.72593379 30.76930845 37.1598569 34.83590577 37.625 39.4375 C37.74875 40.613125 37.8725 41.78875 38 43 C38.66 43.33 39.32 43.66 40 44 C38.6020749 48.06935266 36.66821145 50.93944601 33.9375 54.25 C33.22464844 55.12140625 32.51179688 55.9928125 31.77734375 56.890625 C29.18345324 59.96908847 29.18345324 59.96908847 26.8671875 60.359375 C22.82500715 59.85272569 20.26048858 57.67133174 17.125 55.25 C11.09832434 50.6935683 5.16789371 46.6065068 -2 44 C-2 43.34 -2 42.68 -2 42 C-2.53625 41.731875 -3.0725 41.46375 -3.625 41.1875 C-6.41666667 39.79166667 -9.20833333 38.39583333 -12 37 C-12 36.34 -12 35.68 -12 35 C-12.721875 34.7525 -13.44375 34.505 -14.1875 34.25 C-17 33 -17 33 -19.5625 30.9375 C-21.86143125 29.11014439 -23.15122727 28.4220404 -26 28 C-26.28125 25.24609375 -26.28125 25.24609375 -26 22 C-24.09375 19.91015625 -24.09375 19.91015625 -21.5 18.0625 C-20.58992187 17.38703125 -19.67984375 16.7115625 -18.7421875 16.015625 C-17.83726562 15.35046875 -16.93234375 14.6853125 -16 14 C-11.52370165 10.32791796 -7.42458765 6.70880801 -4 2 C-3.01 2.66 -2.02 3.32 -1 4 C-0.67 2.68 -0.34 1.36 0 0 Z " fill="#371B65" transform="translate(209,122)"/>
<path d="M0 0 C-0.35049575 3.24208567 -0.56221181 4.61527704 -3.0625 6.8125 C-3.701875 7.204375 -4.34125 7.59625 -5 8 C-4.43261138 11.39792055 -3.4756777 12.83096984 -0.83984375 15.015625 C0.1027832 15.80839844 0.1027832 15.80839844 1.06445312 16.6171875 C1.72380859 17.15601563 2.38316406 17.69484375 3.0625 18.25 C3.72572266 18.80429687 4.38894531 19.35859375 5.07226562 19.9296875 C6.7079708 21.29473642 8.35309951 22.64847909 10 24 C9.67 25.32 9.34 26.64 9 28 C8.04480469 28.21914063 7.08960938 28.43828125 6.10546875 28.6640625 C-5.5056216 31.45681307 -16.35901421 35.2427062 -24 45 C-24.70355948 46.31423981 -25.3811318 47.64381993 -26 49 C-26.66 49 -27.32 49 -28 49 C-28.03738281 50.04800781 -28.07476562 51.09601562 -28.11328125 52.17578125 C-28.17894515 53.55472305 -28.24539235 54.93362771 -28.3125 56.3125 C-28.33505859 57.00279297 -28.35761719 57.69308594 -28.38085938 58.40429688 C-28.6546608 63.55674183 -28.6546608 63.55674183 -30.54296875 65.98046875 C-31.02378906 66.31691406 -31.50460938 66.65335938 -32 67 C-44.15410994 56.13888048 -53.01217953 40.46367446 -54 24 C-52.13671875 24.5390625 -52.13671875 24.5390625 -50 26 C-49.07226942 28.51518067 -48.39431223 30.78262146 -47.8125 33.375 C-47.64814453 34.04789062 -47.48378906 34.72078125 -47.31445312 35.4140625 C-46.86258466 37.27276033 -46.43056231 39.1362514 -46 41 C-45.66963815 42.33407269 -45.3381533 43.66788092 -45 45 C-44.34 45 -43.68 45 -43 45 C-42.74669922 43.04900391 -42.74669922 43.04900391 -42.48828125 41.05859375 C-41.12273255 34.93820208 -37.51260509 31.40301063 -33.1875 27.0625 C-32.47529297 26.30904297 -31.76308594 25.55558594 -31.02929688 24.77929688 C-25.69720022 19.26962808 -25.69720022 19.26962808 -22.31762695 17.96264648 C-21.55281006 17.64497314 -20.78799316 17.3272998 -20 17 C-19.505 15.515 -19.505 15.515 -19 14 C-17.44140625 12.71875 -17.44140625 12.71875 -15.5625 11.5 C-12.86079158 9.74022333 -11.8672858 8.8009287 -10 6 C-9.34 6 -8.68 6 -8 6 C-8 5.34 -8 4.68 -8 4 C-2.58823529 0 -2.58823529 0 0 0 Z " fill="#9C7DC7" transform="translate(165,474)"/>
<path d="M0 0 C1.98 0.495 1.98 0.495 4 1 C3.2575 1.495 3.2575 1.495 2.5 2 C0.60902413 4.0468433 0.60902413 4.0468433 1.375 7.4375 C1.67101635 15.10573297 -5.45891392 21.14519959 -10.21484375 26.48828125 C-18.6935071 35.36557976 -28.85522594 41.63087778 -39.29443359 47.91992188 C-43.7970732 50.63456774 -48.21018149 53.42521892 -52.5625 56.375 C-56.4258359 58.98920819 -60.31496044 61.33251923 -64.41796875 63.54296875 C-67.86545042 65.48837066 -71.21031285 67.58312257 -74.5625 69.6875 C-75.24272217 70.11409912 -75.92294434 70.54069824 -76.6237793 70.98022461 C-80.20443745 73.23060212 -83.77674929 75.4936705 -87.34375 77.765625 C-88.40420532 78.43718628 -88.40420532 78.43718628 -89.48608398 79.12231445 C-90.82952605 79.97324008 -92.17037381 80.82828147 -93.50805664 81.68823242 C-96.50058545 83.58028541 -99.40833514 85.23816682 -102.69140625 86.57421875 C-105.76945362 87.90065002 -107.83936723 89.22796995 -110.375 91.375 C-115.82806098 95.78405614 -121.74467657 98.89342365 -128 102 C-127.90893555 99.79833984 -127.90893555 99.79833984 -127 97 C-124.83650194 95.18079364 -122.82836416 93.7215806 -120.45703125 92.2265625 C-119.78517792 91.78570312 -119.11332458 91.34484375 -118.42111206 90.890625 C-116.22695086 89.45485651 -114.01995697 88.04022192 -111.8125 86.625 C-110.2987988 85.63887398 -108.7861886 84.65107131 -107.2746582 83.66162109 C-104.25710851 81.68715326 -101.23579647 79.71865919 -98.21191406 77.75390625 C-92.64648336 74.12739777 -87.16133872 70.38826412 -81.6875 66.625 C-79.94559877 65.43187361 -78.203428 64.23914062 -76.4609375 63.046875 C-75.29836426 62.25120117 -75.29836426 62.25120117 -74.11230469 61.43945312 C-71.35936529 59.56343247 -68.58905652 57.715895 -65.8125 55.875 C-60.49846225 52.34529458 -55.21319967 48.7741689 -49.9375 45.1875 C-49.10259033 44.62337402 -48.26768066 44.05924805 -47.4074707 43.47802734 C-46.62202881 42.94258301 -45.83658691 42.40713867 -45.02734375 41.85546875 C-43.97148071 41.13846802 -43.97148071 41.13846802 -42.89428711 40.40698242 C-40.96542826 39.06312975 -40.96542826 39.06312975 -39.45922852 37.3449707 C-38 36 -38 36 -34.625 35.625 C-30.09310689 34.84363912 -29.12765384 33.2856631 -26 30 C-24.12636386 28.36996247 -22.23038236 26.76523951 -20.3125 25.1875 C-19.35988281 24.39730469 -18.40726562 23.60710937 -17.42578125 22.79296875 C-15 21 -15 21 -13 21 C-12.5978125 20.071875 -12.5978125 20.071875 -12.1875 19.125 C-11 17 -11 17 -8 15 C-6.96986723 13.35178756 -5.96885372 11.68496298 -5 10 C-4.34 9.34 -3.68 8.68 -3 8 C-2.11221308 6.03511169 -2.11221308 6.03511169 -1.375 3.875 C-1.11460937 3.15054687 -0.85421875 2.42609375 -0.5859375 1.6796875 C-0.29589844 0.84824219 -0.29589844 0.84824219 0 0 Z " fill="#CBB1ED" transform="translate(341,270)"/>
<path d="M0 0 C4.13422015 1.42301056 7.08257081 3.41494191 10.5 6.125 C11.64122019 7.02173369 12.78320492 7.91749489 13.92578125 8.8125 C14.88025146 9.56273437 14.88025146 9.56273437 15.85400391 10.328125 C20.96540658 14.31025077 26.14795911 18.20097656 31.3125 22.11376953 C53.42744497 38.92230225 68.47727314 54.15840424 72.6184082 82.43481445 C73.27415829 88.56144177 73.20908257 94.65830247 73.125 100.8125 C73.11597656 102.08931641 73.10695313 103.36613281 73.09765625 104.68164062 C73.07438789 107.78796716 73.04170155 110.89387572 73 114 C72.01 114 71.02 114 70 114 C69.67 114.66 69.34 115.32 69 116 C68.98541748 114.90647217 68.97083496 113.81294434 68.95581055 112.6862793 C68.89728506 108.58017316 68.82006197 104.47458477 68.73754883 100.36889648 C68.70455215 98.60107912 68.67644396 96.83316279 68.65356445 95.06518555 C68.52436708 85.34239573 68.40009418 76.23820461 65 67 C64.66415894 66.01882202 64.66415894 66.01882202 64.3215332 65.01782227 C61.11108604 56.05405957 56.59903232 47.10660733 48.7578125 41.35546875 C47.88769531 40.68451172 47.88769531 40.68451172 47 40 C47 39.34 47 38.68 47 38 C46.360625 37.731875 45.72125 37.46375 45.0625 37.1875 C43 36 43 36 42 33 C40.67511887 32.63451555 39.33981486 32.3062434 38 32 C35.75 30.5625 35.75 30.5625 34 29 C34 28.34 34 27.68 34 27 C33.01 27 32.02 27 31 27 C31 26.34 31 25.68 31 25 C30.46890625 24.92652344 29.9378125 24.85304688 29.390625 24.77734375 C26.04528996 23.68956324 23.51094053 21.67283612 20.75 19.5625 C20.19570312 19.15451172 19.64140625 18.74652344 19.0703125 18.32617188 C17.67189091 17.27046691 16.33049348 16.14012413 15 15 C15 14.34 15 13.68 15 13 C14.43796875 12.90847656 13.8759375 12.81695312 13.296875 12.72265625 C10.40564279 11.81299986 8.60080982 10.3388903 6.25 8.4375 C5.45078125 7.79683594 4.6515625 7.15617187 3.828125 6.49609375 C3.22484375 6.00238281 2.6215625 5.50867187 2 5 C2.0721875 6.07765625 2.144375 7.1553125 2.21875 8.265625 C3.44877998 29.15201651 3.08993876 50.08716287 3 71 C3.66 71 4.32 71 5 71 C5 71.66 5 72.32 5 73 C5.66 73 6.32 73 7 73 C7 73.66 7 74.32 7 75 C7.99 75.33 8.98 75.66 10 76 C11.67987227 77.31665664 13.34466005 78.65263027 15 80 C16.6396875 81.051875 16.6396875 81.051875 18.3125 82.125 C19.199375 82.74375 20.08625 83.3625 21 84 C21 84.66 21 85.32 21 86 C21.598125 86.28875 22.19625 86.5775 22.8125 86.875 C25 88 25 88 28 90 C28 91.32 28 92.64 28 94 C25 94 25 94 22.81640625 91.9140625 C22.38602051 91.45676758 21.95563477 90.99947266 21.51220703 90.52832031 C18.55856308 87.54320389 15.20820675 85.00115867 11.9375 82.375 C10.87692383 81.51648438 10.87692383 81.51648438 9.79492188 80.640625 C6.01764323 77.50882042 6.01764323 77.50882042 1.91989136 74.84246826 C0 73 0 73 -0.52571106 69.91256714 C-0.53760971 68.64317291 -0.54950836 67.37377869 -0.56176758 66.06591797 C-0.57371155 65.3648291 -0.58565552 64.66374023 -0.59796143 63.94140625 C-0.6325474 61.62479502 -0.63885353 59.30903557 -0.64453125 56.9921875 C-0.66204925 55.38459503 -0.68116955 53.77701929 -0.701828 52.16946411 C-0.7411478 48.80192459 -0.76766137 45.43462327 -0.78393555 42.06689453 C-0.80492784 37.74085213 -0.8474656 33.41538345 -0.89822865 29.0895977 C-0.94576858 24.97385562 -0.98327095 20.85804207 -1.01953125 16.7421875 C-1.02720835 15.95215206 -1.03488544 15.16211662 -1.04279518 14.34814072 C-1.06245866 12.1238508 -1.07505761 9.89964413 -1.08520508 7.67529297 C-1.09312576 6.40748993 -1.10104645 5.13968689 -1.10920715 3.83346558 C-1 1 -1 1 0 0 Z " fill="#61439B" transform="translate(182,27)"/>
<path d="M0 0 C1.0725 0.309375 2.145 0.61875 3.25 0.9375 C3.58 1.5975 3.91 2.2575 4.25 2.9375 C3.0125 2.69 3.0125 2.69 1.75 2.4375 C-3.69872087 3.2158887 -6.13636856 7.02522133 -9.75 10.9375 C-14.25 14.9375 -14.25 14.9375 -17.75 14.9375 C-17.75 15.9275 -17.75 16.9175 -17.75 17.9375 C-18.41 17.9375 -19.07 17.9375 -19.75 17.9375 C-19.75 18.5975 -19.75 19.2575 -19.75 19.9375 C-20.56362 20.34842896 -21.37723999 20.75935791 -22.21551514 21.18273926 C-25.0239252 22.70075737 -25.0239252 22.70075737 -25.34454346 25.6697998 C-25.33042419 26.77327759 -25.31630493 27.87675537 -25.30175781 29.01367188 C-25.29815247 30.26506958 -25.29454712 31.51646729 -25.29083252 32.80578613 C-25.26197253 34.17261541 -25.23272739 35.5394366 -25.203125 36.90625 C-25.19125573 38.30723319 -25.18174675 39.7082382 -25.17449951 41.10925293 C-25.1497439 44.79766251 -25.09585721 48.48506519 -25.03503418 52.17303467 C-24.95462567 57.37031042 -24.91367334 62.56806969 -24.86834717 67.76574707 C-24.84411003 70.53380956 -24.80889665 73.30139724 -24.76495361 76.06921387 C-24.74873962 77.32061157 -24.73252563 78.57200928 -24.71582031 79.86132812 C-24.69851868 80.96480591 -24.68121704 82.06828369 -24.66339111 83.2052002 C-24.75 85.9375 -24.75 85.9375 -25.75 88.9375 C-25.09 88.9375 -24.43 88.9375 -23.75 88.9375 C-23.75 88.2775 -23.75 87.6175 -23.75 86.9375 C-21.87109375 85.37890625 -21.87109375 85.37890625 -19.1875 83.5 C-18.18976563 82.79230469 -17.19203125 82.08460938 -16.1640625 81.35546875 C-15.6165332 80.9692334 -15.06900391 80.58299805 -14.50488281 80.18505859 C-11.33182523 77.92930953 -8.19959794 75.61785111 -5.0625 73.3125 C-4.10005371 72.60818848 -4.10005371 72.60818848 -3.11816406 71.88964844 C0.30606757 69.38113801 3.69759628 66.83791686 7.0625 64.25 C10.25 61.9375 10.25 61.9375 12.25 61.9375 C12.25 61.2775 12.25 60.6175 12.25 59.9375 C13.859375 58.5 13.859375 58.5 16 56.9375 C16.69609375 56.421875 17.3921875 55.90625 18.109375 55.375 C20.10101621 54.03754751 22.08027923 52.95394577 24.25 51.9375 C20.16969523 62.81831273 8.05271133 69.0794159 -1.0078125 75.53515625 C-6.30995913 79.31944627 -11.51565031 83.22650152 -16.71118164 87.15527344 C-24.36676206 92.9375 -24.36676206 92.9375 -27.75 92.9375 C-27.88900527 83.48871399 -27.99562251 74.04027972 -28.06087303 64.59069443 C-28.09219003 60.20283655 -28.13466795 55.815678 -28.20263672 51.42822266 C-28.26781861 47.19417704 -28.30370327 42.96080408 -28.31926346 38.72629547 C-28.33035216 37.11066342 -28.35200674 35.49506832 -28.38438034 33.8797226 C-28.42793338 31.61659663 -28.43393537 29.35625089 -28.43115234 27.09277344 C-28.44447601 25.80481873 -28.45779968 24.51686401 -28.4715271 23.18988037 C-27.75 19.9375 -27.75 19.9375 -24.81962585 17.576828 C-23.80664932 17.03584976 -22.79367279 16.49487152 -21.75 15.9375 C-20.64714156 15.08692061 -19.55849831 14.21700526 -18.49609375 13.31640625 C-17.95146484 12.85556641 -17.40683594 12.39472656 -16.84570312 11.91992188 C-16.29849609 11.45134766 -15.75128906 10.98277344 -15.1875 10.5 C-14.63642578 10.03529297 -14.08535156 9.57058594 -13.51757812 9.09179688 C-10.87815227 6.84687595 -8.45689778 4.62422823 -6.08203125 2.0859375 C-3.75 -0.0625 -3.75 -0.0625 0 0 Z " fill="#6746A0" transform="translate(209.75,483.0625)"/>
<path d="M0 0 C0.99 1.485 0.99 1.485 2 3 C1.484375 2.649375 0.96875 2.29875 0.4375 1.9375 C-2.94006667 0.6384359 -5.50468057 1.32782319 -9 2 C-9 2.66 -9 3.32 -9 4 C-10.65 4.33 -12.3 4.66 -14 5 C-14 5.66 -14 6.32 -14 7 C-15.4609375 8.2890625 -15.4609375 8.2890625 -17.375 9.625 C-18.00148438 10.07101563 -18.62796875 10.51703125 -19.2734375 10.9765625 C-21 12 -21 12 -23 12 C-23 12.66 -23 13.32 -23 14 C-26 16 -26 16 -29 16 C-29 16.66 -29 17.32 -29 18 C-29.99 18 -30.98 18 -32 18 C-32 18.66 -32 19.32 -32 20 C-34.156258 21.59043144 -36.31041682 23.0559604 -38.5625 24.5 C-39.94280505 25.4021958 -41.32301058 26.30454387 -42.703125 27.20703125 C-43.41533203 27.66932129 -44.12753906 28.13161133 -44.86132812 28.60791016 C-48.19424412 30.77734931 -51.50365071 32.98160047 -54.8125 35.1875 C-55.43423096 35.59983887 -56.05596191 36.01217773 -56.6965332 36.43701172 C-61.22976078 39.45274272 -65.66567578 42.58657022 -70.046875 45.8203125 C-72 47 -72 47 -75 47 C-75 47.66 -75 48.32 -75 49 C-77.08984375 50.515625 -77.08984375 50.515625 -79.9375 52.25 C-84.45275122 55.03265482 -88.86284075 57.91404703 -93.22265625 60.93359375 C-95 62 -95 62 -97 62 C-97 62.66 -97 63.32 -97 64 C-97.99 63.67 -98.98 63.34 -100 63 C-96.73347104 58.35079105 -92.95635764 55.64412516 -88.2890625 52.5703125 C-87.53303238 52.06309158 -86.77700226 51.55587067 -85.99806213 51.03327942 C-83.54518831 49.3898538 -81.08517308 47.75747359 -78.625 46.125 C-76.92692579 44.98985757 -75.22941827 43.853867 -73.5324707 42.71704102 C-70.19143585 40.4794363 -66.84824888 38.24510923 -63.50341797 36.01318359 C-58.03711824 32.36134046 -52.60811178 28.65681966 -47.1875 24.9375 C-38.4302842 18.94348336 -29.60822356 13.04951414 -20.76245117 7.18725586 C-19.80701416 6.55311768 -18.85157715 5.91897949 -17.8671875 5.265625 C-17.02269043 4.70649414 -16.17819336 4.14736328 -15.30810547 3.57128906 C-13.79250295 2.53951227 -12.30495968 1.4650133 -10.85205078 0.34667969 C-7.09313901 -2.38653377 -3.83151285 -2.64242266 0 0 Z " fill="#5B3892" transform="translate(135,185)"/>
<path d="M0 0 C4.67199091 1.53093488 8.02170005 4.10757395 11.8125 7.125 C12.40998047 7.59292969 13.00746094 8.06085937 13.62304688 8.54296875 C15.08616792 9.69005565 16.54366297 10.84431234 18 12 C17.67 12.66 17.34 13.32 17 14 C10.86397012 12.58399311 6.73301638 8.9336625 2 5 C2.0721875 6.07765625 2.144375 7.1553125 2.21875 8.265625 C3.44877998 29.15201651 3.08993876 50.08716287 3 71 C3.66 71 4.32 71 5 71 C5 71.66 5 72.32 5 73 C5.66 73 6.32 73 7 73 C7 73.66 7 74.32 7 75 C7.99 75.33 8.98 75.66 10 76 C11.67987227 77.31665664 13.34466005 78.65263027 15 80 C16.6396875 81.051875 16.6396875 81.051875 18.3125 82.125 C19.199375 82.74375 20.08625 83.3625 21 84 C21 84.66 21 85.32 21 86 C21.598125 86.28875 22.19625 86.5775 22.8125 86.875 C25 88 25 88 28 90 C28 91.32 28 92.64 28 94 C25 94 25 94 22.81640625 91.9140625 C22.38602051 91.45676758 21.95563477 90.99947266 21.51220703 90.52832031 C18.55856308 87.54320389 15.20820675 85.00115867 11.9375 82.375 C10.87692383 81.51648438 10.87692383 81.51648438 9.79492188 80.640625 C6.01764323 77.50882042 6.01764323 77.50882042 1.91989136 74.84246826 C0 73 0 73 -0.52571106 69.91256714 C-0.53760971 68.64317291 -0.54950836 67.37377869 -0.56176758 66.06591797 C-0.57371155 65.3648291 -0.58565552 64.66374023 -0.59796143 63.94140625 C-0.6325474 61.62479502 -0.63885353 59.30903557 -0.64453125 56.9921875 C-0.66204925 55.38459503 -0.68116955 53.77701929 -0.701828 52.16946411 C-0.7411478 48.80192459 -0.76766137 45.43462327 -0.78393555 42.06689453 C-0.80492784 37.74085213 -0.8474656 33.41538345 -0.89822865 29.0895977 C-0.94576858 24.97385562 -0.98327095 20.85804207 -1.01953125 16.7421875 C-1.02720835 15.95215206 -1.03488544 15.16211662 -1.04279518 14.34814072 C-1.06245866 12.1238508 -1.07505761 9.89964413 -1.08520508 7.67529297 C-1.09312576 6.40748993 -1.10104645 5.13968689 -1.10920715 3.83346558 C-1 1 -1 1 0 0 Z " fill="#6D4BA8" transform="translate(182,27)"/>
<path d="M0 0 C0.495 0.99 0.495 0.99 1 2 C1.99 2.495 1.99 2.495 3 3 C1.97261719 3.70125 0.94523437 4.4025 -0.11328125 5.125 C-9.41516261 11.48414724 -9.41516261 11.48414724 -18.5625 18.0625 C-23.10176611 21.39174083 -27.74786026 24.53576667 -32.44262695 27.63891602 C-39.0840408 32.0352982 -45.66713559 36.51670654 -52.25 41 C-52.80955383 41.38106903 -53.36910767 41.76213806 -53.94561768 42.15475464 C-56.4981677 43.89317851 -59.05061806 45.63174656 -61.60253906 47.37109375 C-66.95499932 51.0077144 -66.95499932 51.0077144 -69.1875 50.625 C-69.785625 50.41875 -70.38375 50.2125 -71 50 C-67.4010486 46.18293034 -63.61508373 42.57001108 -59 40 C-58.01 40 -57.02 40 -56 40 C-56 39.34 -56 38.68 -56 38 C-54.20703125 36.59765625 -54.20703125 36.59765625 -51.8125 35.0625 C-51.03519531 34.55847656 -50.25789063 34.05445313 -49.45703125 33.53515625 C-47.82133582 32.51317166 -46.17267 31.51165451 -44.51171875 30.53125 C-41.03764295 28.41330643 -37.79008576 26.01154669 -34.5 23.62109375 C-32.05907133 22.03830407 -29.73120395 20.98030713 -27 20 C-27 19.34 -27 18.68 -27 18 C-24.86035924 16.49744329 -22.7271247 15.1113811 -20.5 13.75 C-15.70862134 10.75501171 -11.09279089 7.68070907 -6.62109375 4.21875 C-4.51374236 2.63442799 -2.296192 1.291608 0 0 Z " fill="#55328E" transform="translate(165,230)"/>
<path d="M0 0 C0 18.81 0 37.62 0 57 C-1.98 57.495 -1.98 57.495 -4 58 C-4.02531216 50.36450914 -4.04285088 42.72902905 -4.05493164 35.09350586 C-4.05996681 32.49486893 -4.0667953 29.89623485 -4.07543945 27.29760742 C-4.08754062 23.56688741 -4.09323641 19.83620478 -4.09765625 16.10546875 C-4.10281754 14.93976852 -4.10797882 13.7740683 -4.11329651 12.57304382 C-4.11337204 11.49214981 -4.11344757 10.4112558 -4.11352539 9.29760742 C-4.115746 8.34496506 -4.11796661 7.39232269 -4.12025452 6.41081238 C-4 4 -4 4 -3 1 C-1 0 -1 0 0 0 Z " fill="#A384D5" transform="translate(21,274)"/>
<path d="M0 0 C0.495 1.485 0.495 1.485 1 3 C0.03320312 3.82242187 -0.93359375 4.64484375 -1.9296875 5.4921875 C-19.44407929 19.40078452 -19.44407929 19.40078452 -29.99609375 38.36328125 C-31 40 -31 40 -33.59765625 40.73046875 C-34.39042969 40.81941406 -35.18320313 40.90835938 -36 41 C-39.30357694 33.06889353 -41.85445386 25.5317541 -43 17 C-41.13671875 17.5390625 -41.13671875 17.5390625 -39 19 C-38.07226942 21.51518067 -37.39431223 23.78262146 -36.8125 26.375 C-36.64814453 27.04789062 -36.48378906 27.72078125 -36.31445312 28.4140625 C-35.86258466 30.27276033 -35.43056231 32.1362514 -35 34 C-34.66963815 35.33407269 -34.3381533 36.66788092 -34 38 C-33.34 38 -32.68 38 -32 38 C-31.74669922 36.04900391 -31.74669922 36.04900391 -31.48828125 34.05859375 C-30.12273255 27.93820208 -26.51260509 24.40301063 -22.1875 20.0625 C-21.47529297 19.30904297 -20.76308594 18.55558594 -20.02929688 17.77929688 C-14.69720022 12.26962808 -14.69720022 12.26962808 -11.31762695 10.96264648 C-10.55281006 10.64497314 -9.78799316 10.3272998 -9 10 C-8.67 9.01 -8.34 8.02 -8 7 C-6.40625 5.68359375 -6.40625 5.68359375 -4.5 4.4375 C-1.74463406 2.68380605 -1.74463406 2.68380605 0 0 Z " fill="#8B64C3" transform="translate(154,481)"/>
<path d="M0 0 C0.33 0 0.66 0 1 0 C1 10.23 1 20.46 1 31 C-8.9 31 -18.8 31 -29 31 C-29 30.01 -29 29.02 -29 28 C-20.09 28 -11.18 28 -2 28 C-2.0309375 24.101875 -2.0309375 24.101875 -2.0625 20.125 C-2.10300411 6.88268857 -2.10300411 6.88268857 -1 1 C-0.67 0.67 -0.34 0.34 0 0 Z " fill="#614297" transform="translate(150,268)"/>
<path d="M0 0 C0.66 0.33 1.32 0.66 2 1 C0.58330822 6.19453651 -2.92108191 9.66182883 -7 13 C-7.66 13 -8.32 13 -9 13 C-9.2475 13.598125 -9.495 14.19625 -9.75 14.8125 C-11.19192497 17.33586869 -12.52549626 18.50030076 -15 20 C-15.99 20 -16.98 20 -18 20 C-14.06318651 24.34962514 -9.31436729 27.17954707 -4.40039062 30.2890625 C-0.94243966 32.52797415 1.79827355 34.41077046 4 38 C0.66666667 36.33333333 -2.66666667 34.66666667 -6 33 C-6 32.34 -6 31.68 -6 31 C-6.721875 30.7525 -7.44375 30.505 -8.1875 30.25 C-11 29 -11 29 -13.5625 26.9375 C-15.86143125 25.11014439 -17.15122727 24.4220404 -20 24 C-20.28125 21.24609375 -20.28125 21.24609375 -20 18 C-18.09375 15.91015625 -18.09375 15.91015625 -15.5 14.0625 C-14.5925 13.38960937 -13.685 12.71671875 -12.75 12.0234375 C-11.8425 11.35570312 -10.935 10.68796875 -10 10 C-8.48399705 8.74830019 -6.98223661 7.47900764 -5.5 6.1875 C-4.8709375 5.64480469 -4.241875 5.10210937 -3.59375 4.54296875 C-1.77333975 2.88963649 -1.77333975 2.88963649 0 0 Z " fill="#53308B" transform="translate(203,126)"/>
<path d="M0 0 C3.51973101 3.25901019 6.52760275 6.8860931 9 11 C9 11.66 9 12.32 9 13 C9.55558594 13.2371875 10.11117187 13.474375 10.68359375 13.71875 C13.54371121 15.3007374 15.66948669 17.27662715 18.0625 19.5 C20.65920335 21.90536731 23.05106306 24.03404204 26 26 C25.67 26.99 25.34 27.98 25 29 C19.12293376 26.00444489 14.90191798 22.33019543 10.3125 17.625 C9.66216797 16.97789062 9.01183594 16.33078125 8.34179688 15.6640625 C4.73177648 12.01356278 1.55409109 8.46802635 -1 4 C-0.75 1.625 -0.75 1.625 0 0 Z " fill="#9B7AD0" transform="translate(24,346)"/>
<path d="M0 0 C2.625 -0.5625 2.625 -0.5625 6 0 C7.7439031 2.05972807 9.05038891 4.24938087 10.4453125 6.55859375 C14.44044533 12.83235762 20.33741779 17.18606273 26.27734375 21.51953125 C26.84582031 22.00808594 27.41429687 22.49664062 28 23 C28 23.66 28 24.32 28 25 C26.68 25 25.36 25 24 25 C24 24.34 24 23.68 24 23 C23.319375 22.814375 22.63875 22.62875 21.9375 22.4375 C17.79206864 20.40888466 15.1356473 17.32982729 12 14 C11.0925 13.0925 10.185 12.185 9.25 11.25 C8.13625 10.13625 8.13625 10.13625 7 9 C6.1646875 8.2265625 6.1646875 8.2265625 5.3125 7.4375 C3.78480532 5.76431059 2.98300452 4.03154267 2 2 C1.34 1.34 0.68 0.68 0 0 Z " fill="#7757AB" transform="translate(153,121)"/>
<path d="M0 0 C0.33 0.66 0.66 1.32 1 2 C1.66 2 2.32 2 3 2 C3 2.66 3 3.32 3 4 C3.99 4.33 4.98 4.66 6 5 C7.67987227 6.31665664 9.34466005 7.65263027 11 9 C12.093125 9.70125 13.18625 10.4025 14.3125 11.125 C15.6428125 12.053125 15.6428125 12.053125 17 13 C17 13.66 17 14.32 17 15 C17.8971875 15.433125 17.8971875 15.433125 18.8125 15.875 C21 17 21 17 24 19 C24 20.32 24 21.64 24 23 C21 23 21 23 18.828125 20.9140625 C18.39822266 20.45676758 17.96832031 19.99947266 17.52539062 19.52832031 C13.87306872 15.8689837 9.59938845 12.82064872 5.53125 9.640625 C4.83515625 9.08632812 4.1390625 8.53203125 3.421875 7.9609375 C2.78862305 7.46384277 2.15537109 6.96674805 1.50292969 6.45458984 C0 5 0 5 -1 2 C-0.67 1.34 -0.34 0.68 0 0 Z " fill="#62429E" transform="translate(186,98)"/>
<path d="M0 0 C1.0725 0.309375 2.145 0.61875 3.25 0.9375 C3.58 1.5975 3.91 2.2575 4.25 2.9375 C3.0125 2.69 3.0125 2.69 1.75 2.4375 C-3.69872087 3.2158887 -6.13636856 7.02522133 -9.75 10.9375 C-14.25 14.9375 -14.25 14.9375 -17.75 14.9375 C-17.75 15.9275 -17.75 16.9175 -17.75 17.9375 C-18.41 17.9375 -19.07 17.9375 -19.75 17.9375 C-19.75 18.5975 -19.75 19.2575 -19.75 19.9375 C-21.73 20.9275 -23.71 21.9175 -25.75 22.9375 C-24.33386538 17.47672188 -20.61466206 14.87002021 -16.4375 11.4375 C-15.106559 10.32472489 -13.777103 9.21017098 -12.44921875 8.09375 C-11.81322754 7.56402588 -11.17723633 7.03430176 -10.52197266 6.48852539 C-8.90609179 5.0741287 -7.45954313 3.60294461 -6.00390625 2.02734375 C-3.75 -0.0625 -3.75 -0.0625 0 0 Z " fill="#57378A" transform="translate(209.75,483.0625)"/>
<path d="M0 0 C0.66 0.33 1.32 0.66 2 1 C-8.5 10 -8.5 10 -12 10 C-12 10.66 -12 11.32 -12 12 C-14.16015625 13.55078125 -14.16015625 13.55078125 -17.0625 15.3125 C-20.49633017 17.42052702 -23.80441091 19.54661225 -27 22 C-27.99 22.66 -28.98 23.32 -30 24 C-30.99 23.67 -31.98 23.34 -33 23 C-22.16701336 15.07091282 -11.19609468 7.40635129 0 0 Z " fill="#8660C0" transform="translate(170,397)"/>
<path d="M0 0 C8.42552781 4.33834765 16.17146822 9.68815037 24 15 C23.67 15.66 23.34 16.32 23 17 C18.7577626 16.45163179 16.23399195 15.02600314 12.8125 12.5 C9.52749532 10.0504742 9.52749532 10.0504742 6 8 C6 7.34 6 6.68 6 6 C5.21625 5.690625 4.4325 5.38125 3.625 5.0625 C1 4 1 4 -1 3 C-0.67 2.01 -0.34 1.02 0 0 Z " fill="#9774CC" transform="translate(137,359)"/>
<path d="M0 0 C3.63 0 7.26 0 11 0 C10.67 0.99 10.34 1.98 10 3 C9.2575 3.28875 8.515 3.5775 7.75 3.875 C4.33293283 5.27289112 2.55925325 7.37512487 0 10 C-2.3125 11.3125 -2.3125 11.3125 -4 12 C-4.33 10.35 -4.66 8.7 -5 7 C-4.0409375 6.6596875 -4.0409375 6.6596875 -3.0625 6.3125 C-2.381875 5.879375 -1.70125 5.44625 -1 5 C-0.67 3.35 -0.34 1.7 0 0 Z " fill="#6F56A1" transform="translate(208,334)"/>
<path d="M0 0 C0.99 0 1.98 0 3 0 C3 8.58 3 17.16 3 26 C2.01 26 1.02 26 0 26 C0 17.42 0 8.84 0 0 Z " fill="#6E4DA0" transform="translate(252,115)"/>
<path d="M0 0 C0.33 0 0.66 0 1 0 C1.33 3.63 1.66 7.26 2 11 C2.66 11 3.32 11 4 11 C5.38442 12.96498322 6.71203834 14.97048465 8 17 C8.98866506 18.34175973 9.9838154 19.67896002 11 21 C9.68 21.33 8.36 21.66 7 22 C2.05022971 16.26249905 -1.83332785 11.3125185 -4 4 C-3.01 3.67 -2.02 3.34 -1 3 C-0.67 2.01 -0.34 1.02 0 0 Z " fill="#6D4DA2" transform="translate(119,160)"/>
<path d="M0 0 C5.95712802 3.12245599 11.47481483 6.61723759 16.93359375 10.546875 C18.92826744 12.02608314 18.92826744 12.02608314 21 13 C20.67 13.66 20.34 14.32 20 15 C14.87063421 14.51385121 11.43121815 11.91084727 7.3125 9.0625 C6.63638672 8.60681641 5.96027344 8.15113281 5.26367188 7.68164062 C2.63918409 5.8980335 0.24969744 4.24969744 -2 2 C-1.34 1.34 -0.68 0.68 0 0 Z " fill="#9A73CC" transform="translate(79,392)"/>
<path d="M0 0 C0.99 0 1.98 0 3 0 C3.02578125 0.81082031 3.0515625 1.62164062 3.078125 2.45703125 C3.48003275 10.30336666 4.89238769 16.78744865 8 24 C6.68 24 5.36 24 4 24 C4 22.35 4 20.7 4 19 C3.34 19 2.68 19 2 19 C-0.44989101 15.25764681 -0.23086143 11.55774581 -0.125 7.25 C-0.11597656 6.55261719 -0.10695312 5.85523438 -0.09765625 5.13671875 C-0.07419888 3.42433042 -0.03833104 1.71211996 0 0 Z " fill="#593B92" transform="translate(232,284)"/>
<path d="M0 0 C0.66 0.33 1.32 0.66 2 1 C-1.16377298 6.40477884 -5.1449783 10.08374226 -10 14 C-10.68578125 14.56976562 -11.3715625 15.13953125 -12.078125 15.7265625 C-14 17 -14 17 -16.75 16.6875 C-17.4925 16.460625 -18.235 16.23375 -19 16 C-16.11912454 13.59927045 -13.43595166 11.52708963 -10 10 C-10 9.34 -10 8.68 -10 8 C-8.3203125 6.5625 -8.3203125 6.5625 -6.125 5 C-3.90197743 3.40643543 -1.93765275 1.93765275 0 0 Z " fill="#583A97" transform="translate(232,535)"/>
<path d="M0 0 C0.33 0 0.66 0 1 0 C1 22.77 1 45.54 1 69 C-0.32 68.34 -1.64 67.68 -3 67 C-2.01 66.505 -2.01 66.505 -1 66 C-0.67 44.22 -0.34 22.44 0 0 Z " fill="#9E81D1" transform="translate(181,507)"/>
<path d="M0 0 C0.33 0 0.66 0 1 0 C1 9.24 1 18.48 1 28 C0.01 27.34 -0.98 26.68 -2 26 C-2.328125 22.875 -2.328125 22.875 -2.25 19 C-2.23831787 18.32952637 -2.22663574 17.65905273 -2.21459961 16.96826172 C-1.86922034 1.86922034 -1.86922034 1.86922034 0 0 Z " fill="#553AA0" transform="translate(150,268)"/>
<path d="M0 0 C0.66 0.33 1.32 0.66 2 1 C2 4.96 2 8.92 2 13 C3.4540625 13.37125 3.4540625 13.37125 4.9375 13.75 C5.948125 14.1625 6.95875 14.575 8 15 C8.875 17.125 8.875 17.125 9 19 C7.68 18.67 6.36 18.34 5 18 C5 17.34 5 16.68 5 16 C2.03 15.505 2.03 15.505 -1 15 C-1.02685412 12.68756208 -1.04632841 10.3750373 -1.0625 8.0625 C-1.07410156 6.77472656 -1.08570313 5.48695313 -1.09765625 4.16015625 C-1 1 -1 1 0 0 Z " fill="#5D3E93" transform="translate(179,255)"/>
<path d="M0 0 C0.66 0.33 1.32 0.66 2 1 C0.58330822 6.19453651 -2.92108191 9.66182883 -7 13 C-7.66 13 -8.32 13 -9 13 C-9.268125 13.639375 -9.53625 14.27875 -9.8125 14.9375 C-11 17 -11 17 -14 18 C-13.36138876 12.46536921 -8.91487827 8.65070977 -4.8125 5.3125 C-1.87245245 3.12328275 -1.87245245 3.12328275 0 0 Z " fill="#513182" transform="translate(203,126)"/>
<path d="M0 0 C7.26 0 14.52 0 22 0 C22 0.99 22 1.98 22 3 C14.74 3 7.48 3 0 3 C0 2.01 0 1.02 0 0 Z " fill="#5F3E96" transform="translate(154,247)"/>
<path d="M0 0 C0.66 0 1.32 0 2 0 C2.08121924 1.60332791 2.13929134 3.20784026 2.1875 4.8125 C2.22230469 5.70582031 2.25710937 6.59914063 2.29296875 7.51953125 C1.95081002 10.41647515 1.24606427 11.22555028 -1 13 C-2.15193623 11.90220176 -3.29634937 10.79650554 -4.4375 9.6875 C-5.07558594 9.07261719 -5.71367187 8.45773437 -6.37109375 7.82421875 C-8 6 -8 6 -9 3 C-5 3 -5 3 -2.75 5 C-2.1725 5.66 -1.595 6.32 -1 7 C-0.67 4.69 -0.34 2.38 0 0 Z " fill="#AA8DD2" transform="translate(134,528)"/>
<path d="M0 0 C3.50261433 1.31270271 6.64477743 2.82151019 9.8125 4.8125 C10.60269531 5.29332031 11.39289063 5.77414062 12.20703125 6.26953125 C14 8 14 8 14.26171875 10.69921875 C14.17535156 11.45847656 14.08898437 12.21773438 14 13 C13.01 13.495 13.01 13.495 12 14 C11.67 13.01 11.34 12.02 11 11 C8.83970719 9.33889835 6.7049116 7.81056857 4.4375 6.3125 C3.82197266 5.89677734 3.20644531 5.48105469 2.57226562 5.05273438 C1.05293329 4.02806838 -0.47292657 3.01309322 -2 2 C-1.34 1.34 -0.68 0.68 0 0 Z " fill="#855EB9" transform="translate(166,379)"/>
<path d="M0 0 C0.99 0.33 1.98 0.66 3 1 C2.81640625 3.35546875 2.81640625 3.35546875 2 6 C-0.28515625 7.36328125 -0.28515625 7.36328125 -3.0625 8.3125 C-3.98160156 8.63863281 -4.90070313 8.96476562 -5.84765625 9.30078125 C-6.55792969 9.53152344 -7.26820313 9.76226562 -8 10 C-9.5 8.75 -9.5 8.75 -11 7 C-11 5.68 -11 4.36 -11 3 C-9.68 3 -8.36 3 -7 3 C-7 3.99 -7 4.98 -7 6 C-6.34 6 -5.68 6 -5 6 C-5 5.34 -5 4.68 -5 4 C-3.35 4 -1.7 4 0 4 C0 2.68 0 1.36 0 0 Z " fill="#5E4194" transform="translate(235,320)"/>
<path d="M0 0 C1.11375 0.3403125 1.11375 0.3403125 2.25 0.6875 C-1.03739169 3.42699307 -4.45565274 5.95334559 -7.9375 8.4375 C-9.22720703 9.35789062 -9.22720703 9.35789062 -10.54296875 10.296875 C-12.75 11.6875 -12.75 11.6875 -14.75 11.6875 C-13.50023244 8.03433329 -13.07901247 6.90684164 -9.75 4.6875 C-8.76 4.6875 -7.77 4.6875 -6.75 4.6875 C-6.75 4.0275 -6.75 3.3675 -6.75 2.6875 C-4.35939287 0.29689287 -3.42334736 -0.38901675 0 0 Z " fill="#502C84" transform="translate(94.75,280.3125)"/>
<path d="M0 0 C2.53541298 0.09086451 5.03554784 0.2370945 7.5625 0.4375 C8.62887695 0.51581055 8.62887695 0.51581055 9.71679688 0.59570312 C11.47821999 0.72574107 13.23916173 0.86226897 15 1 C14.01 1.495 14.01 1.495 13 2 C13 2.99 13 3.98 13 5 C9.04 5 5.08 5 1 5 C0.34 3.68 -0.32 2.36 -1 1 C-0.67 0.67 -0.34 0.34 0 0 Z " fill="#5F4390" transform="translate(195,273)"/>
<path d="M0 0 C5.3762621 2.91214197 10.17918273 6.24351901 15 10 C14.67 10.66 14.34 11.32 14 12 C9.99264783 11.39889717 7.44530629 9.33397972 4.25 6.9375 C3.26515625 6.20402344 2.2803125 5.47054688 1.265625 4.71484375 C0.51796875 4.14894531 -0.2296875 3.58304687 -1 3 C-0.67 2.01 -0.34 1.02 0 0 Z " fill="#9D75CC" transform="translate(195,471)"/>
<path d="M0 0 C0.66 0.33 1.32 0.66 2 1 C1.67 2.32 1.34 3.64 1 5 C0.34 5 -0.32 5 -1 5 C-1.2475 5.556875 -1.495 6.11375 -1.75 6.6875 C-3.22924818 9.42410913 -4.93467439 11.67650869 -7 14 C-7.66 14 -8.32 14 -9 14 C-9.33 14.99 -9.66 15.98 -10 17 C-10.76953125 15.3515625 -10.76953125 15.3515625 -11 13 C-9.19921875 10.2734375 -9.19921875 10.2734375 -6.6875 7.375 C-5.86636719 6.41335937 -5.04523437 5.45171875 -4.19921875 4.4609375 C-2.83844212 2.9382212 -1.44401834 1.44401834 0 0 Z " fill="#4F2D80" transform="translate(34,247)"/>
<path d="M0 0 C0.99 0.495 0.99 0.495 2 1 C1.67 2.98 1.34 4.96 1 7 C1.99 6.67 2.98 6.34 4 6 C4 9.3 4 12.6 4 16 C3.01 16.33 2.02 16.66 1 17 C0.67 17.66 0.34 18.32 0 19 C0 12.73 0 6.46 0 0 Z " fill="#A787D7" transform="translate(251,471)"/>
<path d="M0 0 C0.66 0.33 1.32 0.66 2 1 C0.90301833 6.69139902 -0.54053077 11.74567937 -3 17 C-3.99 16.67 -4.98 16.34 -6 16 C-4.25192871 10.53262809 -2.34205919 5.24175152 0 0 Z " fill="#A47BD6" transform="translate(250,503)"/>
<path d="M0 0 C-0.50337891 0.30703857 -1.00675781 0.61407715 -1.52539062 0.93041992 C-3.85053234 2.34900146 -6.17526786 3.76824738 -8.5 5.1875 C-9.29148437 5.67025391 -10.08296875 6.15300781 -10.8984375 6.65039062 C-11.68476563 7.13056641 -12.47109375 7.61074219 -13.28125 8.10546875 C-14.06628906 8.58290527 -14.85132813 9.0603418 -15.66015625 9.55224609 C-17.22256028 10.51896729 -18.77226556 11.50651343 -20.30859375 12.51416016 C-21.02144531 12.97999512 -21.73429688 13.44583008 -22.46875 13.92578125 C-23.10232422 14.34899658 -23.73589844 14.77221191 -24.38867188 15.20825195 C-24.92041016 15.46952881 -25.45214844 15.73080566 -26 16 C-26.66 15.67 -27.32 15.34 -28 15 C-27.02160156 14.34773438 -26.04320312 13.69546875 -25.03515625 13.0234375 C-24.40391846 12.60231689 -23.77268066 12.18119629 -23.12231445 11.74731445 C-21.74564711 10.83013451 -20.3678727 9.91461414 -18.98901367 9.00073242 C-16.0108717 7.02433231 -13.05297193 5.0377027 -10.140625 2.96484375 C-8.98820312 2.14693359 -8.98820312 2.14693359 -7.8125 1.3125 C-7.15894531 0.83425781 -6.50539063 0.35601562 -5.83203125 -0.13671875 C-3.48168245 -1.24423919 -2.42916612 -0.71368353 0 0 Z " fill="#BC9EE6" transform="translate(268,339)"/>
<path d="M0 0 C1.32 0.33 2.64 0.66 4 1 C5.35439668 3.70879335 5.06501451 6.00933268 5 9 C4.34 9 3.68 9 3 9 C2.67 12.96 2.34 16.92 2 21 C1.67 21 1.34 21 1 21 C0.67 14.07 0.34 7.14 0 0 Z " fill="#54338E" transform="translate(176,247)"/>
<path d="M0 0 C1.98 0.99 3.96 1.98 6 3 C6 3.66 6 4.32 6 5 C6.804375 5.28875 7.60875 5.5775 8.4375 5.875 C11 7 11 7 12 9 C5.83543524 8.62257767 2.82624485 6.84129692 -2 3 C-1.34 2.01 -0.68 1.02 0 0 Z " fill="#6F4EB0" transform="translate(293,295)"/>
<path d="M0 0 C2.05859375 0.92578125 2.05859375 0.92578125 4.4375 2.3125 C5.21996094 2.76238281 6.00242187 3.21226562 6.80859375 3.67578125 C8.5672724 4.7385122 10.29027377 5.86018251 12 7 C11.67 7.99 11.34 8.98 11 10 C10.34 10 9.68 10 9 10 C9 9.34 9 8.68 9 8 C8.01 8 7.02 8 6 8 C6 7.34 6 6.68 6 6 C4.8553125 5.5978125 4.8553125 5.5978125 3.6875 5.1875 C1.12619116 4.05575888 -0.19692938 3.08776599 -2 1 C-1.34 0.67 -0.68 0.34 0 0 Z " fill="#9B7AD2" transform="translate(67,312)"/>
<path d="M0 0 C0.66 0.33 1.32 0.66 2 1 C2 1.66 2 2.32 2 3 C2.99 3 3.98 3 5 3 C5 3.66 5 4.32 5 5 C5.639375 5.12375 6.27875 5.2475 6.9375 5.375 C7.618125 5.58125 8.29875 5.7875 9 6 C9.33 6.66 9.66 7.32 10 8 C9.34 8.66 8.68 9.32 8 10 C4.7 7.69 1.4 5.38 -2 3 C-1.34 2.01 -0.68 1.02 0 0 Z " fill="#825FB7" transform="translate(276,283)"/>
<path d="M0 0 C1.98 0 3.96 0 6 0 C7.65 2.97 9.3 5.94 11 9 C10.34 9 9.68 9 9 9 C8.67 9.66 8.34 10.32 8 11 C5.58357208 8.10028649 3.63724353 5.39143304 2 2 C1.34 1.34 0.68 0.68 0 0 Z " fill="#6D52A4" transform="translate(153,121)"/>
<path d="M0 0 C0.33 0.66 0.66 1.32 1 2 C0.67 2.66 0.34 3.32 0 4 C-2.50390625 4.4140625 -2.50390625 4.4140625 -5.5625 4.625 C-6.57441406 4.69976562 -7.58632812 4.77453125 -8.62890625 4.8515625 C-9.41136719 4.90054687 -10.19382813 4.94953125 -11 5 C-11 3.68 -11 2.36 -11 1 C-5.555 0.505 -5.555 0.505 0 0 Z " fill="#644497" transform="translate(221,274)"/>
<path d="M0 0 C0.66 0.33 1.32 0.66 2 1 C-3.28 6.28 -8.56 11.56 -14 17 C-14 12.80101698 -11.79023406 10.87659845 -9 8 C-6.38832553 5.59941952 -3.70499313 3.2941881 -1 1 C-0.67 0.67 -0.34 0.34 0 0 Z " fill="#6A489D" transform="translate(142,130)"/>
<path d="M0 0 C3.63 0 7.26 0 11 0 C10.67 1.32 10.34 2.64 10 4 C7.03 4 4.06 4 1 4 C0.67 2.68 0.34 1.36 0 0 Z " fill="#5D4188" transform="translate(154,322)"/>
<path d="M0 0 C-0.1875 2.3125 -0.1875 2.3125 -1 5 C-4.31964326 7.60188256 -5.69316041 8 -10 8 C-10 7.34 -10 6.68 -10 6 C-9.34 6 -8.68 6 -8 6 C-8 5.34 -8 4.68 -8 4 C-2.58823529 0 -2.58823529 0 0 0 Z " fill="#9374CC" transform="translate(165,474)"/>
<path d="M0 0 C0.99 0 1.98 0 3 0 C3.2475 0.7425 3.495 1.485 3.75 2.25 C5.09147301 5.20124062 6.60905526 6.84814974 9 9 C8.01 9.33 7.02 9.66 6 10 C3.8125 8.6875 3.8125 8.6875 2 7 C2 6.34 2 5.68 2 5 C1.34 5 0.68 5 0 5 C0 3.35 0 1.7 0 0 Z " fill="#A890CF" transform="translate(156,481)"/>
<path d="M0 0 C0.66 0 1.32 0 2 0 C2 0.99 2 1.98 2 3 C5.63 3 9.26 3 13 3 C13.33 3.66 13.66 4.32 14 5 C9 5 4 5 -1 5 C-0.67 3.35 -0.34 1.7 0 0 Z " fill="#482683" transform="translate(119,296)"/>
<path d="M0 0 C3.63 0 7.26 0 11 0 C11 0.99 11 1.98 11 3 C7.37 3 3.74 3 0 3 C0 2.01 0 1.02 0 0 Z " fill="#5A3D90" transform="translate(121,296)"/>
<path d="M0 0 C0.66 0 1.32 0 2 0 C2.33 1.98 2.66 3.96 3 6 C-1.625 9 -1.625 9 -5 9 C-4.4552207 5.1865449 -2.7581556 3.58021008 0 1 C0 0.67 0 0.34 0 0 Z " fill="#3E216A" transform="translate(177,219)"/>
<path d="M0 0 C0.99 1.485 0.99 1.485 2 3 C1.484375 2.649375 0.96875 2.29875 0.4375 1.9375 C-2.94006667 0.6384359 -5.50468057 1.32782319 -9 2 C-9 2.66 -9 3.32 -9 4 C-10.32 3.67 -11.64 3.34 -13 3 C-10.93860355 0.63321149 -9.49087373 -0.8281942 -6.5 -1.875 C-3.61215275 -2.01939236 -2.36588409 -1.6316442 0 0 Z " fill="#5C368E" transform="translate(135,185)"/>
<path d="M0 0 C3.91211733 1.15585285 6.8745041 2.35534962 10 5 C9.01 5 8.02 5 7 5 C7 5.66 7 6.32 7 7 C4.50638429 5.79618552 2.31856917 4.54571278 0 3 C0 2.01 0 1.02 0 0 Z " fill="#8669BD" transform="translate(186,465)"/>
<path d="M0 0 C3.96 1.98 3.96 1.98 8 4 C8 4.99 8 5.98 8 7 C5.03 6.01 2.06 5.02 -1 4 C-0.67 2.68 -0.34 1.36 0 0 Z " fill="#563892" transform="translate(222,274)"/>
<path d="M0 0 C0.66 0.33 1.32 0.66 2 1 C1.1875 3.4375 1.1875 3.4375 0 6 C-0.99 6.33 -1.98 6.66 -3 7 C-3 7.99 -3 8.98 -3 10 C-3.66 10 -4.32 10 -5 10 C-5.3125 7.25 -5.3125 7.25 -5 4 C-2.5 1.625 -2.5 1.625 0 0 Z " fill="#583B8D" transform="translate(188,140)"/>
<path d="M0 0 C0.33 1.32 0.66 2.64 1 4 C1.66 4 2.32 4 3 4 C1.68775452 7.93673644 0.08089673 10.22719294 -3 13 C-2.343621 8.51474352 -1.29925791 4.33085971 0 0 Z " fill="#55398B" transform="translate(242,518)"/>
<path d="M0 0 C0 3 0 3 -1.125 4.6875 C-3.85181176 6.59626824 -5.75055942 6.40618007 -9 6 C-10.875 4.5 -10.875 4.5 -12 3 C-9.66130747 2.2482774 -8.38308089 1.88028722 -6 2.625 C-3.84841546 3.2645989 -3.84841546 3.2645989 -1.75 1.5625 C-0.88375 0.7890625 -0.88375 0.7890625 0 0 Z " fill="#8660BB" transform="translate(135,422)"/>
<path d="M0 0 C4 4.5 4 4.5 4 9 C1 8 1 8 -1 5 C-0.625 2.3125 -0.625 2.3125 0 0 Z " fill="#A186D1" transform="translate(122,522)"/>
<path d="M0 0 C3.63 0 7.26 0 11 0 C10.67 0.99 10.34 1.98 10 3 C8.35 3.33 6.7 3.66 5 4 C4.67 3.34 4.34 2.68 4 2 C3.01 1.67 2.02 1.34 1 1 C0.67 1.99 0.34 2.98 0 4 C0 2.68 0 1.36 0 0 Z " fill="#644699" transform="translate(208,334)"/>
<path d="M0 0 C0.66 0.33 1.32 0.66 2 1 C1.67 2.32 1.34 3.64 1 5 C0.34 5 -0.32 5 -1 5 C-1.33 5.99 -1.66 6.98 -2 8 C-2.99 7.67 -3.98 7.34 -5 7 C-3.70700306 4.11562221 -2.34058637 2.12780579 0 0 Z " fill="#4F288F" transform="translate(34,247)"/>
<path d="M0 0 C1.5625 1.1875 1.5625 1.1875 3 3 C2.8125 5.625 2.8125 5.625 2 8 C0.66666667 8.66666667 -0.66666667 9.33333333 -2 10 C-1.125 2.25 -1.125 2.25 0 0 Z " fill="#9B6DCD" transform="translate(113,452)"/>
<path d="M0 0 C3.37503669 1.1858237 5.64722731 2.27573689 8 5 C6.25 5.6875 6.25 5.6875 4 6 C1.75 4.75 1.75 4.75 0 3 C0 2.01 0 1.02 0 0 Z " fill="#A484D0" transform="translate(202,477)"/>
<path d="M0 0 C0.66 0 1.32 0 2 0 C2.66 2.97 3.32 5.94 4 9 C2.68 9 1.36 9 0 9 C0 6.03 0 3.06 0 0 Z " fill="#6F509E" transform="translate(201,347)"/>
<path d="M0 0 C1.32 0 2.64 0 4 0 C4.33 1.98 4.66 3.96 5 6 C4.01 6 3.02 6 2 6 C1.34 5.34 0.68 4.68 0 4 C0 2.68 0 1.36 0 0 Z " fill="#937AB8" transform="translate(224,323)"/>
<path d="M0 0 C0.66 0 1.32 0 2 0 C1.63287028 2.71675995 1.27255401 4.61063713 -0.3125 6.875 C-2 8 -2 8 -4.1875 7.6875 C-4.785625 7.460625 -5.38375 7.23375 -6 7 C-4.625 5.5 -4.625 5.5 -3 4 C-2.34 4 -1.68 4 -1 4 C-0.67 2.68 -0.34 1.36 0 0 Z " fill="#452875" transform="translate(240,174)"/>
<path d="M0 0 C0.33 0 0.66 0 1 0 C1 3.96 1 7.92 1 12 C2.32 11.67 3.64 11.34 5 11 C3.35 12.65 1.7 14.3 0 16 C0 10.72 0 5.44 0 0 Z " fill="#452B78" transform="translate(230,521)"/>
<path d="M0 0 C-6.435 2.97 -6.435 2.97 -13 6 C-13.33 5.34 -13.66 4.68 -14 4 C-12.42466914 3.13116294 -10.83935491 2.28040932 -9.25 1.4375 C-8.36828125 0.96183594 -7.4865625 0.48617188 -6.578125 -0.00390625 C-4 -1 -4 -1 0 0 Z " fill="#AE91D4" transform="translate(162,505)"/>
<path d="M0 0 C2.64 0 5.28 0 8 0 C7.01 0.495 7.01 0.495 6 1 C6 1.99 6 2.98 6 4 C3.03 3.505 3.03 3.505 0 3 C0 2.01 0 1.02 0 0 Z " fill="#644B97" transform="translate(202,274)"/>
<path d="M0 0 C2.875 0.25 2.875 0.25 6 1 C7.375 3.0625 7.375 3.0625 8 5 C6.68 5 5.36 5 4 5 C4 4.34 4 3.68 4 3 C2.68 2.67 1.36 2.34 0 2 C0 1.34 0 0.68 0 0 Z " fill="#7C5DB3" transform="translate(173,141)"/>
<path d="M0 0 C2.2109885 0.42793326 3.98119242 0.99059621 6 2 C6 3.32 6 4.64 6 6 C5.01 6 4.02 6 3 6 C0.8125 3.5 0.8125 3.5 -1 1 C-0.67 0.67 -0.34 0.34 0 0 Z " fill="#6C4F9F" transform="translate(204,115)"/>
<path d="M0 0 C2.5 1.1875 2.5 1.1875 4.5 3.1875 C2.8125 3.9375 2.8125 3.9375 0.5 4.1875 C-2.25 2.25 -2.25 2.25 -4.5 0.1875 C-2.5 -0.8125 -2.5 -0.8125 0 0 Z " fill="#8A60C5" transform="translate(168.5,379.8125)"/>
<path d="M0 0 C3.16115776 1.36983503 3.9927092 1.9890638 6 5 C4.1875 5.6875 4.1875 5.6875 2 6 C0.25 4.5625 0.25 4.5625 -1 3 C-0.67 2.01 -0.34 1.02 0 0 Z " fill="#7457A7" transform="translate(124,176)"/>
<path d="M0 0 C0.33 0 0.66 0 1 0 C1.08121924 1.60332791 1.13929134 3.20784026 1.1875 4.8125 C1.22230469 5.70582031 1.25710937 6.59914063 1.29296875 7.51953125 C0.95081002 10.41647515 0.24606427 11.22555028 -2 13 C-2.66 12.01 -3.32 11.02 -4 10 C-2.68 9.67 -1.36 9.34 0 9 C0 6.03 0 3.06 0 0 Z " fill="#B598DB" transform="translate(135,528)"/>
<path d="M0 0 C0.66 0 1.32 0 2 0 C2.66 2.31 3.32 4.62 4 7 C3.01 7.495 3.01 7.495 2 8 C2 7.34 2 6.68 2 6 C1.34 6 0.68 6 0 6 C-1.125 2.25 -1.125 2.25 0 0 Z " fill="#5A3C8E" transform="translate(134,314)"/>
<path d="M0 0 C0.33 0.99 0.66 1.98 1 3 C1.66 3 2.32 3 3 3 C2.34 4.98 1.68 6.96 1 9 C0.01 8.67 -0.98 8.34 -2 8 C-1.34 5.36 -0.68 2.72 0 0 Z " fill="#9B79CF" transform="translate(246,511)"/>
<path d="M0 0 C2.5 1.375 2.5 1.375 5 3 C5 3.66 5 4.32 5 5 C0.25 4.25 0.25 4.25 -2 2 C-1.34 1.34 -0.68 0.68 0 0 Z " fill="#7858AE" transform="translate(293,295)"/>
<path d="M0 0 C1.98 0.99 3.96 1.98 6 3 C5.67 3.99 5.34 4.98 5 6 C2.525 5.01 2.525 5.01 0 4 C0 2.68 0 1.36 0 0 Z " fill="#9875D1" transform="translate(100,334)"/>
<path d="M0 0 C2.5 0.3125 2.5 0.3125 5 1 C5.33 1.66 5.66 2.32 6 3 C5.34 3.66 4.68 4.32 4 5 C2.35 3.68 0.7 2.36 -1 1 C-0.67 0.67 -0.34 0.34 0 0 Z " fill="#7A56B5" transform="translate(280,288)"/>
<path d="M0 0 C0 0.66 0 1.32 0 2 C-0.99 2.33 -1.98 2.66 -3 3 C-3.33 3.99 -3.66 4.98 -4 6 C-4.99 5.67 -5.98 5.34 -7 5 C-6.67 3.68 -6.34 2.36 -6 1 C-3.92446352 0.4465236 -2.15634036 0 0 0 Z " fill="#4E307E" transform="translate(212,120)"/>
<path d="M0 0 C0.66 0.33 1.32 0.66 2 1 C-0.625 5.875 -0.625 5.875 -4 7 C-2.92598892 4.08482708 -2.22189824 2.22189824 0 0 Z " fill="#644798" transform="translate(188,499)"/>
<path d="M0 0 C2.3431213 0.25561323 4.67843403 0.59270772 7 1 C7.33 1.66 7.66 2.32 8 3 C5.03 3 2.06 3 -1 3 C-0.67 2.01 -0.34 1.02 0 0 Z " fill="#6C4D99" transform="translate(206,483)"/>
<path d="M0 0 C1.98 0.99 3.96 1.98 6 3 C5.67 3.66 5.34 4.32 5 5 C2.83125748 4.49396008 1.00032373 4.00016187 -1 3 C-0.67 2.01 -0.34 1.02 0 0 Z " fill="#9B61CB" transform="translate(161,375)"/>
<path d="M0 0 C1.32 0 2.64 0 4 0 C4.33 1.65 4.66 3.3 5 5 C4.01 5.66 3.02 6.32 2 7 C2 5.02 2 3.04 2 1 C1.34 0.67 0.68 0.34 0 0 Z " fill="#58398F" transform="translate(201,356)"/>
<path d="M0 0 C0.66 0 1.32 0 2 0 C3.07525194 2.65228812 4.09456151 5.28368454 5 8 C3.68 7.67 2.36 7.34 1 7 C0.67 4.69 0.34 2.38 0 0 Z " fill="#6B499C" transform="translate(222,323)"/>
<path d="M0 0 C0.66 0.99 1.32 1.98 2 3 C0.1875 4.5625 0.1875 4.5625 -2 6 C-2.99 5.67 -3.98 5.34 -5 5 C-4.67 4.34 -4.34 3.68 -4 3 C-3.01 3 -2.02 3 -1 3 C-0.67 2.01 -0.34 1.02 0 0 Z " fill="#422690" transform="translate(79,290)"/>
<path d="M0 0 C1.32 0.66 2.64 1.32 4 2 C1.525 3.485 1.525 3.485 -1 5 C-1 4.34 -1 3.68 -1 3 C-1.66 2.67 -2.32 2.34 -3 2 C-2.01 1.34 -1.02 0.68 0 0 Z " fill="#5E42A5" transform="translate(192,566)"/>
<path d="M0 0 C0.99 0 1.98 0 3 0 C3 1.65 3 3.3 3 5 C2.01 5.33 1.02 5.66 0 6 C0 4.02 0 2.04 0 0 Z " fill="#634191" transform="translate(236,312)"/>
<path d="M0 0 C0.66 0 1.32 0 2 0 C2.66 1.98 3.32 3.96 4 6 C2.68 6 1.36 6 0 6 C0 4.02 0 2.04 0 0 Z " fill="#5B368D" transform="translate(236,302)"/>
</svg>
